SplineFontDB: 3.2
FontName: XBYas
FullName: XB Yas
FamilyName: XB Yas
Weight: Book
Copyright: Copyright (c) IRMUG (Iranian Mac User Group), 2007. All rights reserved.
Version: 4.000 2007 initial release
ItalicAngle: 0
UnderlinePosition: -600
UnderlineWidth: 60
Ascent: 1638
Descent: 410
InvalidEm: 0
sfntRevision: 0x00040000
LayerCount: 2
Layer: 0 1 "Back" 1
Layer: 1 1 "Fore" 0
XUID: [1021 420 722297922 8359469]
StyleMap: 0x0040
FSType: 0
OS2Version: 2
OS2_WeightWidthSlopeOnly: 0
OS2_UseTypoMetrics: 0
CreationTime: 1194658560
ModificationTime: 1662230919
PfmFamily: 17
TTFWeight: 400
TTFWidth: 5
LineGap: 0
VLineGap: 0
Panose: 2 0 5 3 8 0 0 2 0 3
OS2TypoAscent: 2100
OS2TypoAOffset: 0
OS2TypoDescent: -1000
OS2TypoDOffset: 0
OS2TypoLinegap: 0
OS2WinAscent: 2100
OS2WinAOffset: 0
OS2WinDescent: 1000
OS2WinDOffset: 0
HheadAscent: 2100
HheadAOffset: 0
HheadDescent: -1000
HheadDOffset: 0
OS2SubXSize: 1434
OS2SubYSize: 1331
OS2SubXOff: 0
OS2SubYOff: 293
OS2SupXSize: 1434
OS2SupYSize: 1331
OS2SupXOff: 0
OS2SupYOff: 928
OS2StrikeYSize: 102
OS2StrikeYPos: 512
OS2CapHeight: 1355
OS2XHeight: 930
OS2Vendor: 'pars'
OS2CodePages: 20000051.41000000
OS2UnicodeRanges: 00002003.80000000.00000008.00000000
Lookup: 6 0 0 "'ccmp' Glyph Composition/Decomposition in Arabic lookup 0" { "'ccmp' Glyph Composition/Decomposition in Arabic lookup 0 contextual 0"  "'ccmp' Glyph Composition/Decomposition in Arabic lookup 0 contextual 1"  "'ccmp' Glyph Composition/Decomposition in Arabic lookup 0 contextual 2"  "'ccmp' Glyph Composition/Decomposition in Arabic lookup 0 contextual 3"  "'ccmp' Glyph Composition/Decomposition in Arabic lookup 0 contextual 4"  "'ccmp' Glyph Composition/Decomposition in Arabic lookup 0 contextual 5"  } ['ccmp' ('arab' <'ARA ' 'DRI ' 'FAR ' 'KUR ' 'PAS ' 'URD ' 'UYG ' 'UZB ' 'dflt' > ) ]

StartChar: .notdef
Encoding: 65536 -1 0
Width: 1122
GlyphClass: 2
Flags: W
LayerCount: 2
Fore
SplineSet
624 299 m 0,0,1
 624 269 624 269 602 246.5 c 128,-1,2
 580 224 580 224 548 224 c 0,3,4
 518 224 518 224 496.5 246.5 c 128,-1,5
 475 269 475 269 475 299 c 0,6,7
 475 331 475 331 496.5 352.5 c 128,-1,8
 518 374 518 374 551 374 c 0,9,10
 581 374 581 374 602.5 352.5 c 128,-1,11
 624 331 624 331 624 299 c 0,0,1
732 780 m 0,12,13
 732 737 732 737 708.5 710 c 128,-1,14
 685 683 685 683 648 683 c 0,15,16
 616 683 616 683 597 701.5 c 128,-1,17
 578 720 578 720 578 749 c 0,18,19
 578 770 578 770 588 785 c 128,-1,20
 598 800 598 800 610.5 810.5 c 128,-1,21
 623 821 623 821 633 829 c 128,-1,22
 643 837 643 837 643 843 c 0,23,24
 643 863 643 863 623.5 875 c 128,-1,25
 604 887 604 887 574 887 c 0,26,27
 536 887 536 887 512 866 c 128,-1,28
 488 845 488 845 488 813 c 0,29,30
 488 795 488 795 498.5 769 c 128,-1,31
 509 743 509 743 521.5 718 c 128,-1,32
 534 693 534 693 545.5 673 c 128,-1,33
 557 653 557 653 559 648 c 0,34,35
 570 619 570 619 576.5 583.5 c 128,-1,36
 583 548 583 548 583 513 c 0,37,38
 583 492 583 492 581.5 470.5 c 128,-1,39
 580 449 580 449 578 424 c 1,40,-1
 539 424 l 1,41,-1
 539 442 l 1,42,-1
 543 472 l 1,43,44
 543 505 543 505 498 544 c 0,45,46
 425 609 425 609 416 620 c 0,47,48
 371 673 371 673 371 740 c 0,49,50
 371 781 371 781 386 815.5 c 128,-1,51
 401 850 401 850 426.5 875.5 c 128,-1,52
 452 901 452 901 486.5 915 c 128,-1,53
 521 929 521 929 560 929 c 0,54,55
 595 929 595 929 626.5 918.5 c 128,-1,56
 658 908 658 908 681.5 888.5 c 128,-1,57
 705 869 705 869 718.5 841.5 c 128,-1,58
 732 814 732 814 732 780 c 0,12,13
132 31 m 1,59,-1
 992 31 l 1,60,-1
 992 1122 l 1,61,-1
 132 1122 l 1,62,-1
 132 31 l 1,59,-1
100 0 m 1,63,-1
 100 1154 l 1,64,-1
 1022 1154 l 1,65,-1
 1022 0 l 1,66,-1
 100 0 l 1,63,-1
EndSplineSet
PairPos2: "'kern' Horizontal Kerning in Arabic lookup 0 subtable" afii57509 dx=0 dy=0 dh=0 dv=0 dx=0 dy=0 dh=260 dv=0
PairPos2: "'kern' Horizontal Kerning in Arabic lookup 0 subtable" uni06AB dx=0 dy=0 dh=0 dv=0 dx=0 dy=0 dh=260 dv=0
PairPos2: "'kern' Horizontal Kerning in Arabic lookup 0 subtable" uni06A9 dx=0 dy=0 dh=0 dv=0 dx=0 dy=0 dh=260 dv=0
PairPos2: "'kern' Horizontal Kerning in Arabic lookup 0 subtable" uniFB94 dx=0 dy=0 dh=0 dv=0 dx=0 dy=0 dh=260 dv=0
PairPos2: "'kern' Horizontal Kerning in Arabic lookup 0 subtable" uniFBD5 dx=0 dy=0 dh=0 dv=0 dx=0 dy=0 dh=260 dv=0
PairPos2: "'kern' Horizontal Kerning in Arabic lookup 0 subtable" uni06AB.ini dx=0 dy=0 dh=0 dv=0 dx=0 dy=0 dh=260 dv=0
PairPos2: "'kern' Horizontal Kerning in Arabic lookup 0 subtable" uniFB90 dx=0 dy=0 dh=0 dv=0 dx=0 dy=0 dh=260 dv=0
PairPos2: "'kern' Horizontal Kerning in Arabic lookup 0 subtable" uniFEDB dx=0 dy=0 dh=0 dv=0 dx=0 dy=0 dh=260 dv=0
PairPos2: "'kern' Horizontal Kerning in Arabic lookup 0 subtable" uni0671 dx=0 dy=0 dh=0 dv=0 dx=0 dy=0 dh=208 dv=0
PairPos2: "'kern' Horizontal Kerning in Arabic lookup 0 subtable" afii57410 dx=0 dy=0 dh=0 dv=0 dx=0 dy=0 dh=208 dv=0
PairPos2: "'kern' Horizontal Kerning in Arabic lookup 0 subtable" afii57415 dx=0 dy=0 dh=0 dv=0 dx=0 dy=0 dh=52 dv=0
EndChar

StartChar: exclam
Encoding: 33 33 4
Width: 541
GlyphClass: 2
Flags: W
LayerCount: 2
Fore
SplineSet
341 210 m 0,0,1
 341 186 341 186 331.5 163 c 128,-1,2
 322 140 322 140 305.5 122 c 128,-1,3
 289 104 289 104 267 93 c 128,-1,4
 245 82 245 82 219 82 c 0,5,6
 197 82 197 82 175.5 92.5 c 128,-1,7
 154 103 154 103 137.5 120.5 c 128,-1,8
 121 138 121 138 110.5 161 c 128,-1,9
 100 184 100 184 100 209 c 0,10,11
 100 233 100 233 110 255.5 c 128,-1,12
 120 278 120 278 136 295 c 128,-1,13
 152 312 152 312 172.5 322 c 128,-1,14
 193 332 193 332 215 332 c 0,15,16
 241 332 241 332 264 322 c 128,-1,17
 287 312 287 312 304 295.5 c 128,-1,18
 321 279 321 279 331 257 c 128,-1,19
 341 235 341 235 341 210 c 0,0,1
341 1260 m 0,20,21
 341 1145 341 1145 296 888 c 0,22,23
 271 746 271 746 256.5 634.5 c 128,-1,24
 242 523 242 523 238 435 c 1,25,-1
 201 435 l 1,26,27
 200 529 200 529 187.5 642 c 128,-1,28
 175 755 175 755 149 895 c 0,29,30
 126 1031 126 1031 114.5 1121.5 c 128,-1,31
 103 1212 103 1212 103 1261 c 0,32,33
 103 1298 103 1298 111.5 1330 c 128,-1,34
 120 1362 120 1362 135.5 1385 c 128,-1,35
 151 1408 151 1408 173 1421.5 c 128,-1,36
 195 1435 195 1435 221 1435 c 0,37,38
 277 1435 277 1435 309 1388 c 128,-1,39
 341 1341 341 1341 341 1260 c 0,20,21
EndSplineSet
PairPos2: "'kern' Horizontal Kerning in Arabic lookup 0 subtable" afii57509 dx=0 dy=0 dh=0 dv=0 dx=0 dy=0 dh=260 dv=0
PairPos2: "'kern' Horizontal Kerning in Arabic lookup 0 subtable" uni06AB dx=0 dy=0 dh=0 dv=0 dx=0 dy=0 dh=260 dv=0
PairPos2: "'kern' Horizontal Kerning in Arabic lookup 0 subtable" uni06A9 dx=0 dy=0 dh=0 dv=0 dx=0 dy=0 dh=260 dv=0
PairPos2: "'kern' Horizontal Kerning in Arabic lookup 0 subtable" uniFB94 dx=0 dy=0 dh=0 dv=0 dx=0 dy=0 dh=260 dv=0
PairPos2: "'kern' Horizontal Kerning in Arabic lookup 0 subtable" uniFBD5 dx=0 dy=0 dh=0 dv=0 dx=0 dy=0 dh=260 dv=0
PairPos2: "'kern' Horizontal Kerning in Arabic lookup 0 subtable" uni06AB.ini dx=0 dy=0 dh=0 dv=0 dx=0 dy=0 dh=260 dv=0
PairPos2: "'kern' Horizontal Kerning in Arabic lookup 0 subtable" uniFB90 dx=0 dy=0 dh=0 dv=0 dx=0 dy=0 dh=260 dv=0
PairPos2: "'kern' Horizontal Kerning in Arabic lookup 0 subtable" uniFEDB dx=0 dy=0 dh=0 dv=0 dx=0 dy=0 dh=260 dv=0
PairPos2: "'kern' Horizontal Kerning in Arabic lookup 0 subtable" uni0671 dx=0 dy=0 dh=0 dv=0 dx=0 dy=0 dh=208 dv=0
PairPos2: "'kern' Horizontal Kerning in Arabic lookup 0 subtable" afii57410 dx=0 dy=0 dh=0 dv=0 dx=0 dy=0 dh=208 dv=0
PairPos2: "'kern' Horizontal Kerning in Arabic lookup 0 subtable" afii57415 dx=0 dy=0 dh=0 dv=0 dx=0 dy=0 dh=52 dv=0
EndChar

StartChar: quotedbl
Encoding: 34 34 5
Width: 836
GlyphClass: 2
Flags: W
LayerCount: 2
Fore
SplineSet
294 793 m 1,0,-1
 247 793 l 1,1,-1
 195 1200 l 2,2,3
 192 1227 192 1227 189.5 1252.5 c 128,-1,4
 187 1278 187 1278 187 1298 c 0,5,6
 187 1337 187 1337 209.5 1360.5 c 128,-1,7
 232 1384 232 1384 267 1384 c 0,8,9
 314 1384 314 1384 331.5 1357.5 c 128,-1,10
 349 1331 349 1331 349 1283 c 0,11,12
 349 1277 349 1277 348.5 1267 c 128,-1,13
 348 1257 348 1257 347 1245.5 c 128,-1,14
 346 1234 346 1234 344.5 1222.5 c 128,-1,15
 343 1211 343 1211 342 1203 c 2,16,-1
 294 793 l 1,0,-1
544 793 m 1,17,-1
 494 1191 l 2,18,19
 490 1224 490 1224 488 1240.5 c 128,-1,20
 486 1257 486 1257 485 1264.5 c 128,-1,21
 484 1272 484 1272 484 1274.5 c 128,-1,22
 484 1277 484 1277 484 1283 c 0,23,24
 484 1338 484 1338 505.5 1361 c 128,-1,25
 527 1384 527 1384 566 1384 c 0,26,27
 615 1384 615 1384 631.5 1356.5 c 128,-1,28
 648 1329 648 1329 648 1282 c 0,29,30
 648 1277 648 1277 648 1273.5 c 128,-1,31
 648 1270 648 1270 647 1262.5 c 128,-1,32
 646 1255 646 1255 644.5 1240.5 c 128,-1,33
 643 1226 643 1226 640 1200 c 0,34,35
 629 1103 629 1103 616.5 997 c 128,-1,36
 604 891 604 891 593 793 c 1,37,-1
 544 793 l 1,17,-1
EndSplineSet
PairPos2: "'kern' Horizontal Kerning in Arabic lookup 0 subtable" afii57509 dx=0 dy=0 dh=0 dv=0 dx=0 dy=0 dh=260 dv=0
PairPos2: "'kern' Horizontal Kerning in Arabic lookup 0 subtable" uni06AB dx=0 dy=0 dh=0 dv=0 dx=0 dy=0 dh=260 dv=0
PairPos2: "'kern' Horizontal Kerning in Arabic lookup 0 subtable" uni06A9 dx=0 dy=0 dh=0 dv=0 dx=0 dy=0 dh=260 dv=0
PairPos2: "'kern' Horizontal Kerning in Arabic lookup 0 subtable" uniFB94 dx=0 dy=0 dh=0 dv=0 dx=0 dy=0 dh=260 dv=0
PairPos2: "'kern' Horizontal Kerning in Arabic lookup 0 subtable" uniFBD5 dx=0 dy=0 dh=0 dv=0 dx=0 dy=0 dh=260 dv=0
PairPos2: "'kern' Horizontal Kerning in Arabic lookup 0 subtable" uni06AB.ini dx=0 dy=0 dh=0 dv=0 dx=0 dy=0 dh=260 dv=0
PairPos2: "'kern' Horizontal Kerning in Arabic lookup 0 subtable" uniFB90 dx=0 dy=0 dh=0 dv=0 dx=0 dy=0 dh=260 dv=0
PairPos2: "'kern' Horizontal Kerning in Arabic lookup 0 subtable" uniFEDB dx=0 dy=0 dh=0 dv=0 dx=0 dy=0 dh=260 dv=0
PairPos2: "'kern' Horizontal Kerning in Arabic lookup 0 subtable" uni0671 dx=0 dy=0 dh=0 dv=0 dx=0 dy=0 dh=208 dv=0
PairPos2: "'kern' Horizontal Kerning in Arabic lookup 0 subtable" afii57410 dx=0 dy=0 dh=0 dv=0 dx=0 dy=0 dh=208 dv=0
PairPos2: "'kern' Horizontal Kerning in Arabic lookup 0 subtable" afii57415 dx=0 dy=0 dh=0 dv=0 dx=0 dy=0 dh=52 dv=0
EndChar

StartChar: numbersign
Encoding: 35 35 6
Width: 1024
GlyphClass: 2
Flags: W
LayerCount: 2
Fore
SplineSet
572 505 m 1,0,1
 595 590 595 590 618 676 c 128,-1,2
 641 762 641 762 664 847 c 1,3,-1
 450 847 l 1,4,5
 427 762 427 762 404 676 c 128,-1,6
 381 590 381 590 358 505 c 1,7,-1
 572 505 l 1,0,1
18 505 m 1,8,-1
 235 505 l 1,9,10
 258 591 258 591 282.5 677 c 128,-1,11
 307 763 307 763 330 849 c 1,12,-1
 113 849 l 1,13,-1
 129 925 l 1,14,-1
 347 925 l 1,15,16
 360 973 360 973 375 1028 c 128,-1,17
 390 1083 390 1083 406 1139 c 128,-1,18
 422 1195 422 1195 437 1250 c 128,-1,19
 452 1305 452 1305 465 1353 c 1,20,-1
 590 1353 l 1,21,-1
 472 925 l 1,22,-1
 686 925 l 1,23,24
 713 1028 713 1028 744 1139 c 128,-1,25
 775 1250 775 1250 802 1353 c 1,26,-1
 924 1353 l 1,27,-1
 806 925 l 1,28,-1
 1023 925 l 1,29,-1
 1004 849 l 1,30,-1
 787 849 l 1,31,32
 764 763 764 763 741 677 c 128,-1,33
 718 591 718 591 695 505 c 1,34,-1
 912 505 l 1,35,-1
 890 428 l 1,36,-1
 676 428 l 1,37,38
 649 326 649 326 618 214.5 c 128,-1,39
 587 103 587 103 560 0 c 1,40,-1
 434 0 l 1,41,-1
 553 428 l 1,42,-1
 339 428 l 1,43,44
 312 326 312 326 281 214.5 c 128,-1,45
 250 103 250 103 223 0 c 1,46,-1
 101 0 l 1,47,-1
 216 428 l 1,48,-1
 2 428 l 1,49,-1
 18 505 l 1,8,-1
EndSplineSet
PairPos2: "'kern' Horizontal Kerning in Arabic lookup 0 subtable" afii57509 dx=0 dy=0 dh=0 dv=0 dx=0 dy=0 dh=260 dv=0
PairPos2: "'kern' Horizontal Kerning in Arabic lookup 0 subtable" uni06AB dx=0 dy=0 dh=0 dv=0 dx=0 dy=0 dh=260 dv=0
PairPos2: "'kern' Horizontal Kerning in Arabic lookup 0 subtable" uni06A9 dx=0 dy=0 dh=0 dv=0 dx=0 dy=0 dh=260 dv=0
PairPos2: "'kern' Horizontal Kerning in Arabic lookup 0 subtable" uniFB94 dx=0 dy=0 dh=0 dv=0 dx=0 dy=0 dh=260 dv=0
PairPos2: "'kern' Horizontal Kerning in Arabic lookup 0 subtable" uniFBD5 dx=0 dy=0 dh=0 dv=0 dx=0 dy=0 dh=260 dv=0
PairPos2: "'kern' Horizontal Kerning in Arabic lookup 0 subtable" uni06AB.ini dx=0 dy=0 dh=0 dv=0 dx=0 dy=0 dh=260 dv=0
PairPos2: "'kern' Horizontal Kerning in Arabic lookup 0 subtable" uniFB90 dx=0 dy=0 dh=0 dv=0 dx=0 dy=0 dh=260 dv=0
PairPos2: "'kern' Horizontal Kerning in Arabic lookup 0 subtable" uniFEDB dx=0 dy=0 dh=0 dv=0 dx=0 dy=0 dh=260 dv=0
PairPos2: "'kern' Horizontal Kerning in Arabic lookup 0 subtable" uni0671 dx=0 dy=0 dh=0 dv=0 dx=0 dy=0 dh=208 dv=0
PairPos2: "'kern' Horizontal Kerning in Arabic lookup 0 subtable" afii57410 dx=0 dy=0 dh=0 dv=0 dx=0 dy=0 dh=208 dv=0
PairPos2: "'kern' Horizontal Kerning in Arabic lookup 0 subtable" afii57415 dx=0 dy=0 dh=0 dv=0 dx=0 dy=0 dh=52 dv=0
EndChar

StartChar: dollar
Encoding: 36 36 7
Width: 1024
GlyphClass: 2
Flags: W
LayerCount: 2
Fore
SplineSet
468 1301 m 1,0,1
 423 1295 423 1295 384.5 1277 c 128,-1,2
 346 1259 346 1259 318.5 1232 c 128,-1,3
 291 1205 291 1205 275.5 1169 c 128,-1,4
 260 1133 260 1133 260 1090 c 0,5,6
 260 1027 260 1027 313 961.5 c 128,-1,7
 366 896 366 896 468 836 c 1,8,-1
 468 1301 l 1,0,1
677 110 m 0,9,10
 774 177 774 177 774 314 c 0,11,12
 774 408 774 408 703 481 c 0,13,14
 682 503 682 503 641.5 531.5 c 128,-1,15
 601 560 601 560 541 597 c 1,16,-1
 541 58 l 1,17,18
 581 66 581 66 616 79 c 128,-1,19
 651 92 651 92 677 110 c 0,9,10
122 370 m 1,20,21
 136 311 136 311 156.5 262 c 128,-1,22
 177 213 177 213 200 181 c 0,23,24
 245 124 245 124 314 92 c 128,-1,25
 383 60 383 60 470 58 c 1,26,-1
 470 634 l 1,27,28
 376 690 376 690 307 737 c 128,-1,29
 238 784 238 784 207 814 c 0,30,31
 105 915 105 915 105 1050 c 0,32,33
 105 1163 105 1163 203 1258 c 0,34,35
 253 1306 253 1306 320.5 1330.5 c 128,-1,36
 388 1355 388 1355 470 1360 c 1,37,-1
 470 1488 l 1,38,-1
 541 1488 l 1,39,-1
 541 1360 l 1,40,41
 622 1355 622 1355 723 1328 c 0,42,43
 771 1315 771 1315 807.5 1294.5 c 128,-1,44
 844 1274 844 1274 870 1251 c 1,45,-1
 870 1022 l 1,46,-1
 838 1022 l 1,47,48
 827 1087 827 1087 799 1138 c 128,-1,49
 771 1189 771 1189 731 1224.5 c 128,-1,50
 691 1260 691 1260 642.5 1279.5 c 128,-1,51
 594 1299 594 1299 541 1301 c 1,52,-1
 541 802 l 1,53,54
 648 748 648 748 728 695.5 c 128,-1,55
 808 643 808 643 850 598 c 0,56,57
 891 554 891 554 912.5 492.5 c 128,-1,58
 934 431 934 431 935 358 c 0,59,60
 935 284 935 284 907 221.5 c 128,-1,61
 879 159 879 159 827 111.5 c 128,-1,62
 775 64 775 64 702.5 35 c 128,-1,63
 630 6 630 6 541 0 c 1,64,-1
 541 -181 l 1,65,-1
 470 -181 l 1,66,-1
 470 0 l 1,67,68
 407 2 407 2 351.5 9 c 128,-1,69
 296 16 296 16 254 30 c 0,70,71
 197 48 197 48 90 105 c 1,72,-1
 90 370 l 1,73,-1
 122 370 l 1,20,21
EndSplineSet
PairPos2: "'kern' Horizontal Kerning in Arabic lookup 0 subtable" afii57509 dx=0 dy=0 dh=0 dv=0 dx=0 dy=0 dh=260 dv=0
PairPos2: "'kern' Horizontal Kerning in Arabic lookup 0 subtable" uni06AB dx=0 dy=0 dh=0 dv=0 dx=0 dy=0 dh=260 dv=0
PairPos2: "'kern' Horizontal Kerning in Arabic lookup 0 subtable" uni06A9 dx=0 dy=0 dh=0 dv=0 dx=0 dy=0 dh=260 dv=0
PairPos2: "'kern' Horizontal Kerning in Arabic lookup 0 subtable" uniFB94 dx=0 dy=0 dh=0 dv=0 dx=0 dy=0 dh=260 dv=0
PairPos2: "'kern' Horizontal Kerning in Arabic lookup 0 subtable" uniFBD5 dx=0 dy=0 dh=0 dv=0 dx=0 dy=0 dh=260 dv=0
PairPos2: "'kern' Horizontal Kerning in Arabic lookup 0 subtable" uni06AB.ini dx=0 dy=0 dh=0 dv=0 dx=0 dy=0 dh=260 dv=0
PairPos2: "'kern' Horizontal Kerning in Arabic lookup 0 subtable" uniFB90 dx=0 dy=0 dh=0 dv=0 dx=0 dy=0 dh=260 dv=0
PairPos2: "'kern' Horizontal Kerning in Arabic lookup 0 subtable" uniFEDB dx=0 dy=0 dh=0 dv=0 dx=0 dy=0 dh=260 dv=0
PairPos2: "'kern' Horizontal Kerning in Arabic lookup 0 subtable" uni0671 dx=0 dy=0 dh=0 dv=0 dx=0 dy=0 dh=208 dv=0
PairPos2: "'kern' Horizontal Kerning in Arabic lookup 0 subtable" afii57410 dx=0 dy=0 dh=0 dv=0 dx=0 dy=0 dh=208 dv=0
PairPos2: "'kern' Horizontal Kerning in Arabic lookup 0 subtable" afii57415 dx=0 dy=0 dh=0 dv=0 dx=0 dy=0 dh=52 dv=0
EndChar

StartChar: percent
Encoding: 37 37 8
Width: 1706
GlyphClass: 2
Flags: W
LayerCount: 2
Fore
SplineSet
733 1134 m 0,0,1
 733 1180 733 1180 726.5 1198.5 c 128,-1,2
 720 1217 720 1217 705.5 1225.5 c 128,-1,3
 691 1234 691 1234 669 1241 c 128,-1,4
 647 1248 647 1248 615 1269 c 0,5,6
 598 1280 598 1280 590 1286.5 c 128,-1,7
 582 1293 582 1293 577 1293 c 0,8,9
 482 1293 482 1293 381 1119 c 0,10,11
 281 946 281 946 281 802 c 0,12,13
 281 736 281 736 312 699 c 128,-1,14
 343 662 343 662 408 662 c 0,15,16
 529 662 529 662 631 811 c 256,17,18
 733 960 733 960 733 1134 c 0,0,1
1525 516 m 0,19,20
 1525 600 1525 600 1484.5 646.5 c 128,-1,21
 1444 693 1444 693 1378 693 c 0,22,23
 1321 693 1321 693 1267 645.5 c 128,-1,24
 1213 598 1213 598 1168 512 c 0,25,26
 1122 423 1122 423 1099 343.5 c 128,-1,27
 1076 264 1076 264 1075 198 c 0,28,29
 1075 132 1075 132 1112.5 97.5 c 128,-1,30
 1150 63 1150 63 1210 63 c 0,31,32
 1330 63 1330 63 1427 222 c 0,33,34
 1525 383 1525 383 1525 516 c 0,19,20
1360 760 m 0,35,36
 1448 760 1448 760 1515 708 c 256,37,38
 1582 656 1582 656 1582 514 c 0,39,40
 1582 363 1582 363 1468 180 c 256,41,42
 1354 -3 1354 -3 1167 -3 c 0,43,44
 1117 -3 1117 -3 1071.5 13.5 c 128,-1,45
 1026 30 1026 30 992 64.5 c 128,-1,46
 958 99 958 99 938 152.5 c 128,-1,47
 918 206 918 206 918 280 c 0,48,49
 918 452 918 452 1055 606 c 0,50,51
 1193 760 1193 760 1360 760 c 0,35,36
667 1339 m 0,52,53
 690 1331 690 1331 709 1313.5 c 128,-1,54
 728 1296 728 1296 747 1279 c 0,55,56
 770 1259 770 1259 811.5 1251 c 128,-1,57
 853 1243 853 1243 897 1243 c 0,58,59
 1011 1243 1011 1243 1109 1299 c 0,60,61
 1134 1313 1134 1313 1160.5 1334 c 128,-1,62
 1187 1355 1187 1355 1216 1384 c 1,63,-1
 1299 1384 l 1,64,-1
 509 -29 l 1,65,-1
 411 -29 l 1,66,-1
 1123 1248 l 1,67,68
 1084 1230 1084 1230 1059 1219 c 128,-1,69
 1034 1208 1034 1208 1013 1202 c 128,-1,70
 992 1196 992 1196 970 1194 c 128,-1,71
 948 1192 948 1192 915 1192 c 0,72,73
 871 1192 871 1192 838.5 1196 c 128,-1,74
 806 1200 806 1200 774 1210 c 1,75,76
 778 1197 778 1197 780.5 1187 c 128,-1,77
 783 1177 783 1177 784.5 1167.5 c 128,-1,78
 786 1158 786 1158 786.5 1145.5 c 128,-1,79
 787 1133 787 1133 787 1113 c 0,80,81
 787 933 787 933 666 761 c 0,82,83
 546 590 546 590 371 590 c 0,84,85
 278 590 278 590 201 661 c 0,86,87
 125 731 125 731 125 870 c 0,88,89
 125 953 125 953 159 1034 c 128,-1,90
 193 1115 193 1115 259 1195 c 0,91,92
 324 1273 324 1273 403 1313.5 c 128,-1,93
 482 1354 482 1354 566 1355 c 0,94,95
 629 1355 629 1355 667 1339 c 0,52,53
EndSplineSet
Ligature2: "<17013,16013> Roman in Arabic lookup 72 subtable" zero fraction zero
Ligature2: "<17013,16013> Roman in Arabic lookup 72 subtable" zero slash zero
Ligature2: "Ligature Substitution lookup 42 subtable" zero fraction zero
Ligature2: "Ligature Substitution lookup 42 subtable" zero slash zero
PairPos2: "'kern' Horizontal Kerning in Arabic lookup 0 subtable" afii57509 dx=0 dy=0 dh=0 dv=0 dx=0 dy=0 dh=260 dv=0
PairPos2: "'kern' Horizontal Kerning in Arabic lookup 0 subtable" uni06AB dx=0 dy=0 dh=0 dv=0 dx=0 dy=0 dh=260 dv=0
PairPos2: "'kern' Horizontal Kerning in Arabic lookup 0 subtable" uni06A9 dx=0 dy=0 dh=0 dv=0 dx=0 dy=0 dh=260 dv=0
PairPos2: "'kern' Horizontal Kerning in Arabic lookup 0 subtable" uniFB94 dx=0 dy=0 dh=0 dv=0 dx=0 dy=0 dh=260 dv=0
PairPos2: "'kern' Horizontal Kerning in Arabic lookup 0 subtable" uniFBD5 dx=0 dy=0 dh=0 dv=0 dx=0 dy=0 dh=260 dv=0
PairPos2: "'kern' Horizontal Kerning in Arabic lookup 0 subtable" uni06AB.ini dx=0 dy=0 dh=0 dv=0 dx=0 dy=0 dh=260 dv=0
PairPos2: "'kern' Horizontal Kerning in Arabic lookup 0 subtable" uniFB90 dx=0 dy=0 dh=0 dv=0 dx=0 dy=0 dh=260 dv=0
PairPos2: "'kern' Horizontal Kerning in Arabic lookup 0 subtable" uniFEDB dx=0 dy=0 dh=0 dv=0 dx=0 dy=0 dh=260 dv=0
PairPos2: "'kern' Horizontal Kerning in Arabic lookup 0 subtable" uni0671 dx=0 dy=0 dh=0 dv=0 dx=0 dy=0 dh=208 dv=0
PairPos2: "'kern' Horizontal Kerning in Arabic lookup 0 subtable" afii57410 dx=0 dy=0 dh=0 dv=0 dx=0 dy=0 dh=208 dv=0
PairPos2: "'kern' Horizontal Kerning in Arabic lookup 0 subtable" afii57415 dx=0 dy=0 dh=0 dv=0 dx=0 dy=0 dh=52 dv=0
EndChar

StartChar: ampersand
Encoding: 38 38 9
Width: 1593
GlyphClass: 2
Flags: W
LayerCount: 2
Fore
SplineSet
804 954 m 0,0,1
 894 1040 894 1040 894 1142 c 0,2,3
 894 1180 894 1180 882 1211.5 c 128,-1,4
 870 1243 870 1243 849 1266 c 128,-1,5
 828 1289 828 1289 798.5 1302 c 128,-1,6
 769 1315 769 1315 734 1315 c 0,7,8
 659 1315 659 1315 617.5 1266.5 c 128,-1,9
 576 1218 576 1218 576 1137 c 0,10,11
 576 1075 576 1075 598.5 1002 c 128,-1,12
 621 929 621 929 656 851 c 1,13,14
 702 877 702 877 740.5 904 c 128,-1,15
 779 931 779 931 804 954 c 0,0,1
674 114 m 0,16,17
 712 129 712 129 750.5 154 c 128,-1,18
 789 179 789 179 825 214 c 1,19,20
 779 271 779 271 742 322 c 128,-1,21
 705 373 705 373 679 414 c 0,22,23
 653 456 653 456 612.5 527 c 128,-1,24
 572 598 572 598 516 699 c 1,25,26
 395 626 395 626 335.5 546 c 128,-1,27
 276 466 276 466 276 361 c 0,28,29
 276 307 276 307 295.5 256.5 c 128,-1,30
 315 206 315 206 349.5 167.5 c 128,-1,31
 384 129 384 129 432.5 105.5 c 128,-1,32
 481 82 481 82 538 82 c 0,33,34
 566 82 566 82 600.5 90.5 c 128,-1,35
 635 99 635 99 674 114 c 0,16,17
484 772 m 1,36,37
 478 785 478 785 470 805 c 128,-1,38
 462 825 462 825 454.5 846.5 c 128,-1,39
 447 868 447 868 440.5 888.5 c 128,-1,40
 434 909 434 909 431 922 c 0,41,42
 423 954 423 954 418 986.5 c 128,-1,43
 413 1019 413 1019 413 1050 c 0,44,45
 413 1122 413 1122 436.5 1183 c 128,-1,46
 460 1244 460 1244 501 1289 c 128,-1,47
 542 1334 542 1334 599.5 1359 c 128,-1,48
 657 1384 657 1384 724 1384 c 0,49,50
 786 1384 786 1384 837.5 1366.5 c 128,-1,51
 889 1349 889 1349 926.5 1316.5 c 128,-1,52
 964 1284 964 1284 985 1238.5 c 128,-1,53
 1006 1193 1006 1193 1006 1136 c 0,54,55
 1006 1004 1006 1004 905 920 c 0,56,57
 857 879 857 879 801 845.5 c 128,-1,58
 745 812 745 812 688 786 c 1,59,60
 694 776 694 776 705 756.5 c 128,-1,61
 716 737 716 737 729.5 713.5 c 128,-1,62
 743 690 743 690 757.5 664.5 c 128,-1,63
 772 639 772 639 784.5 617.5 c 128,-1,64
 797 596 797 596 805.5 580.5 c 128,-1,65
 814 565 814 565 817 561 c 0,66,67
 838 529 838 529 874 479 c 128,-1,68
 910 429 910 429 957 367 c 1,69,70
 1004 427 1004 427 1039 482.5 c 128,-1,71
 1074 538 1074 538 1097.5 585 c 128,-1,72
 1121 632 1121 632 1132.5 670.5 c 128,-1,73
 1144 709 1144 709 1144 734 c 0,74,75
 1144 757 1144 757 1138.5 773.5 c 128,-1,76
 1133 790 1133 790 1118 801.5 c 128,-1,77
 1103 813 1103 813 1077.5 819 c 128,-1,78
 1052 825 1052 825 1013 828 c 1,79,-1
 1013 873 l 1,80,-1
 1455 873 l 1,81,-1
 1455 828 l 1,82,83
 1414 824 1414 824 1385 816 c 128,-1,84
 1356 808 1356 808 1334.5 794 c 128,-1,85
 1313 780 1313 780 1296.5 759 c 128,-1,86
 1280 738 1280 738 1263 708 c 2,87,-1
 1211 613 l 2,88,89
 1184 563 1184 563 1159.5 521.5 c 128,-1,90
 1135 480 1135 480 1118 456 c 0,91,92
 1099 429 1099 429 1072 392.5 c 128,-1,93
 1045 356 1045 356 1007 309 c 1,94,95
 1027 286 1027 286 1050 262 c 128,-1,96
 1073 238 1073 238 1097 215 c 0,97,98
 1151 169 1151 169 1207 144.5 c 128,-1,99
 1263 120 1263 120 1317 120 c 0,100,101
 1349 120 1349 120 1377 128.5 c 128,-1,102
 1405 137 1405 137 1428 152 c 0,103,104
 1456 171 1456 171 1504 230 c 1,105,-1
 1535 205 l 1,106,107
 1532 192 1532 192 1520 171 c 128,-1,108
 1508 150 1508 150 1491.5 127 c 128,-1,109
 1475 104 1475 104 1457 82.5 c 128,-1,110
 1439 61 1439 61 1424 47 c 0,111,112
 1383 12 1383 12 1328.5 -9 c 128,-1,113
 1274 -30 1274 -30 1222 -30 c 0,114,115
 1124 -30 1124 -30 1030 31 c 0,116,117
 1002 49 1002 49 963.5 80.5 c 128,-1,118
 925 112 925 112 879 157 c 1,119,120
 836 118 836 118 789 86 c 128,-1,121
 742 54 742 54 697 31 c 0,122,123
 638 2 638 2 570.5 -13.5 c 128,-1,124
 503 -29 503 -29 434 -29 c 0,125,126
 354 -29 354 -29 289 -7.5 c 128,-1,127
 224 14 224 14 178 55.5 c 128,-1,128
 132 97 132 97 107 156.5 c 128,-1,129
 82 216 82 216 82 291 c 0,130,131
 82 357 82 357 106 418 c 128,-1,132
 130 479 130 479 173 534 c 128,-1,133
 216 589 216 589 276 637.5 c 128,-1,134
 336 686 336 686 408 728 c 2,135,-1
 484 772 l 1,36,37
EndSplineSet
PairPos2: "'kern' Horizontal Kerning in Arabic lookup 0 subtable" afii57509 dx=0 dy=0 dh=0 dv=0 dx=0 dy=0 dh=260 dv=0
PairPos2: "'kern' Horizontal Kerning in Arabic lookup 0 subtable" uni06AB dx=0 dy=0 dh=0 dv=0 dx=0 dy=0 dh=260 dv=0
PairPos2: "'kern' Horizontal Kerning in Arabic lookup 0 subtable" uni06A9 dx=0 dy=0 dh=0 dv=0 dx=0 dy=0 dh=260 dv=0
PairPos2: "'kern' Horizontal Kerning in Arabic lookup 0 subtable" uniFB94 dx=0 dy=0 dh=0 dv=0 dx=0 dy=0 dh=260 dv=0
PairPos2: "'kern' Horizontal Kerning in Arabic lookup 0 subtable" uniFBD5 dx=0 dy=0 dh=0 dv=0 dx=0 dy=0 dh=260 dv=0
PairPos2: "'kern' Horizontal Kerning in Arabic lookup 0 subtable" uni06AB.ini dx=0 dy=0 dh=0 dv=0 dx=0 dy=0 dh=260 dv=0
PairPos2: "'kern' Horizontal Kerning in Arabic lookup 0 subtable" uniFB90 dx=0 dy=0 dh=0 dv=0 dx=0 dy=0 dh=260 dv=0
PairPos2: "'kern' Horizontal Kerning in Arabic lookup 0 subtable" uniFEDB dx=0 dy=0 dh=0 dv=0 dx=0 dy=0 dh=260 dv=0
PairPos2: "'kern' Horizontal Kerning in Arabic lookup 0 subtable" uni0671 dx=0 dy=0 dh=0 dv=0 dx=0 dy=0 dh=208 dv=0
PairPos2: "'kern' Horizontal Kerning in Arabic lookup 0 subtable" afii57410 dx=0 dy=0 dh=0 dv=0 dx=0 dy=0 dh=208 dv=0
PairPos2: "'kern' Horizontal Kerning in Arabic lookup 0 subtable" afii57415 dx=0 dy=0 dh=0 dv=0 dx=0 dy=0 dh=52 dv=0
EndChar

StartChar: quotesingle
Encoding: 39 39 10
Width: 369
GlyphClass: 2
Flags: W
LayerCount: 2
Fore
SplineSet
254 1288 m 0,0,1
 254 1280 254 1280 253 1268 c 128,-1,2
 252 1256 252 1256 249 1233 c 0,3,4
 237 1126 237 1126 224.5 1013 c 128,-1,5
 212 900 212 900 200 793 c 1,6,-1
 162 793 l 1,7,-1
 110 1200 l 2,8,9
 107 1225 107 1225 104.5 1249 c 128,-1,10
 102 1273 102 1273 102 1298 c 0,11,12
 102 1313 102 1313 104.5 1328.5 c 128,-1,13
 107 1344 107 1344 115 1356.5 c 128,-1,14
 123 1369 123 1369 138 1376.5 c 128,-1,15
 153 1384 153 1384 177 1384 c 0,16,17
 225 1384 225 1384 239.5 1358.5 c 128,-1,18
 254 1333 254 1333 254 1288 c 0,0,1
EndSplineSet
PairPos2: "'kern' Horizontal Kerning in Arabic lookup 0 subtable" afii57509 dx=0 dy=0 dh=0 dv=0 dx=0 dy=0 dh=260 dv=0
PairPos2: "'kern' Horizontal Kerning in Arabic lookup 0 subtable" uni06AB dx=0 dy=0 dh=0 dv=0 dx=0 dy=0 dh=260 dv=0
PairPos2: "'kern' Horizontal Kerning in Arabic lookup 0 subtable" uni06A9 dx=0 dy=0 dh=0 dv=0 dx=0 dy=0 dh=260 dv=0
PairPos2: "'kern' Horizontal Kerning in Arabic lookup 0 subtable" uniFB94 dx=0 dy=0 dh=0 dv=0 dx=0 dy=0 dh=260 dv=0
PairPos2: "'kern' Horizontal Kerning in Arabic lookup 0 subtable" uniFBD5 dx=0 dy=0 dh=0 dv=0 dx=0 dy=0 dh=260 dv=0
PairPos2: "'kern' Horizontal Kerning in Arabic lookup 0 subtable" uni06AB.ini dx=0 dy=0 dh=0 dv=0 dx=0 dy=0 dh=260 dv=0
PairPos2: "'kern' Horizontal Kerning in Arabic lookup 0 subtable" uniFB90 dx=0 dy=0 dh=0 dv=0 dx=0 dy=0 dh=260 dv=0
PairPos2: "'kern' Horizontal Kerning in Arabic lookup 0 subtable" uniFEDB dx=0 dy=0 dh=0 dv=0 dx=0 dy=0 dh=260 dv=0
PairPos2: "'kern' Horizontal Kerning in Arabic lookup 0 subtable" uni0671 dx=0 dy=0 dh=0 dv=0 dx=0 dy=0 dh=208 dv=0
PairPos2: "'kern' Horizontal Kerning in Arabic lookup 0 subtable" afii57410 dx=0 dy=0 dh=0 dv=0 dx=0 dy=0 dh=208 dv=0
PairPos2: "'kern' Horizontal Kerning in Arabic lookup 0 subtable" afii57415 dx=0 dy=0 dh=0 dv=0 dx=0 dy=0 dh=52 dv=0
EndChar

StartChar: parenleft
Encoding: 40 40 11
Width: 694
GlyphClass: 2
Flags: W
LayerCount: 2
Fore
SplineSet
576 -529 m 0,0,1
 594 -549 594 -549 594 -568 c 0,2,3
 594 -584 594 -584 579 -584 c 0,4,5
 566 -584 566 -584 553 -571 c 0,6,7
 511 -538 511 -538 468.5 -495.5 c 128,-1,8
 426 -453 426 -453 386.5 -402.5 c 128,-1,9
 347 -352 347 -352 311 -295.5 c 128,-1,10
 275 -239 275 -239 245 -178 c 0,11,12
 212 -107 212 -107 185.5 -29.5 c 128,-1,13
 159 48 159 48 140 128.5 c 128,-1,14
 121 209 121 209 110.5 290.5 c 128,-1,15
 100 372 100 372 100 451 c 0,16,17
 100 603 100 603 137.5 757.5 c 128,-1,18
 175 912 175 912 247 1064 c 0,19,20
 311 1198 311 1198 389.5 1302.5 c 128,-1,21
 468 1407 468 1407 553 1473 c 0,22,23
 576 1490 576 1490 583 1490 c 0,24,25
 594 1490 594 1490 594 1479 c 0,26,27
 594 1465 594 1465 576 1433 c 0,28,29
 420 1171 420 1171 341 927 c 128,-1,30
 262 683 262 683 262 451 c 0,31,32
 262 309 262 309 287 165.5 c 128,-1,33
 312 22 312 22 360 -121 c 0,34,35
 405 -246 405 -246 459 -349 c 128,-1,36
 513 -452 513 -452 576 -529 c 0,0,1
EndSplineSet
Substitution2: "Single Substitution lookup 34 subtable" zerowidthspace
PairPos2: "'kern' Horizontal Kerning in Arabic lookup 0 subtable" afii57509 dx=0 dy=0 dh=0 dv=0 dx=0 dy=0 dh=260 dv=0
PairPos2: "'kern' Horizontal Kerning in Arabic lookup 0 subtable" uni06AB dx=0 dy=0 dh=0 dv=0 dx=0 dy=0 dh=260 dv=0
PairPos2: "'kern' Horizontal Kerning in Arabic lookup 0 subtable" uni06A9 dx=0 dy=0 dh=0 dv=0 dx=0 dy=0 dh=260 dv=0
PairPos2: "'kern' Horizontal Kerning in Arabic lookup 0 subtable" uniFB94 dx=0 dy=0 dh=0 dv=0 dx=0 dy=0 dh=260 dv=0
PairPos2: "'kern' Horizontal Kerning in Arabic lookup 0 subtable" uniFBD5 dx=0 dy=0 dh=0 dv=0 dx=0 dy=0 dh=260 dv=0
PairPos2: "'kern' Horizontal Kerning in Arabic lookup 0 subtable" uni06AB.ini dx=0 dy=0 dh=0 dv=0 dx=0 dy=0 dh=260 dv=0
PairPos2: "'kern' Horizontal Kerning in Arabic lookup 0 subtable" uniFB90 dx=0 dy=0 dh=0 dv=0 dx=0 dy=0 dh=260 dv=0
PairPos2: "'kern' Horizontal Kerning in Arabic lookup 0 subtable" uniFEDB dx=0 dy=0 dh=0 dv=0 dx=0 dy=0 dh=260 dv=0
PairPos2: "'kern' Horizontal Kerning in Arabic lookup 0 subtable" uni0671 dx=0 dy=0 dh=0 dv=0 dx=0 dy=0 dh=208 dv=0
PairPos2: "'kern' Horizontal Kerning in Arabic lookup 0 subtable" afii57410 dx=0 dy=0 dh=0 dv=0 dx=0 dy=0 dh=208 dv=0
PairPos2: "'kern' Horizontal Kerning in Arabic lookup 0 subtable" afii57415 dx=0 dy=0 dh=0 dv=0 dx=0 dy=0 dh=52 dv=0
EndChar

StartChar: parenright
Encoding: 41 41 12
Width: 793
GlyphClass: 2
Flags: W
LayerCount: 2
Fore
SplineSet
115 1437 m 0,0,1
 100 1460 100 1460 100 1476 c 0,2,3
 100 1491 100 1491 111 1491 c 0,4,5
 125 1491 125 1491 141 1479 c 0,6,7
 231 1413 231 1413 308 1313.5 c 128,-1,8
 385 1214 385 1214 449 1083 c 0,9,10
 516 940 516 940 554.5 778 c 128,-1,11
 593 616 593 616 593 454 c 0,12,13
 593 148 593 148 446 -158 c 0,14,15
 380 -295 380 -295 303 -397 c 128,-1,16
 226 -499 226 -499 141 -565 c 0,17,18
 130 -574 130 -574 122.5 -579.5 c 128,-1,19
 115 -585 115 -585 107 -584 c 0,20,21
 100 -584 100 -584 100 -571 c 0,22,23
 100 -564 100 -564 103.5 -552.5 c 128,-1,24
 107 -541 107 -541 115 -527 c 0,25,26
 273 -264 273 -264 352 -21 c 128,-1,27
 431 222 431 222 431 454 c 0,28,29
 431 738 431 738 330 1027 c 0,30,31
 286 1154 286 1154 233.5 1256 c 128,-1,32
 181 1358 181 1358 115 1437 c 0,0,1
EndSplineSet
Substitution2: "Single Substitution lookup 34 subtable" zerowidthspace
PairPos2: "'kern' Horizontal Kerning in Arabic lookup 0 subtable" afii57509 dx=0 dy=0 dh=0 dv=0 dx=0 dy=0 dh=260 dv=0
PairPos2: "'kern' Horizontal Kerning in Arabic lookup 0 subtable" uni06AB dx=0 dy=0 dh=0 dv=0 dx=0 dy=0 dh=260 dv=0
PairPos2: "'kern' Horizontal Kerning in Arabic lookup 0 subtable" uni06A9 dx=0 dy=0 dh=0 dv=0 dx=0 dy=0 dh=260 dv=0
PairPos2: "'kern' Horizontal Kerning in Arabic lookup 0 subtable" uniFB94 dx=0 dy=0 dh=0 dv=0 dx=0 dy=0 dh=260 dv=0
PairPos2: "'kern' Horizontal Kerning in Arabic lookup 0 subtable" uniFBD5 dx=0 dy=0 dh=0 dv=0 dx=0 dy=0 dh=260 dv=0
PairPos2: "'kern' Horizontal Kerning in Arabic lookup 0 subtable" uni06AB.ini dx=0 dy=0 dh=0 dv=0 dx=0 dy=0 dh=260 dv=0
PairPos2: "'kern' Horizontal Kerning in Arabic lookup 0 subtable" uniFB90 dx=0 dy=0 dh=0 dv=0 dx=0 dy=0 dh=260 dv=0
PairPos2: "'kern' Horizontal Kerning in Arabic lookup 0 subtable" uniFEDB dx=0 dy=0 dh=0 dv=0 dx=0 dy=0 dh=260 dv=0
PairPos2: "'kern' Horizontal Kerning in Arabic lookup 0 subtable" uni0671 dx=0 dy=0 dh=0 dv=0 dx=0 dy=0 dh=208 dv=0
PairPos2: "'kern' Horizontal Kerning in Arabic lookup 0 subtable" afii57410 dx=0 dy=0 dh=0 dv=0 dx=0 dy=0 dh=208 dv=0
PairPos2: "'kern' Horizontal Kerning in Arabic lookup 0 subtable" afii57415 dx=0 dy=0 dh=0 dv=0 dx=0 dy=0 dh=52 dv=0
EndChar

StartChar: asterisk
Encoding: 42 42 13
Width: 1024
GlyphClass: 2
Flags: W
LayerCount: 2
Fore
SplineSet
236 879 m 0,0,1
 315 896 315 896 373.5 917.5 c 128,-1,2
 432 939 432 939 472 964 c 1,3,4
 432 987 432 987 371.5 1009.5 c 128,-1,5
 311 1032 311 1032 233 1052 c 0,6,7
 135 1077 135 1077 135 1138 c 0,8,9
 135 1173 135 1173 155.5 1192 c 128,-1,10
 176 1211 176 1211 205 1211 c 0,11,12
 248 1211 248 1211 312 1135 c 0,13,14
 376 1061 376 1061 487 997 c 1,15,-1
 487 1021 l 2,16,17
 487 1104 487 1104 460 1186 c 0,18,19
 434 1270 434 1270 434 1303 c 0,20,21
 434 1343 434 1343 455.5 1363.5 c 128,-1,22
 477 1384 477 1384 508 1384 c 0,23,24
 544 1384 544 1384 562.5 1361 c 128,-1,25
 581 1338 581 1338 581 1302 c 0,26,27
 581 1277 581 1277 553 1193 c 0,28,29
 539 1150 539 1150 533 1101 c 128,-1,30
 527 1052 527 1052 527 992 c 1,31,32
 572 1025 572 1025 594 1041 c 128,-1,33
 616 1057 616 1057 627.5 1066 c 128,-1,34
 639 1075 639 1075 646 1082.5 c 128,-1,35
 653 1090 653 1090 668 1107 c 0,36,37
 739 1185 739 1185 757 1200 c 0,38,39
 776 1214 776 1214 807 1214 c 256,40,41
 838 1214 838 1214 858 1192 c 128,-1,42
 878 1170 878 1170 878 1138 c 0,43,44
 878 1075 878 1075 788 1056 c 0,45,46
 714 1040 714 1040 654 1016.5 c 128,-1,47
 594 993 594 993 545 962 c 1,48,-1
 560 953 l 2,49,50
 579 943 579 943 605 932 c 128,-1,51
 631 921 631 921 661 910.5 c 128,-1,52
 691 900 691 900 724 891 c 128,-1,53
 757 882 757 882 791 875 c 0,54,55
 879 856 879 856 879 787 c 0,56,57
 879 768 879 768 872 754 c 128,-1,58
 865 740 865 740 853.5 731 c 128,-1,59
 842 722 842 722 828.5 718 c 128,-1,60
 815 714 815 714 802 714 c 0,61,62
 759 714 759 714 687 800 c 0,63,64
 650 845 650 845 614 876 c 128,-1,65
 578 907 578 907 540 925 c 2,66,-1
 527 932 l 1,67,-1
 527 919 l 2,68,69
 527 800 527 800 555 722 c 0,70,71
 584 643 584 643 584 626 c 0,72,73
 584 592 584 592 561.5 566.5 c 128,-1,74
 539 541 539 541 502 541 c 0,75,76
 468 541 468 541 449 565 c 128,-1,77
 430 589 430 589 430 624 c 0,78,79
 430 629 430 629 438.5 660.5 c 128,-1,80
 447 692 447 692 464 749 c 0,81,82
 476 791 476 791 483 827 c 128,-1,83
 490 863 490 863 490 889 c 0,84,85
 490 912 490 912 485 932 c 1,86,87
 402 887 402 887 327 801 c 0,88,89
 254 717 254 717 206 717 c 0,90,91
 169 717 169 717 152 738.5 c 128,-1,92
 135 760 135 760 135 784 c 0,93,94
 135 857 135 857 236 879 c 0,0,1
EndSplineSet
PairPos2: "'kern' Horizontal Kerning in Arabic lookup 0 subtable" afii57509 dx=0 dy=0 dh=0 dv=0 dx=0 dy=0 dh=260 dv=0
PairPos2: "'kern' Horizontal Kerning in Arabic lookup 0 subtable" uni06AB dx=0 dy=0 dh=0 dv=0 dx=0 dy=0 dh=260 dv=0
PairPos2: "'kern' Horizontal Kerning in Arabic lookup 0 subtable" uni06A9 dx=0 dy=0 dh=0 dv=0 dx=0 dy=0 dh=260 dv=0
PairPos2: "'kern' Horizontal Kerning in Arabic lookup 0 subtable" uniFB94 dx=0 dy=0 dh=0 dv=0 dx=0 dy=0 dh=260 dv=0
PairPos2: "'kern' Horizontal Kerning in Arabic lookup 0 subtable" uniFBD5 dx=0 dy=0 dh=0 dv=0 dx=0 dy=0 dh=260 dv=0
PairPos2: "'kern' Horizontal Kerning in Arabic lookup 0 subtable" uni06AB.ini dx=0 dy=0 dh=0 dv=0 dx=0 dy=0 dh=260 dv=0
PairPos2: "'kern' Horizontal Kerning in Arabic lookup 0 subtable" uniFB90 dx=0 dy=0 dh=0 dv=0 dx=0 dy=0 dh=260 dv=0
PairPos2: "'kern' Horizontal Kerning in Arabic lookup 0 subtable" uniFEDB dx=0 dy=0 dh=0 dv=0 dx=0 dy=0 dh=260 dv=0
PairPos2: "'kern' Horizontal Kerning in Arabic lookup 0 subtable" uni0671 dx=0 dy=0 dh=0 dv=0 dx=0 dy=0 dh=208 dv=0
PairPos2: "'kern' Horizontal Kerning in Arabic lookup 0 subtable" afii57410 dx=0 dy=0 dh=0 dv=0 dx=0 dy=0 dh=208 dv=0
PairPos2: "'kern' Horizontal Kerning in Arabic lookup 0 subtable" afii57415 dx=0 dy=0 dh=0 dv=0 dx=0 dy=0 dh=52 dv=0
EndChar

StartChar: plus
Encoding: 43 43 14
Width: 1050
GlyphClass: 2
Flags: W
LayerCount: 2
Fore
SplineSet
455 1036 m 1,0,-1
 597 1036 l 1,1,-1
 597 588 l 1,2,-1
 1042 588 l 1,3,-1
 1042 446 l 1,4,-1
 597 446 l 1,5,-1
 597 0 l 1,6,-1
 455 0 l 1,7,-1
 455 446 l 1,8,-1
 8 446 l 1,9,-1
 8 588 l 1,10,-1
 455 588 l 1,11,-1
 455 1036 l 1,0,-1
EndSplineSet
PairPos2: "'kern' Horizontal Kerning in Arabic lookup 0 subtable" afii57509 dx=0 dy=0 dh=0 dv=0 dx=0 dy=0 dh=260 dv=0
PairPos2: "'kern' Horizontal Kerning in Arabic lookup 0 subtable" uni06AB dx=0 dy=0 dh=0 dv=0 dx=0 dy=0 dh=260 dv=0
PairPos2: "'kern' Horizontal Kerning in Arabic lookup 0 subtable" uni06A9 dx=0 dy=0 dh=0 dv=0 dx=0 dy=0 dh=260 dv=0
PairPos2: "'kern' Horizontal Kerning in Arabic lookup 0 subtable" uniFB94 dx=0 dy=0 dh=0 dv=0 dx=0 dy=0 dh=260 dv=0
PairPos2: "'kern' Horizontal Kerning in Arabic lookup 0 subtable" uniFBD5 dx=0 dy=0 dh=0 dv=0 dx=0 dy=0 dh=260 dv=0
PairPos2: "'kern' Horizontal Kerning in Arabic lookup 0 subtable" uni06AB.ini dx=0 dy=0 dh=0 dv=0 dx=0 dy=0 dh=260 dv=0
PairPos2: "'kern' Horizontal Kerning in Arabic lookup 0 subtable" uniFB90 dx=0 dy=0 dh=0 dv=0 dx=0 dy=0 dh=260 dv=0
PairPos2: "'kern' Horizontal Kerning in Arabic lookup 0 subtable" uniFEDB dx=0 dy=0 dh=0 dv=0 dx=0 dy=0 dh=260 dv=0
PairPos2: "'kern' Horizontal Kerning in Arabic lookup 0 subtable" uni0671 dx=0 dy=0 dh=0 dv=0 dx=0 dy=0 dh=208 dv=0
PairPos2: "'kern' Horizontal Kerning in Arabic lookup 0 subtable" afii57410 dx=0 dy=0 dh=0 dv=0 dx=0 dy=0 dh=208 dv=0
PairPos2: "'kern' Horizontal Kerning in Arabic lookup 0 subtable" afii57415 dx=0 dy=0 dh=0 dv=0 dx=0 dy=0 dh=52 dv=0
EndChar

StartChar: comma
Encoding: 44 44 15
Width: 512
GlyphClass: 2
Flags: W
LayerCount: 2
Fore
SplineSet
167 -251 m 1,0,1
 215 -224 215 -224 247.5 -193.5 c 128,-1,2
 280 -163 280 -163 299.5 -133 c 128,-1,3
 319 -103 319 -103 327.5 -76 c 128,-1,4
 336 -49 336 -49 336 -29 c 0,5,6
 336 -15 336 -15 327.5 -11.5 c 128,-1,7
 319 -8 319 -8 309 -8 c 0,8,9
 292 -8 292 -8 275.5 -11.5 c 128,-1,10
 259 -15 259 -15 242 -15 c 0,11,12
 221 -15 221 -15 200.5 -8 c 128,-1,13
 180 -1 180 -1 164 12.5 c 128,-1,14
 148 26 148 26 138.5 46 c 128,-1,15
 129 66 129 66 129 93 c 0,16,17
 129 113 129 113 135.5 133.5 c 128,-1,18
 142 154 142 154 157 171 c 128,-1,19
 172 188 172 188 196 199 c 128,-1,20
 220 210 220 210 254 210 c 0,21,22
 286 210 286 210 315.5 197.5 c 128,-1,23
 345 185 345 185 367.5 161 c 128,-1,24
 390 137 390 137 404 102 c 128,-1,25
 418 67 418 67 418 22 c 0,26,27
 418 -81 418 -81 345 -167 c 0,28,29
 270 -254 270 -254 187 -292 c 1,30,-1
 167 -251 l 1,0,1
EndSplineSet
PairPos2: "'kern' Horizontal Kerning in Arabic lookup 0 subtable" afii57509 dx=0 dy=0 dh=0 dv=0 dx=0 dy=0 dh=260 dv=0
PairPos2: "'kern' Horizontal Kerning in Arabic lookup 0 subtable" uni06AB dx=0 dy=0 dh=0 dv=0 dx=0 dy=0 dh=260 dv=0
PairPos2: "'kern' Horizontal Kerning in Arabic lookup 0 subtable" uni06A9 dx=0 dy=0 dh=0 dv=0 dx=0 dy=0 dh=260 dv=0
PairPos2: "'kern' Horizontal Kerning in Arabic lookup 0 subtable" uniFB94 dx=0 dy=0 dh=0 dv=0 dx=0 dy=0 dh=260 dv=0
PairPos2: "'kern' Horizontal Kerning in Arabic lookup 0 subtable" uniFBD5 dx=0 dy=0 dh=0 dv=0 dx=0 dy=0 dh=260 dv=0
PairPos2: "'kern' Horizontal Kerning in Arabic lookup 0 subtable" uni06AB.ini dx=0 dy=0 dh=0 dv=0 dx=0 dy=0 dh=260 dv=0
PairPos2: "'kern' Horizontal Kerning in Arabic lookup 0 subtable" uniFB90 dx=0 dy=0 dh=0 dv=0 dx=0 dy=0 dh=260 dv=0
PairPos2: "'kern' Horizontal Kerning in Arabic lookup 0 subtable" uniFEDB dx=0 dy=0 dh=0 dv=0 dx=0 dy=0 dh=260 dv=0
PairPos2: "'kern' Horizontal Kerning in Arabic lookup 0 subtable" uni0671 dx=0 dy=0 dh=0 dv=0 dx=0 dy=0 dh=208 dv=0
PairPos2: "'kern' Horizontal Kerning in Arabic lookup 0 subtable" afii57410 dx=0 dy=0 dh=0 dv=0 dx=0 dy=0 dh=208 dv=0
PairPos2: "'kern' Horizontal Kerning in Arabic lookup 0 subtable" afii57415 dx=0 dy=0 dh=0 dv=0 dx=0 dy=0 dh=52 dv=0
EndChar

StartChar: hyphen
Encoding: 45 45 16
AltUni2: 0000ad.ffffffff.0 002212.ffffffff.0
Width: 1050
GlyphClass: 2
Flags: W
LayerCount: 2
Fore
SplineSet
930 588 m 1,0,-1
 930 446 l 1,1,-1
 120 446 l 1,2,-1
 120 588 l 1,3,-1
 930 588 l 1,0,-1
EndSplineSet
Substitution2: "<17011,16011>  in Arabic lookup 68 nested-substitutions 0 subtable" hyphenlow
Substitution2: "<17010,16010>  in Arabic lookup 66 nested-substitutions 0 subtable" hyphenlow
Substitution2: "Single Substitution lookup 34 subtable" hyphenlow
PairPos2: "'kern' Horizontal Kerning in Arabic lookup 0 subtable" afii57509 dx=0 dy=0 dh=0 dv=0 dx=0 dy=0 dh=260 dv=0
PairPos2: "'kern' Horizontal Kerning in Arabic lookup 0 subtable" uni06AB dx=0 dy=0 dh=0 dv=0 dx=0 dy=0 dh=260 dv=0
PairPos2: "'kern' Horizontal Kerning in Arabic lookup 0 subtable" uni06A9 dx=0 dy=0 dh=0 dv=0 dx=0 dy=0 dh=260 dv=0
PairPos2: "'kern' Horizontal Kerning in Arabic lookup 0 subtable" uniFB94 dx=0 dy=0 dh=0 dv=0 dx=0 dy=0 dh=260 dv=0
PairPos2: "'kern' Horizontal Kerning in Arabic lookup 0 subtable" uniFBD5 dx=0 dy=0 dh=0 dv=0 dx=0 dy=0 dh=260 dv=0
PairPos2: "'kern' Horizontal Kerning in Arabic lookup 0 subtable" uni06AB.ini dx=0 dy=0 dh=0 dv=0 dx=0 dy=0 dh=260 dv=0
PairPos2: "'kern' Horizontal Kerning in Arabic lookup 0 subtable" uniFB90 dx=0 dy=0 dh=0 dv=0 dx=0 dy=0 dh=260 dv=0
PairPos2: "'kern' Horizontal Kerning in Arabic lookup 0 subtable" uniFEDB dx=0 dy=0 dh=0 dv=0 dx=0 dy=0 dh=260 dv=0
PairPos2: "'kern' Horizontal Kerning in Arabic lookup 0 subtable" uni0671 dx=0 dy=0 dh=0 dv=0 dx=0 dy=0 dh=208 dv=0
PairPos2: "'kern' Horizontal Kerning in Arabic lookup 0 subtable" afii57410 dx=0 dy=0 dh=0 dv=0 dx=0 dy=0 dh=208 dv=0
PairPos2: "'kern' Horizontal Kerning in Arabic lookup 0 subtable" afii57415 dx=0 dy=0 dh=0 dv=0 dx=0 dy=0 dh=52 dv=0
EndChar

StartChar: period
Encoding: 46 46 17
Width: 529
GlyphClass: 2
Flags: W
LayerCount: 2
Fore
SplineSet
329 251 m 0,0,1
 329 230 329 230 320.5 209 c 128,-1,2
 312 188 312 188 297 172 c 128,-1,3
 282 156 282 156 261.5 146 c 128,-1,4
 241 136 241 136 217 136 c 0,5,6
 195 136 195 136 173.5 145 c 128,-1,7
 152 154 152 154 136 169 c 128,-1,8
 120 184 120 184 110 204.5 c 128,-1,9
 100 225 100 225 100 248 c 0,10,11
 100 273 100 273 110 294.5 c 128,-1,12
 120 316 120 316 136 332 c 128,-1,13
 152 348 152 348 173.5 357 c 128,-1,14
 195 366 195 366 217 366 c 0,15,16
 240 366 240 366 260.5 357 c 128,-1,17
 281 348 281 348 296 332.5 c 128,-1,18
 311 317 311 317 320 296 c 128,-1,19
 329 275 329 275 329 251 c 0,0,1
EndSplineSet
Substitution2: "<17016,16016> Urdu Swash lookup 75 subtable" uni06D4
Substitution2: "<17012,16012> Period to Comma in Arabic lookup 70 nested-substitutions 0 subtable" uni066C
Substitution2: "Single Substitution lookup 34 subtable" uni066C
Substitution2: "'salt' Stylistic Alternatives in Arabic lookup 28 subtable" uni06D4
PairPos2: "'kern' Horizontal Kerning in Arabic lookup 0 subtable" afii57509 dx=0 dy=0 dh=0 dv=0 dx=0 dy=0 dh=260 dv=0
PairPos2: "'kern' Horizontal Kerning in Arabic lookup 0 subtable" uni06AB dx=0 dy=0 dh=0 dv=0 dx=0 dy=0 dh=260 dv=0
PairPos2: "'kern' Horizontal Kerning in Arabic lookup 0 subtable" uni06A9 dx=0 dy=0 dh=0 dv=0 dx=0 dy=0 dh=260 dv=0
PairPos2: "'kern' Horizontal Kerning in Arabic lookup 0 subtable" uniFB94 dx=0 dy=0 dh=0 dv=0 dx=0 dy=0 dh=260 dv=0
PairPos2: "'kern' Horizontal Kerning in Arabic lookup 0 subtable" uniFBD5 dx=0 dy=0 dh=0 dv=0 dx=0 dy=0 dh=260 dv=0
PairPos2: "'kern' Horizontal Kerning in Arabic lookup 0 subtable" uni06AB.ini dx=0 dy=0 dh=0 dv=0 dx=0 dy=0 dh=260 dv=0
PairPos2: "'kern' Horizontal Kerning in Arabic lookup 0 subtable" uniFB90 dx=0 dy=0 dh=0 dv=0 dx=0 dy=0 dh=260 dv=0
PairPos2: "'kern' Horizontal Kerning in Arabic lookup 0 subtable" uniFEDB dx=0 dy=0 dh=0 dv=0 dx=0 dy=0 dh=260 dv=0
PairPos2: "'kern' Horizontal Kerning in Arabic lookup 0 subtable" uni0671 dx=0 dy=0 dh=0 dv=0 dx=0 dy=0 dh=208 dv=0
PairPos2: "'kern' Horizontal Kerning in Arabic lookup 0 subtable" afii57410 dx=0 dy=0 dh=0 dv=0 dx=0 dy=0 dh=208 dv=0
PairPos2: "'kern' Horizontal Kerning in Arabic lookup 0 subtable" afii57415 dx=0 dy=0 dh=0 dv=0 dx=0 dy=0 dh=52 dv=0
EndChar

StartChar: slash
Encoding: 47 47 18
Width: 569
GlyphClass: 2
Flags: W
LayerCount: 2
Fore
SplineSet
458 1384 m 1,0,-1
 560 1384 l 1,1,-1
 107 -34 l 1,2,-1
 3 -34 l 1,3,-1
 458 1384 l 1,0,-1
EndSplineSet
Substitution2: "<17016,16016> Urdu Swash lookup 75 subtable" slash
PairPos2: "'kern' Horizontal Kerning in Arabic lookup 0 subtable" afii57509 dx=0 dy=0 dh=0 dv=0 dx=0 dy=0 dh=260 dv=0
PairPos2: "'kern' Horizontal Kerning in Arabic lookup 0 subtable" uni06AB dx=0 dy=0 dh=0 dv=0 dx=0 dy=0 dh=260 dv=0
PairPos2: "'kern' Horizontal Kerning in Arabic lookup 0 subtable" uni06A9 dx=0 dy=0 dh=0 dv=0 dx=0 dy=0 dh=260 dv=0
PairPos2: "'kern' Horizontal Kerning in Arabic lookup 0 subtable" uniFB94 dx=0 dy=0 dh=0 dv=0 dx=0 dy=0 dh=260 dv=0
PairPos2: "'kern' Horizontal Kerning in Arabic lookup 0 subtable" uniFBD5 dx=0 dy=0 dh=0 dv=0 dx=0 dy=0 dh=260 dv=0
PairPos2: "'kern' Horizontal Kerning in Arabic lookup 0 subtable" uni06AB.ini dx=0 dy=0 dh=0 dv=0 dx=0 dy=0 dh=260 dv=0
PairPos2: "'kern' Horizontal Kerning in Arabic lookup 0 subtable" uniFB90 dx=0 dy=0 dh=0 dv=0 dx=0 dy=0 dh=260 dv=0
PairPos2: "'kern' Horizontal Kerning in Arabic lookup 0 subtable" uniFEDB dx=0 dy=0 dh=0 dv=0 dx=0 dy=0 dh=260 dv=0
PairPos2: "'kern' Horizontal Kerning in Arabic lookup 0 subtable" uni0671 dx=0 dy=0 dh=0 dv=0 dx=0 dy=0 dh=208 dv=0
PairPos2: "'kern' Horizontal Kerning in Arabic lookup 0 subtable" afii57410 dx=0 dy=0 dh=0 dv=0 dx=0 dy=0 dh=208 dv=0
PairPos2: "'kern' Horizontal Kerning in Arabic lookup 0 subtable" afii57415 dx=0 dy=0 dh=0 dv=0 dx=0 dy=0 dh=52 dv=0
EndChar

StartChar: zero
Encoding: 48 48 19
Width: 1024
GlyphClass: 2
Flags: W
LayerCount: 2
Fore
SplineSet
746 664 m 0,0,1
 746 785 746 785 737.5 882 c 128,-1,2
 729 979 729 979 713 1052 c 0,3,4
 681 1180 681 1180 623 1250 c 128,-1,5
 565 1320 565 1320 482 1320 c 0,6,7
 349 1320 349 1320 283 1150 c 128,-1,8
 217 980 217 980 217 654 c 0,9,10
 217 347 217 347 284.5 193 c 128,-1,11
 352 39 352 39 490 39 c 0,12,13
 564 39 564 39 613.5 80.5 c 128,-1,14
 663 122 663 122 692.5 201.5 c 128,-1,15
 722 281 722 281 734 397.5 c 128,-1,16
 746 514 746 514 746 664 c 0,0,1
844 1134 m 0,17,18
 945 940 945 940 945 687 c 0,19,20
 945 488 945 488 883 313 c 0,21,22
 768 -19 768 -19 478 -19 c 0,23,24
 376 -19 376 -19 291 31.5 c 128,-1,25
 206 82 206 82 145.5 173.5 c 128,-1,26
 85 265 85 265 51.5 394 c 128,-1,27
 18 523 18 523 18 679 c 0,28,29
 18 807 18 807 41 918.5 c 128,-1,30
 64 1030 64 1030 109 1122 c 0,31,32
 170 1247 170 1247 264.5 1311.5 c 128,-1,33
 359 1376 359 1376 487 1376 c 0,34,35
 717 1376 717 1376 844 1134 c 0,17,18
EndSplineSet
Substitution2: "<17016,16016> Urdu Swash lookup 75 subtable" zero
PairPos2: "'kern' Horizontal Kerning in Arabic lookup 0 subtable" afii57509 dx=0 dy=0 dh=0 dv=0 dx=0 dy=0 dh=260 dv=0
PairPos2: "'kern' Horizontal Kerning in Arabic lookup 0 subtable" uni06AB dx=0 dy=0 dh=0 dv=0 dx=0 dy=0 dh=260 dv=0
PairPos2: "'kern' Horizontal Kerning in Arabic lookup 0 subtable" uni06A9 dx=0 dy=0 dh=0 dv=0 dx=0 dy=0 dh=260 dv=0
PairPos2: "'kern' Horizontal Kerning in Arabic lookup 0 subtable" uniFB94 dx=0 dy=0 dh=0 dv=0 dx=0 dy=0 dh=260 dv=0
PairPos2: "'kern' Horizontal Kerning in Arabic lookup 0 subtable" uniFBD5 dx=0 dy=0 dh=0 dv=0 dx=0 dy=0 dh=260 dv=0
PairPos2: "'kern' Horizontal Kerning in Arabic lookup 0 subtable" uni06AB.ini dx=0 dy=0 dh=0 dv=0 dx=0 dy=0 dh=260 dv=0
PairPos2: "'kern' Horizontal Kerning in Arabic lookup 0 subtable" uniFB90 dx=0 dy=0 dh=0 dv=0 dx=0 dy=0 dh=260 dv=0
PairPos2: "'kern' Horizontal Kerning in Arabic lookup 0 subtable" uniFEDB dx=0 dy=0 dh=0 dv=0 dx=0 dy=0 dh=260 dv=0
PairPos2: "'kern' Horizontal Kerning in Arabic lookup 0 subtable" uni0671 dx=0 dy=0 dh=0 dv=0 dx=0 dy=0 dh=208 dv=0
PairPos2: "'kern' Horizontal Kerning in Arabic lookup 0 subtable" afii57410 dx=0 dy=0 dh=0 dv=0 dx=0 dy=0 dh=208 dv=0
PairPos2: "'kern' Horizontal Kerning in Arabic lookup 0 subtable" afii57415 dx=0 dy=0 dh=0 dv=0 dx=0 dy=0 dh=52 dv=0
EndChar

StartChar: one
Encoding: 49 49 20
Width: 1024
GlyphClass: 2
Flags: W
LayerCount: 2
Fore
SplineSet
612 152 m 2,0,1
 612 114 612 114 621 91 c 128,-1,2
 630 68 630 68 652 55 c 128,-1,3
 674 42 674 42 711.5 37 c 128,-1,4
 749 32 749 32 806 30 c 1,5,-1
 806 0 l 1,6,-1
 240 0 l 1,7,-1
 240 32 l 1,8,9
 302 35 302 35 340 42 c 128,-1,10
 378 49 378 49 399 65 c 128,-1,11
 420 81 420 81 427.5 108.5 c 128,-1,12
 435 136 435 136 435 181 c 2,13,-1
 435 1105 l 2,14,15
 435 1153 435 1153 423 1177.5 c 128,-1,16
 411 1202 411 1202 372 1202 c 0,17,18
 359 1202 359 1202 341 1198 c 128,-1,19
 323 1194 323 1194 303.5 1187.5 c 128,-1,20
 284 1181 284 1181 264 1173 c 128,-1,21
 244 1165 244 1165 226 1157 c 1,22,-1
 226 1186 l 1,23,-1
 594 1374 l 1,24,-1
 607 1374 l 1,25,26
 611 1369 611 1369 611.5 1366.5 c 128,-1,27
 612 1364 612 1364 612 1354 c 2,28,-1
 612 152 l 2,0,1
EndSplineSet
Substitution2: "<17016,16016> Urdu Swash lookup 75 subtable" one
PairPos2: "'kern' Horizontal Kerning in Arabic lookup 0 subtable" afii57509 dx=0 dy=0 dh=0 dv=0 dx=0 dy=0 dh=260 dv=0
PairPos2: "'kern' Horizontal Kerning in Arabic lookup 0 subtable" uni06AB dx=0 dy=0 dh=0 dv=0 dx=0 dy=0 dh=260 dv=0
PairPos2: "'kern' Horizontal Kerning in Arabic lookup 0 subtable" uni06A9 dx=0 dy=0 dh=0 dv=0 dx=0 dy=0 dh=260 dv=0
PairPos2: "'kern' Horizontal Kerning in Arabic lookup 0 subtable" uniFB94 dx=0 dy=0 dh=0 dv=0 dx=0 dy=0 dh=260 dv=0
PairPos2: "'kern' Horizontal Kerning in Arabic lookup 0 subtable" uniFBD5 dx=0 dy=0 dh=0 dv=0 dx=0 dy=0 dh=260 dv=0
PairPos2: "'kern' Horizontal Kerning in Arabic lookup 0 subtable" uni06AB.ini dx=0 dy=0 dh=0 dv=0 dx=0 dy=0 dh=260 dv=0
PairPos2: "'kern' Horizontal Kerning in Arabic lookup 0 subtable" uniFB90 dx=0 dy=0 dh=0 dv=0 dx=0 dy=0 dh=260 dv=0
PairPos2: "'kern' Horizontal Kerning in Arabic lookup 0 subtable" uniFEDB dx=0 dy=0 dh=0 dv=0 dx=0 dy=0 dh=260 dv=0
PairPos2: "'kern' Horizontal Kerning in Arabic lookup 0 subtable" uni0671 dx=0 dy=0 dh=0 dv=0 dx=0 dy=0 dh=208 dv=0
PairPos2: "'kern' Horizontal Kerning in Arabic lookup 0 subtable" afii57410 dx=0 dy=0 dh=0 dv=0 dx=0 dy=0 dh=208 dv=0
PairPos2: "'kern' Horizontal Kerning in Arabic lookup 0 subtable" afii57415 dx=0 dy=0 dh=0 dv=0 dx=0 dy=0 dh=52 dv=0
EndChar

StartChar: two
Encoding: 50 50 21
Width: 1024
GlyphClass: 2
Flags: W
LayerCount: 2
Fore
SplineSet
61 25 m 1,0,1
 244 216 244 216 367.5 354 c 128,-1,2
 491 492 491 492 557 582 c 0,3,4
 688 761 688 761 688 928 c 0,5,6
 688 1002 688 1002 666 1058.5 c 128,-1,7
 644 1115 644 1115 606.5 1153 c 128,-1,8
 569 1191 569 1191 520 1210 c 128,-1,9
 471 1229 471 1229 418 1229 c 0,10,11
 351 1229 351 1229 295.5 1203.5 c 128,-1,12
 240 1178 240 1178 197 1129 c 0,13,14
 174 1102 174 1102 152 1059.5 c 128,-1,15
 130 1017 130 1017 108 961 c 1,16,-1
 63 970 l 1,17,18
 113 1201 113 1201 231 1290 c 0,19,20
 351 1380 351 1380 489 1380 c 0,21,22
 574 1380 574 1380 644 1351 c 128,-1,23
 714 1322 714 1322 763.5 1272 c 128,-1,24
 813 1222 813 1222 840.5 1155.5 c 128,-1,25
 868 1089 868 1089 868 1013 c 0,26,27
 868 848 868 848 755 696 c 0,28,29
 698 620 698 620 576.5 486 c 128,-1,30
 455 352 455 352 266 158 c 1,31,-1
 722 158 l 2,32,33
 817 158 817 158 857 181 c 0,34,35
 894 203 894 203 944 293 c 1,36,-1
 971 280 l 1,37,-1
 861 0 l 1,38,-1
 61 0 l 1,39,-1
 61 25 l 1,0,1
EndSplineSet
Substitution2: "<17016,16016> Urdu Swash lookup 75 subtable" two
PairPos2: "'kern' Horizontal Kerning in Arabic lookup 0 subtable" afii57509 dx=0 dy=0 dh=0 dv=0 dx=0 dy=0 dh=260 dv=0
PairPos2: "'kern' Horizontal Kerning in Arabic lookup 0 subtable" uni06AB dx=0 dy=0 dh=0 dv=0 dx=0 dy=0 dh=260 dv=0
PairPos2: "'kern' Horizontal Kerning in Arabic lookup 0 subtable" uni06A9 dx=0 dy=0 dh=0 dv=0 dx=0 dy=0 dh=260 dv=0
PairPos2: "'kern' Horizontal Kerning in Arabic lookup 0 subtable" uniFB94 dx=0 dy=0 dh=0 dv=0 dx=0 dy=0 dh=260 dv=0
PairPos2: "'kern' Horizontal Kerning in Arabic lookup 0 subtable" uniFBD5 dx=0 dy=0 dh=0 dv=0 dx=0 dy=0 dh=260 dv=0
PairPos2: "'kern' Horizontal Kerning in Arabic lookup 0 subtable" uni06AB.ini dx=0 dy=0 dh=0 dv=0 dx=0 dy=0 dh=260 dv=0
PairPos2: "'kern' Horizontal Kerning in Arabic lookup 0 subtable" uniFB90 dx=0 dy=0 dh=0 dv=0 dx=0 dy=0 dh=260 dv=0
PairPos2: "'kern' Horizontal Kerning in Arabic lookup 0 subtable" uniFEDB dx=0 dy=0 dh=0 dv=0 dx=0 dy=0 dh=260 dv=0
PairPos2: "'kern' Horizontal Kerning in Arabic lookup 0 subtable" uni0671 dx=0 dy=0 dh=0 dv=0 dx=0 dy=0 dh=208 dv=0
PairPos2: "'kern' Horizontal Kerning in Arabic lookup 0 subtable" afii57410 dx=0 dy=0 dh=0 dv=0 dx=0 dy=0 dh=208 dv=0
PairPos2: "'kern' Horizontal Kerning in Arabic lookup 0 subtable" afii57415 dx=0 dy=0 dh=0 dv=0 dx=0 dy=0 dh=52 dv=0
EndChar

StartChar: three
Encoding: 51 51 22
Width: 1024
GlyphClass: 2
Flags: W
LayerCount: 2
Fore
SplineSet
458 62 m 0,0,1
 527 62 527 62 579 86 c 128,-1,2
 631 110 631 110 665 156 c 0,3,4
 698 202 698 202 715 255 c 128,-1,5
 732 308 732 308 733 360 c 0,6,7
 733 435 733 435 707.5 495 c 128,-1,8
 682 555 682 555 634.5 597 c 128,-1,9
 587 639 587 639 519 661.5 c 128,-1,10
 451 684 451 684 365 684 c 0,11,12
 351 684 351 684 339 683.5 c 128,-1,13
 327 683 327 683 311 681 c 1,14,-1
 309 709 l 1,15,16
 471 768 471 768 561 842 c 0,17,18
 653 917 653 917 653 1039 c 0,19,20
 653 1093 653 1093 633 1134 c 128,-1,21
 613 1175 613 1175 579.5 1203 c 128,-1,22
 546 1231 546 1231 503.5 1245.5 c 128,-1,23
 461 1260 461 1260 416 1260 c 0,24,25
 329 1260 329 1260 259 1210 c 128,-1,26
 189 1160 189 1160 124 1044 c 1,27,-1
 92 1051 l 1,28,29
 112 1127 112 1127 150 1188.5 c 128,-1,30
 188 1250 188 1250 240 1294 c 128,-1,31
 292 1338 292 1338 356.5 1362 c 128,-1,32
 421 1386 421 1386 493 1386 c 0,33,34
 571 1386 571 1386 631 1362.5 c 128,-1,35
 691 1339 691 1339 731.5 1300.5 c 128,-1,36
 772 1262 772 1262 793 1211.5 c 128,-1,37
 814 1161 814 1161 814 1107 c 0,38,39
 814 1067 814 1067 803.5 1031.5 c 128,-1,40
 793 996 793 996 770.5 962.5 c 128,-1,41
 748 929 748 929 712.5 895.5 c 128,-1,42
 677 862 677 862 626 827 c 1,43,44
 723 784 723 784 778 732 c 0,45,46
 886 627 886 627 886 465 c 0,47,48
 886 373 886 373 846.5 287 c 128,-1,49
 807 201 807 201 737 130 c 1,50,51
 662 61 662 61 554.5 23 c 128,-1,52
 447 -15 447 -15 311 -15 c 0,53,54
 248 -15 248 -15 205 -4.5 c 128,-1,55
 162 6 162 6 136.5 22.5 c 128,-1,56
 111 39 111 39 100 59.5 c 128,-1,57
 89 80 89 80 89 101 c 0,58,59
 89 114 89 114 93 127.5 c 128,-1,60
 97 141 97 141 105.5 151.5 c 128,-1,61
 114 162 114 162 127.5 169 c 128,-1,62
 141 176 141 176 159 176 c 0,63,64
 188 176 188 176 224 161.5 c 128,-1,65
 260 147 260 147 305 119 c 0,66,67
 350 92 350 92 389 77 c 128,-1,68
 428 62 428 62 458 62 c 0,0,1
EndSplineSet
Substitution2: "<17016,16016> Urdu Swash lookup 75 subtable" three
PairPos2: "'kern' Horizontal Kerning in Arabic lookup 0 subtable" afii57509 dx=0 dy=0 dh=0 dv=0 dx=0 dy=0 dh=260 dv=0
PairPos2: "'kern' Horizontal Kerning in Arabic lookup 0 subtable" uni06AB dx=0 dy=0 dh=0 dv=0 dx=0 dy=0 dh=260 dv=0
PairPos2: "'kern' Horizontal Kerning in Arabic lookup 0 subtable" uni06A9 dx=0 dy=0 dh=0 dv=0 dx=0 dy=0 dh=260 dv=0
PairPos2: "'kern' Horizontal Kerning in Arabic lookup 0 subtable" uniFB94 dx=0 dy=0 dh=0 dv=0 dx=0 dy=0 dh=260 dv=0
PairPos2: "'kern' Horizontal Kerning in Arabic lookup 0 subtable" uniFBD5 dx=0 dy=0 dh=0 dv=0 dx=0 dy=0 dh=260 dv=0
PairPos2: "'kern' Horizontal Kerning in Arabic lookup 0 subtable" uni06AB.ini dx=0 dy=0 dh=0 dv=0 dx=0 dy=0 dh=260 dv=0
PairPos2: "'kern' Horizontal Kerning in Arabic lookup 0 subtable" uniFB90 dx=0 dy=0 dh=0 dv=0 dx=0 dy=0 dh=260 dv=0
PairPos2: "'kern' Horizontal Kerning in Arabic lookup 0 subtable" uniFEDB dx=0 dy=0 dh=0 dv=0 dx=0 dy=0 dh=260 dv=0
PairPos2: "'kern' Horizontal Kerning in Arabic lookup 0 subtable" uni0671 dx=0 dy=0 dh=0 dv=0 dx=0 dy=0 dh=208 dv=0
PairPos2: "'kern' Horizontal Kerning in Arabic lookup 0 subtable" afii57410 dx=0 dy=0 dh=0 dv=0 dx=0 dy=0 dh=208 dv=0
PairPos2: "'kern' Horizontal Kerning in Arabic lookup 0 subtable" afii57415 dx=0 dy=0 dh=0 dv=0 dx=0 dy=0 dh=52 dv=0
EndChar

StartChar: four
Encoding: 52 52 23
Width: 1024
GlyphClass: 2
Flags: W
LayerCount: 2
Fore
SplineSet
596 1163 m 1,0,1
 474 990 474 990 352 819.5 c 128,-1,2
 230 649 230 649 109 475 c 1,3,-1
 596 475 l 1,4,-1
 596 1163 l 1,0,1
662 1374 m 1,5,-1
 759 1374 l 1,6,-1
 759 475 l 1,7,-1
 967 475 l 1,8,-1
 967 341 l 1,9,-1
 759 341 l 1,10,-1
 759 0 l 1,11,-1
 598 0 l 1,12,-1
 598 341 l 1,13,-1
 23 341 l 1,14,-1
 23 475 l 1,15,-1
 662 1374 l 1,5,-1
EndSplineSet
Substitution2: "<17016,16016> Urdu Swash lookup 75 subtable" four
PairPos2: "'kern' Horizontal Kerning in Arabic lookup 0 subtable" afii57509 dx=0 dy=0 dh=0 dv=0 dx=0 dy=0 dh=260 dv=0
PairPos2: "'kern' Horizontal Kerning in Arabic lookup 0 subtable" uni06AB dx=0 dy=0 dh=0 dv=0 dx=0 dy=0 dh=260 dv=0
PairPos2: "'kern' Horizontal Kerning in Arabic lookup 0 subtable" uni06A9 dx=0 dy=0 dh=0 dv=0 dx=0 dy=0 dh=260 dv=0
PairPos2: "'kern' Horizontal Kerning in Arabic lookup 0 subtable" uniFB94 dx=0 dy=0 dh=0 dv=0 dx=0 dy=0 dh=260 dv=0
PairPos2: "'kern' Horizontal Kerning in Arabic lookup 0 subtable" uniFBD5 dx=0 dy=0 dh=0 dv=0 dx=0 dy=0 dh=260 dv=0
PairPos2: "'kern' Horizontal Kerning in Arabic lookup 0 subtable" uni06AB.ini dx=0 dy=0 dh=0 dv=0 dx=0 dy=0 dh=260 dv=0
PairPos2: "'kern' Horizontal Kerning in Arabic lookup 0 subtable" uniFB90 dx=0 dy=0 dh=0 dv=0 dx=0 dy=0 dh=260 dv=0
PairPos2: "'kern' Horizontal Kerning in Arabic lookup 0 subtable" uniFEDB dx=0 dy=0 dh=0 dv=0 dx=0 dy=0 dh=260 dv=0
PairPos2: "'kern' Horizontal Kerning in Arabic lookup 0 subtable" uni0671 dx=0 dy=0 dh=0 dv=0 dx=0 dy=0 dh=208 dv=0
PairPos2: "'kern' Horizontal Kerning in Arabic lookup 0 subtable" afii57410 dx=0 dy=0 dh=0 dv=0 dx=0 dy=0 dh=208 dv=0
PairPos2: "'kern' Horizontal Kerning in Arabic lookup 0 subtable" afii57415 dx=0 dy=0 dh=0 dv=0 dx=0 dy=0 dh=52 dv=0
EndChar

StartChar: five
Encoding: 53 53 24
Width: 1024
GlyphClass: 2
Flags: W
LayerCount: 2
Fore
SplineSet
445 56 m 0,0,1
 502 56 502 56 554 83.5 c 128,-1,2
 606 111 606 111 645.5 158.5 c 128,-1,3
 685 206 685 206 708 269.5 c 128,-1,4
 731 333 731 333 731 405 c 0,5,6
 731 533 731 533 660.5 626.5 c 128,-1,7
 590 720 590 720 456 777 c 0,8,9
 381 807 381 807 308.5 823.5 c 128,-1,10
 236 840 236 840 171 840 c 0,11,12
 149 840 149 840 143 841.5 c 128,-1,13
 137 843 137 843 129 852 c 1,14,15
 131 859 131 859 132.5 865.5 c 128,-1,16
 134 872 134 872 136 877 c 2,17,-1
 354 1355 l 1,18,-1
 784 1355 l 2,19,20
 800 1355 800 1355 811 1357 c 128,-1,21
 822 1359 822 1359 832 1365 c 128,-1,22
 842 1371 842 1371 852.5 1381.5 c 128,-1,23
 863 1392 863 1392 878 1408 c 1,24,-1
 895 1393 l 1,25,-1
 818 1207 l 2,26,27
 814 1198 814 1198 795 1195 c 128,-1,28
 776 1192 776 1192 756 1192 c 2,29,-1
 370 1192 l 1,30,31
 350 1149 350 1149 327.5 1105.5 c 128,-1,32
 305 1062 305 1062 285 1020 c 1,33,34
 366 1006 366 1006 426 993 c 128,-1,35
 486 980 486 980 524 967 c 0,36,37
 587 946 587 946 639.5 915.5 c 128,-1,38
 692 885 692 885 734 843 c 0,39,40
 806 771 806 771 842.5 683 c 128,-1,41
 879 595 879 595 879 495 c 0,42,43
 879 274 879 274 722 126 c 256,44,45
 565 -22 565 -22 323 -22 c 0,46,47
 198 -22 198 -22 131.5 10.5 c 128,-1,48
 65 43 65 43 65 109 c 0,49,50
 65 140 65 140 86.5 162.5 c 128,-1,51
 108 185 108 185 153 185 c 0,52,53
 211 185 211 185 303 120 c 0,54,55
 395 56 395 56 445 56 c 0,0,1
EndSplineSet
Substitution2: "<17016,16016> Urdu Swash lookup 75 subtable" five
PairPos2: "'kern' Horizontal Kerning in Arabic lookup 0 subtable" afii57509 dx=0 dy=0 dh=0 dv=0 dx=0 dy=0 dh=260 dv=0
PairPos2: "'kern' Horizontal Kerning in Arabic lookup 0 subtable" uni06AB dx=0 dy=0 dh=0 dv=0 dx=0 dy=0 dh=260 dv=0
PairPos2: "'kern' Horizontal Kerning in Arabic lookup 0 subtable" uni06A9 dx=0 dy=0 dh=0 dv=0 dx=0 dy=0 dh=260 dv=0
PairPos2: "'kern' Horizontal Kerning in Arabic lookup 0 subtable" uniFB94 dx=0 dy=0 dh=0 dv=0 dx=0 dy=0 dh=260 dv=0
PairPos2: "'kern' Horizontal Kerning in Arabic lookup 0 subtable" uniFBD5 dx=0 dy=0 dh=0 dv=0 dx=0 dy=0 dh=260 dv=0
PairPos2: "'kern' Horizontal Kerning in Arabic lookup 0 subtable" uni06AB.ini dx=0 dy=0 dh=0 dv=0 dx=0 dy=0 dh=260 dv=0
PairPos2: "'kern' Horizontal Kerning in Arabic lookup 0 subtable" uniFB90 dx=0 dy=0 dh=0 dv=0 dx=0 dy=0 dh=260 dv=0
PairPos2: "'kern' Horizontal Kerning in Arabic lookup 0 subtable" uniFEDB dx=0 dy=0 dh=0 dv=0 dx=0 dy=0 dh=260 dv=0
PairPos2: "'kern' Horizontal Kerning in Arabic lookup 0 subtable" uni0671 dx=0 dy=0 dh=0 dv=0 dx=0 dy=0 dh=208 dv=0
PairPos2: "'kern' Horizontal Kerning in Arabic lookup 0 subtable" afii57410 dx=0 dy=0 dh=0 dv=0 dx=0 dy=0 dh=208 dv=0
PairPos2: "'kern' Horizontal Kerning in Arabic lookup 0 subtable" afii57415 dx=0 dy=0 dh=0 dv=0 dx=0 dy=0 dh=52 dv=0
EndChar

StartChar: six
Encoding: 54 54 25
Width: 1024
GlyphClass: 2
Flags: W
LayerCount: 2
Fore
SplineSet
732 614 m 0,0,1
 662 785 662 785 495 785 c 0,2,3
 420 785 420 785 368 761 c 128,-1,4
 316 737 316 737 290 694 c 0,5,6
 276 667 276 667 268 621.5 c 128,-1,7
 260 576 260 576 260 514 c 0,8,9
 260 434 260 434 278 353 c 128,-1,10
 296 272 296 272 329 196 c 0,11,12
 364 122 364 122 419.5 81.5 c 128,-1,13
 475 41 475 41 548 41 c 0,14,15
 608 41 608 41 651 70 c 128,-1,16
 694 99 694 99 721.5 146 c 128,-1,17
 749 193 749 193 761.5 253.5 c 128,-1,18
 774 314 774 314 774 378 c 0,19,20
 774 511 774 511 732 614 c 0,0,1
535 -22 m 0,21,22
 359 -22 359 -22 213 143 c 0,23,24
 141 226 141 226 106.5 335.5 c 128,-1,25
 72 445 72 445 70 582 c 0,26,27
 70 937 70 937 349 1188 c 1,28,29
 600 1400 600 1400 912 1400 c 1,30,-1
 917 1365 l 1,31,32
 793 1342 793 1342 702.5 1302.5 c 128,-1,33
 612 1263 612 1263 541 1192 c 0,34,35
 505 1157 505 1157 470.5 1110.5 c 128,-1,36
 436 1064 436 1064 404 1010 c 0,37,38
 373 956 373 956 351 901 c 128,-1,39
 329 846 329 846 316 794 c 1,40,41
 390 840 390 840 453 860 c 128,-1,42
 516 880 516 880 583 880 c 0,43,44
 662 880 662 880 730.5 852.5 c 128,-1,45
 799 825 799 825 849.5 771 c 128,-1,46
 900 717 900 717 929 638 c 128,-1,47
 958 559 958 559 958 455 c 0,48,49
 958 272 958 272 841 125 c 256,50,51
 724 -22 724 -22 535 -22 c 0,21,22
EndSplineSet
Substitution2: "<17016,16016> Urdu Swash lookup 75 subtable" six
PairPos2: "'kern' Horizontal Kerning in Arabic lookup 0 subtable" afii57509 dx=0 dy=0 dh=0 dv=0 dx=0 dy=0 dh=260 dv=0
PairPos2: "'kern' Horizontal Kerning in Arabic lookup 0 subtable" uni06AB dx=0 dy=0 dh=0 dv=0 dx=0 dy=0 dh=260 dv=0
PairPos2: "'kern' Horizontal Kerning in Arabic lookup 0 subtable" uni06A9 dx=0 dy=0 dh=0 dv=0 dx=0 dy=0 dh=260 dv=0
PairPos2: "'kern' Horizontal Kerning in Arabic lookup 0 subtable" uniFB94 dx=0 dy=0 dh=0 dv=0 dx=0 dy=0 dh=260 dv=0
PairPos2: "'kern' Horizontal Kerning in Arabic lookup 0 subtable" uniFBD5 dx=0 dy=0 dh=0 dv=0 dx=0 dy=0 dh=260 dv=0
PairPos2: "'kern' Horizontal Kerning in Arabic lookup 0 subtable" uni06AB.ini dx=0 dy=0 dh=0 dv=0 dx=0 dy=0 dh=260 dv=0
PairPos2: "'kern' Horizontal Kerning in Arabic lookup 0 subtable" uniFB90 dx=0 dy=0 dh=0 dv=0 dx=0 dy=0 dh=260 dv=0
PairPos2: "'kern' Horizontal Kerning in Arabic lookup 0 subtable" uniFEDB dx=0 dy=0 dh=0 dv=0 dx=0 dy=0 dh=260 dv=0
PairPos2: "'kern' Horizontal Kerning in Arabic lookup 0 subtable" uni0671 dx=0 dy=0 dh=0 dv=0 dx=0 dy=0 dh=208 dv=0
PairPos2: "'kern' Horizontal Kerning in Arabic lookup 0 subtable" afii57410 dx=0 dy=0 dh=0 dv=0 dx=0 dy=0 dh=208 dv=0
PairPos2: "'kern' Horizontal Kerning in Arabic lookup 0 subtable" afii57415 dx=0 dy=0 dh=0 dv=0 dx=0 dy=0 dh=52 dv=0
EndChar

StartChar: seven
Encoding: 55 55 26
Width: 1024
GlyphClass: 2
Flags: W
LayerCount: 2
Fore
SplineSet
919 1355 m 1,0,-1
 919 1321 l 1,1,-1
 486 -19 l 1,2,-1
 352 -19 l 1,3,-1
 757 1202 l 1,4,-1
 322 1202 l 2,5,6
 273 1202 273 1202 240.5 1195 c 128,-1,7
 208 1188 208 1188 182.5 1170 c 128,-1,8
 157 1152 157 1152 133.5 1120 c 128,-1,9
 110 1088 110 1088 77 1037 c 1,10,-1
 40 1054 l 1,11,12
 46 1068 46 1068 55.5 1091.5 c 128,-1,13
 65 1115 65 1115 76 1143 c 128,-1,14
 87 1171 87 1171 99 1200 c 128,-1,15
 111 1229 111 1229 121 1254.5 c 128,-1,16
 131 1280 131 1280 138.5 1299 c 128,-1,17
 146 1318 146 1318 149 1325 c 256,18,19
 152 1332 152 1332 154.5 1339.5 c 128,-1,20
 157 1347 157 1347 160 1355 c 1,21,-1
 919 1355 l 1,0,-1
EndSplineSet
Substitution2: "<17016,16016> Urdu Swash lookup 75 subtable" seven
PairPos2: "'kern' Horizontal Kerning in Arabic lookup 0 subtable" afii57509 dx=0 dy=0 dh=0 dv=0 dx=0 dy=0 dh=260 dv=0
PairPos2: "'kern' Horizontal Kerning in Arabic lookup 0 subtable" uni06AB dx=0 dy=0 dh=0 dv=0 dx=0 dy=0 dh=260 dv=0
PairPos2: "'kern' Horizontal Kerning in Arabic lookup 0 subtable" uni06A9 dx=0 dy=0 dh=0 dv=0 dx=0 dy=0 dh=260 dv=0
PairPos2: "'kern' Horizontal Kerning in Arabic lookup 0 subtable" uniFB94 dx=0 dy=0 dh=0 dv=0 dx=0 dy=0 dh=260 dv=0
PairPos2: "'kern' Horizontal Kerning in Arabic lookup 0 subtable" uniFBD5 dx=0 dy=0 dh=0 dv=0 dx=0 dy=0 dh=260 dv=0
PairPos2: "'kern' Horizontal Kerning in Arabic lookup 0 subtable" uni06AB.ini dx=0 dy=0 dh=0 dv=0 dx=0 dy=0 dh=260 dv=0
PairPos2: "'kern' Horizontal Kerning in Arabic lookup 0 subtable" uniFB90 dx=0 dy=0 dh=0 dv=0 dx=0 dy=0 dh=260 dv=0
PairPos2: "'kern' Horizontal Kerning in Arabic lookup 0 subtable" uniFEDB dx=0 dy=0 dh=0 dv=0 dx=0 dy=0 dh=260 dv=0
PairPos2: "'kern' Horizontal Kerning in Arabic lookup 0 subtable" uni0671 dx=0 dy=0 dh=0 dv=0 dx=0 dy=0 dh=208 dv=0
PairPos2: "'kern' Horizontal Kerning in Arabic lookup 0 subtable" afii57410 dx=0 dy=0 dh=0 dv=0 dx=0 dy=0 dh=208 dv=0
PairPos2: "'kern' Horizontal Kerning in Arabic lookup 0 subtable" afii57415 dx=0 dy=0 dh=0 dv=0 dx=0 dy=0 dh=52 dv=0
EndChar

StartChar: eight
Encoding: 56 56 27
Width: 1024
GlyphClass: 2
Flags: W
LayerCount: 2
Fore
SplineSet
657 910 m 0,0,1
 719 987 719 987 719 1094 c 0,2,3
 719 1140 719 1140 704.5 1181.5 c 128,-1,4
 690 1223 690 1223 660.5 1254 c 128,-1,5
 631 1285 631 1285 587 1303 c 128,-1,6
 543 1321 543 1321 484 1321 c 0,7,8
 439 1321 439 1321 400.5 1305.5 c 128,-1,9
 362 1290 362 1290 333.5 1263 c 128,-1,10
 305 1236 305 1236 289 1200 c 128,-1,11
 273 1164 273 1164 273 1123 c 0,12,13
 273 1077 273 1077 292 1033.5 c 128,-1,14
 311 990 311 990 344.5 949.5 c 128,-1,15
 378 909 378 909 425 872 c 128,-1,16
 472 835 472 835 528 800 c 1,17,18
 620 864 620 864 657 910 c 0,0,1
747 259 m 0,19,20
 747 366 747 366 684 433 c 0,21,22
 654 466 654 466 588.5 518.5 c 128,-1,23
 523 571 523 571 429 637 c 1,24,25
 385 609 385 609 354 572 c 128,-1,26
 323 535 323 535 303.5 495 c 128,-1,27
 284 455 284 455 275 413.5 c 128,-1,28
 266 372 266 372 266 334 c 0,29,30
 266 267 266 267 284.5 212 c 128,-1,31
 303 157 303 157 336.5 118 c 128,-1,32
 370 79 370 79 415.5 57.5 c 128,-1,33
 461 36 461 36 515 36 c 0,34,35
 573 36 573 36 616.5 53.5 c 128,-1,36
 660 71 660 71 689 101 c 128,-1,37
 718 131 718 131 732.5 172 c 128,-1,38
 747 213 747 213 747 259 c 0,19,20
193 850 m 0,39,40
 120 947 120 947 120 1063 c 0,41,42
 120 1129 120 1129 148.5 1186.5 c 128,-1,43
 177 1244 177 1244 229 1287 c 128,-1,44
 281 1330 281 1330 353.5 1354.5 c 128,-1,45
 426 1379 426 1379 514 1379 c 0,46,47
 594 1379 594 1379 659 1355.5 c 128,-1,48
 724 1332 724 1332 769.5 1292 c 128,-1,49
 815 1252 815 1252 840 1199.5 c 128,-1,50
 865 1147 865 1147 865 1089 c 0,51,52
 865 971 865 971 769 879 c 0,53,54
 742 853 742 853 697 823 c 128,-1,55
 652 793 652 793 589 758 c 1,56,57
 673 695 673 695 734 640.5 c 128,-1,58
 795 586 795 586 831 539 c 0,59,60
 904 445 904 445 904 319 c 0,61,62
 904 246 904 246 875.5 184 c 128,-1,63
 847 122 847 122 794.5 76 c 128,-1,64
 742 30 742 30 668.5 4 c 128,-1,65
 595 -22 595 -22 505 -22 c 0,66,67
 425 -22 425 -22 353 1 c 128,-1,68
 281 24 281 24 227 67 c 128,-1,69
 173 110 173 110 141 171 c 128,-1,70
 109 232 109 232 109 308 c 0,71,72
 109 434 109 434 189 532 c 0,73,74
 215 564 215 564 262 601 c 128,-1,75
 309 638 309 638 372 682 c 1,76,77
 241 789 241 789 193 850 c 0,39,40
EndSplineSet
Substitution2: "<17016,16016> Urdu Swash lookup 75 subtable" eight
PairPos2: "'kern' Horizontal Kerning in Arabic lookup 0 subtable" afii57509 dx=0 dy=0 dh=0 dv=0 dx=0 dy=0 dh=260 dv=0
PairPos2: "'kern' Horizontal Kerning in Arabic lookup 0 subtable" uni06AB dx=0 dy=0 dh=0 dv=0 dx=0 dy=0 dh=260 dv=0
PairPos2: "'kern' Horizontal Kerning in Arabic lookup 0 subtable" uni06A9 dx=0 dy=0 dh=0 dv=0 dx=0 dy=0 dh=260 dv=0
PairPos2: "'kern' Horizontal Kerning in Arabic lookup 0 subtable" uniFB94 dx=0 dy=0 dh=0 dv=0 dx=0 dy=0 dh=260 dv=0
PairPos2: "'kern' Horizontal Kerning in Arabic lookup 0 subtable" uniFBD5 dx=0 dy=0 dh=0 dv=0 dx=0 dy=0 dh=260 dv=0
PairPos2: "'kern' Horizontal Kerning in Arabic lookup 0 subtable" uni06AB.ini dx=0 dy=0 dh=0 dv=0 dx=0 dy=0 dh=260 dv=0
PairPos2: "'kern' Horizontal Kerning in Arabic lookup 0 subtable" uniFB90 dx=0 dy=0 dh=0 dv=0 dx=0 dy=0 dh=260 dv=0
PairPos2: "'kern' Horizontal Kerning in Arabic lookup 0 subtable" uniFEDB dx=0 dy=0 dh=0 dv=0 dx=0 dy=0 dh=260 dv=0
PairPos2: "'kern' Horizontal Kerning in Arabic lookup 0 subtable" uni0671 dx=0 dy=0 dh=0 dv=0 dx=0 dy=0 dh=208 dv=0
PairPos2: "'kern' Horizontal Kerning in Arabic lookup 0 subtable" afii57410 dx=0 dy=0 dh=0 dv=0 dx=0 dy=0 dh=208 dv=0
PairPos2: "'kern' Horizontal Kerning in Arabic lookup 0 subtable" afii57415 dx=0 dy=0 dh=0 dv=0 dx=0 dy=0 dh=52 dv=0
EndChar

StartChar: nine
Encoding: 57 57 28
Width: 1024
GlyphClass: 2
Flags: W
LayerCount: 2
Fore
SplineSet
733 675 m 0,0,1
 735 679 735 679 736.5 700.5 c 128,-1,2
 738 722 738 722 739.5 750 c 128,-1,3
 741 778 741 778 742 807 c 128,-1,4
 743 836 743 836 743 854 c 0,5,6
 743 956 743 956 725.5 1041.5 c 128,-1,7
 708 1127 708 1127 673.5 1189 c 128,-1,8
 639 1251 639 1251 588 1285.5 c 128,-1,9
 537 1320 537 1320 469 1320 c 0,10,11
 420 1320 420 1320 380 1298 c 128,-1,12
 340 1276 340 1276 311.5 1231.5 c 128,-1,13
 283 1187 283 1187 267 1121 c 128,-1,14
 251 1055 251 1055 251 967 c 0,15,16
 251 823 251 823 307 697 c 0,17,18
 363 574 363 574 511 574 c 0,19,20
 543 574 543 574 580 585 c 128,-1,21
 617 596 617 596 649 612 c 128,-1,22
 681 628 681 628 704.5 645.5 c 128,-1,23
 728 663 728 663 733 675 c 0,0,1
943 812 m 0,24,25
 943 661 943 661 886 503 c 0,26,27
 857 423 857 423 816 354 c 128,-1,28
 775 285 775 285 721 223 c 0,29,30
 658 152 658 152 576.5 99.5 c 128,-1,31
 495 47 495 47 398 12 c 0,32,33
 344 -8 344 -8 274 -22.5 c 128,-1,34
 204 -37 204 -37 123 -48 c 1,35,-1
 113 -6 l 1,36,37
 164 7 164 7 208.5 19.5 c 128,-1,38
 253 32 253 32 286 45 c 0,39,40
 346 69 346 69 396.5 99.5 c 128,-1,41
 447 130 447 130 484 165 c 0,42,43
 537 215 537 215 580 272 c 128,-1,44
 623 329 623 329 653 388 c 0,45,46
 685 449 685 449 704.5 501 c 128,-1,47
 724 553 724 553 732 595 c 1,48,49
 724 590 724 590 716 582.5 c 128,-1,50
 708 575 708 575 700 570 c 0,51,52
 673 550 673 550 640 533.5 c 128,-1,53
 607 517 607 517 571 505.5 c 128,-1,54
 535 494 535 494 498.5 487.5 c 128,-1,55
 462 481 462 481 430 481 c 0,56,57
 260 481 260 481 159 601 c 0,58,59
 109 661 109 661 85.5 733.5 c 128,-1,60
 62 806 62 806 61 890 c 0,61,62
 61 997 61 997 92 1086.5 c 128,-1,63
 123 1176 123 1176 179 1241 c 128,-1,64
 235 1306 235 1306 312.5 1342.5 c 128,-1,65
 390 1379 390 1379 483 1379 c 0,66,67
 704 1379 704 1379 824 1203 c 0,68,69
 943 1027 943 1027 943 812 c 0,24,25
EndSplineSet
Substitution2: "<17016,16016> Urdu Swash lookup 75 subtable" nine
PairPos2: "'kern' Horizontal Kerning in Arabic lookup 0 subtable" afii57509 dx=0 dy=0 dh=0 dv=0 dx=0 dy=0 dh=260 dv=0
PairPos2: "'kern' Horizontal Kerning in Arabic lookup 0 subtable" uni06AB dx=0 dy=0 dh=0 dv=0 dx=0 dy=0 dh=260 dv=0
PairPos2: "'kern' Horizontal Kerning in Arabic lookup 0 subtable" uni06A9 dx=0 dy=0 dh=0 dv=0 dx=0 dy=0 dh=260 dv=0
PairPos2: "'kern' Horizontal Kerning in Arabic lookup 0 subtable" uniFB94 dx=0 dy=0 dh=0 dv=0 dx=0 dy=0 dh=260 dv=0
PairPos2: "'kern' Horizontal Kerning in Arabic lookup 0 subtable" uniFBD5 dx=0 dy=0 dh=0 dv=0 dx=0 dy=0 dh=260 dv=0
PairPos2: "'kern' Horizontal Kerning in Arabic lookup 0 subtable" uni06AB.ini dx=0 dy=0 dh=0 dv=0 dx=0 dy=0 dh=260 dv=0
PairPos2: "'kern' Horizontal Kerning in Arabic lookup 0 subtable" uniFB90 dx=0 dy=0 dh=0 dv=0 dx=0 dy=0 dh=260 dv=0
PairPos2: "'kern' Horizontal Kerning in Arabic lookup 0 subtable" uniFEDB dx=0 dy=0 dh=0 dv=0 dx=0 dy=0 dh=260 dv=0
PairPos2: "'kern' Horizontal Kerning in Arabic lookup 0 subtable" uni0671 dx=0 dy=0 dh=0 dv=0 dx=0 dy=0 dh=208 dv=0
PairPos2: "'kern' Horizontal Kerning in Arabic lookup 0 subtable" afii57410 dx=0 dy=0 dh=0 dv=0 dx=0 dy=0 dh=208 dv=0
PairPos2: "'kern' Horizontal Kerning in Arabic lookup 0 subtable" afii57415 dx=0 dy=0 dh=0 dv=0 dx=0 dy=0 dh=52 dv=0
EndChar

StartChar: colon
Encoding: 58 58 29
Width: 534
GlyphClass: 2
Flags: W
LayerCount: 2
Fore
SplineSet
334 767 m 0,0,1
 334 743 334 743 325 722 c 128,-1,2
 316 701 316 701 300.5 685 c 128,-1,3
 285 669 285 669 264.5 659.5 c 128,-1,4
 244 650 244 650 221 650 c 0,5,6
 197 650 197 650 176 659 c 128,-1,7
 155 668 155 668 139 683 c 128,-1,8
 123 698 123 698 113.5 718.5 c 128,-1,9
 104 739 104 739 104 763 c 256,10,11
 104 787 104 787 113.5 808.5 c 128,-1,12
 123 830 123 830 139 845.5 c 128,-1,13
 155 861 155 861 176 870.5 c 128,-1,14
 197 880 197 880 221 880 c 0,15,16
 244 880 244 880 264.5 870 c 128,-1,17
 285 860 285 860 300.5 844.5 c 128,-1,18
 316 829 316 829 325 808.5 c 128,-1,19
 334 788 334 788 334 767 c 0,0,1
331 251 m 0,20,21
 331 230 331 230 322.5 209 c 128,-1,22
 314 188 314 188 299 172 c 128,-1,23
 284 156 284 156 263.5 146 c 128,-1,24
 243 136 243 136 218 136 c 0,25,26
 196 136 196 136 174.5 145 c 128,-1,27
 153 154 153 154 136.5 169 c 128,-1,28
 120 184 120 184 110 204.5 c 128,-1,29
 100 225 100 225 100 248 c 0,30,31
 100 272 100 272 110.5 293.5 c 128,-1,32
 121 315 121 315 137.5 331 c 128,-1,33
 154 347 154 347 175 356.5 c 128,-1,34
 196 366 196 366 218 366 c 0,35,36
 241 366 241 366 261.5 357.5 c 128,-1,37
 282 349 282 349 297.5 333.5 c 128,-1,38
 313 318 313 318 322 297 c 128,-1,39
 331 276 331 276 331 251 c 0,20,21
EndSplineSet
Substitution2: "<17016,16016> Urdu Swash lookup 75 subtable" colon
PairPos2: "'kern' Horizontal Kerning in Arabic lookup 0 subtable" afii57509 dx=0 dy=0 dh=0 dv=0 dx=0 dy=0 dh=260 dv=0
PairPos2: "'kern' Horizontal Kerning in Arabic lookup 0 subtable" uni06AB dx=0 dy=0 dh=0 dv=0 dx=0 dy=0 dh=260 dv=0
PairPos2: "'kern' Horizontal Kerning in Arabic lookup 0 subtable" uni06A9 dx=0 dy=0 dh=0 dv=0 dx=0 dy=0 dh=260 dv=0
PairPos2: "'kern' Horizontal Kerning in Arabic lookup 0 subtable" uniFB94 dx=0 dy=0 dh=0 dv=0 dx=0 dy=0 dh=260 dv=0
PairPos2: "'kern' Horizontal Kerning in Arabic lookup 0 subtable" uniFBD5 dx=0 dy=0 dh=0 dv=0 dx=0 dy=0 dh=260 dv=0
PairPos2: "'kern' Horizontal Kerning in Arabic lookup 0 subtable" uni06AB.ini dx=0 dy=0 dh=0 dv=0 dx=0 dy=0 dh=260 dv=0
PairPos2: "'kern' Horizontal Kerning in Arabic lookup 0 subtable" uniFB90 dx=0 dy=0 dh=0 dv=0 dx=0 dy=0 dh=260 dv=0
PairPos2: "'kern' Horizontal Kerning in Arabic lookup 0 subtable" uniFEDB dx=0 dy=0 dh=0 dv=0 dx=0 dy=0 dh=260 dv=0
PairPos2: "'kern' Horizontal Kerning in Arabic lookup 0 subtable" uni0671 dx=0 dy=0 dh=0 dv=0 dx=0 dy=0 dh=208 dv=0
PairPos2: "'kern' Horizontal Kerning in Arabic lookup 0 subtable" afii57410 dx=0 dy=0 dh=0 dv=0 dx=0 dy=0 dh=208 dv=0
PairPos2: "'kern' Horizontal Kerning in Arabic lookup 0 subtable" afii57415 dx=0 dy=0 dh=0 dv=0 dx=0 dy=0 dh=52 dv=0
EndChar

StartChar: semicolon
Encoding: 59 59 30
Width: 569
GlyphClass: 2
Flags: W
LayerCount: 2
Fore
SplineSet
172 827 m 256,0,1
 172 851 172 851 181 872 c 128,-1,2
 190 893 190 893 205.5 908.5 c 128,-1,3
 221 924 221 924 241.5 933 c 128,-1,4
 262 942 262 942 286 942 c 256,5,6
 310 942 310 942 330.5 933 c 128,-1,7
 351 924 351 924 367 908 c 128,-1,8
 383 892 383 892 392 871.5 c 128,-1,9
 401 851 401 851 401 827 c 0,10,11
 401 804 401 804 392.5 783 c 128,-1,12
 384 762 384 762 368.5 746.5 c 128,-1,13
 353 731 353 731 332 721.5 c 128,-1,14
 311 712 311 712 286 712 c 256,15,16
 261 712 261 712 240 721 c 128,-1,17
 219 730 219 730 204 745.5 c 128,-1,18
 189 761 189 761 180.5 782 c 128,-1,19
 172 803 172 803 172 827 c 256,0,1
207 -251 m 1,20,21
 255 -224 255 -224 287.5 -193.5 c 128,-1,22
 320 -163 320 -163 339.5 -133 c 128,-1,23
 359 -103 359 -103 367.5 -76 c 128,-1,24
 376 -49 376 -49 376 -29 c 0,25,26
 376 -15 376 -15 367.5 -11.5 c 128,-1,27
 359 -8 359 -8 349 -8 c 0,28,29
 332 -8 332 -8 315.5 -11.5 c 128,-1,30
 299 -15 299 -15 282 -15 c 0,31,32
 261 -15 261 -15 240.5 -8 c 128,-1,33
 220 -1 220 -1 204 12.5 c 128,-1,34
 188 26 188 26 178.5 46 c 128,-1,35
 169 66 169 66 169 93 c 0,36,37
 169 113 169 113 175.5 133.5 c 128,-1,38
 182 154 182 154 197 171 c 128,-1,39
 212 188 212 188 236 199 c 128,-1,40
 260 210 260 210 294 210 c 0,41,42
 326 210 326 210 355.5 197.5 c 128,-1,43
 385 185 385 185 407.5 161 c 128,-1,44
 430 137 430 137 444 102 c 128,-1,45
 458 67 458 67 458 22 c 0,46,47
 458 -28 458 -28 438 -76 c 128,-1,48
 418 -124 418 -124 385.5 -166 c 128,-1,49
 353 -208 353 -208 311.5 -240.5 c 128,-1,50
 270 -273 270 -273 227 -292 c 1,51,-1
 207 -251 l 1,20,21
EndSplineSet
Substitution2: "<17016,16016> Urdu Swash lookup 75 subtable" semicolon
PairPos2: "'kern' Horizontal Kerning in Arabic lookup 0 subtable" afii57509 dx=0 dy=0 dh=0 dv=0 dx=0 dy=0 dh=260 dv=0
PairPos2: "'kern' Horizontal Kerning in Arabic lookup 0 subtable" uni06AB dx=0 dy=0 dh=0 dv=0 dx=0 dy=0 dh=260 dv=0
PairPos2: "'kern' Horizontal Kerning in Arabic lookup 0 subtable" uni06A9 dx=0 dy=0 dh=0 dv=0 dx=0 dy=0 dh=260 dv=0
PairPos2: "'kern' Horizontal Kerning in Arabic lookup 0 subtable" uniFB94 dx=0 dy=0 dh=0 dv=0 dx=0 dy=0 dh=260 dv=0
PairPos2: "'kern' Horizontal Kerning in Arabic lookup 0 subtable" uniFBD5 dx=0 dy=0 dh=0 dv=0 dx=0 dy=0 dh=260 dv=0
PairPos2: "'kern' Horizontal Kerning in Arabic lookup 0 subtable" uni06AB.ini dx=0 dy=0 dh=0 dv=0 dx=0 dy=0 dh=260 dv=0
PairPos2: "'kern' Horizontal Kerning in Arabic lookup 0 subtable" uniFB90 dx=0 dy=0 dh=0 dv=0 dx=0 dy=0 dh=260 dv=0
PairPos2: "'kern' Horizontal Kerning in Arabic lookup 0 subtable" uniFEDB dx=0 dy=0 dh=0 dv=0 dx=0 dy=0 dh=260 dv=0
PairPos2: "'kern' Horizontal Kerning in Arabic lookup 0 subtable" uni0671 dx=0 dy=0 dh=0 dv=0 dx=0 dy=0 dh=208 dv=0
PairPos2: "'kern' Horizontal Kerning in Arabic lookup 0 subtable" afii57410 dx=0 dy=0 dh=0 dv=0 dx=0 dy=0 dh=208 dv=0
PairPos2: "'kern' Horizontal Kerning in Arabic lookup 0 subtable" afii57415 dx=0 dy=0 dh=0 dv=0 dx=0 dy=0 dh=52 dv=0
EndChar

StartChar: less
Encoding: 60 60 31
Width: 1050
GlyphClass: 2
Flags: W
LayerCount: 2
Fore
SplineSet
1042 136 m 1,0,-1
 1042 -17 l 1,1,-1
 8 489 l 1,2,-1
 8 546 l 1,3,-1
 1042 1053 l 1,4,-1
 1042 899 l 1,5,-1
 278 519 l 1,6,-1
 1042 136 l 1,0,-1
EndSplineSet
Substitution2: "<17016,16016> Urdu Swash lookup 75 subtable" less
PairPos2: "'kern' Horizontal Kerning in Arabic lookup 0 subtable" afii57509 dx=0 dy=0 dh=0 dv=0 dx=0 dy=0 dh=260 dv=0
PairPos2: "'kern' Horizontal Kerning in Arabic lookup 0 subtable" uni06AB dx=0 dy=0 dh=0 dv=0 dx=0 dy=0 dh=260 dv=0
PairPos2: "'kern' Horizontal Kerning in Arabic lookup 0 subtable" uni06A9 dx=0 dy=0 dh=0 dv=0 dx=0 dy=0 dh=260 dv=0
PairPos2: "'kern' Horizontal Kerning in Arabic lookup 0 subtable" uniFB94 dx=0 dy=0 dh=0 dv=0 dx=0 dy=0 dh=260 dv=0
PairPos2: "'kern' Horizontal Kerning in Arabic lookup 0 subtable" uniFBD5 dx=0 dy=0 dh=0 dv=0 dx=0 dy=0 dh=260 dv=0
PairPos2: "'kern' Horizontal Kerning in Arabic lookup 0 subtable" uni06AB.ini dx=0 dy=0 dh=0 dv=0 dx=0 dy=0 dh=260 dv=0
PairPos2: "'kern' Horizontal Kerning in Arabic lookup 0 subtable" uniFB90 dx=0 dy=0 dh=0 dv=0 dx=0 dy=0 dh=260 dv=0
PairPos2: "'kern' Horizontal Kerning in Arabic lookup 0 subtable" uniFEDB dx=0 dy=0 dh=0 dv=0 dx=0 dy=0 dh=260 dv=0
PairPos2: "'kern' Horizontal Kerning in Arabic lookup 0 subtable" uni0671 dx=0 dy=0 dh=0 dv=0 dx=0 dy=0 dh=208 dv=0
PairPos2: "'kern' Horizontal Kerning in Arabic lookup 0 subtable" afii57410 dx=0 dy=0 dh=0 dv=0 dx=0 dy=0 dh=208 dv=0
PairPos2: "'kern' Horizontal Kerning in Arabic lookup 0 subtable" afii57415 dx=0 dy=0 dh=0 dv=0 dx=0 dy=0 dh=52 dv=0
EndChar

StartChar: equal
Encoding: 61 61 32
Width: 1050
GlyphClass: 2
Flags: W
LayerCount: 2
Fore
SplineSet
1042 382 m 1,0,-1
 1042 241 l 1,1,-1
 8 241 l 1,2,-1
 8 382 l 1,3,-1
 1042 382 l 1,0,-1
1042 795 m 1,4,-1
 1042 653 l 1,5,-1
 8 653 l 1,6,-1
 8 795 l 1,7,-1
 1042 795 l 1,4,-1
EndSplineSet
Substitution2: "<17016,16016> Urdu Swash lookup 75 subtable" equal
PairPos2: "'kern' Horizontal Kerning in Arabic lookup 0 subtable" afii57509 dx=0 dy=0 dh=0 dv=0 dx=0 dy=0 dh=260 dv=0
PairPos2: "'kern' Horizontal Kerning in Arabic lookup 0 subtable" uni06AB dx=0 dy=0 dh=0 dv=0 dx=0 dy=0 dh=260 dv=0
PairPos2: "'kern' Horizontal Kerning in Arabic lookup 0 subtable" uni06A9 dx=0 dy=0 dh=0 dv=0 dx=0 dy=0 dh=260 dv=0
PairPos2: "'kern' Horizontal Kerning in Arabic lookup 0 subtable" uniFB94 dx=0 dy=0 dh=0 dv=0 dx=0 dy=0 dh=260 dv=0
PairPos2: "'kern' Horizontal Kerning in Arabic lookup 0 subtable" uniFBD5 dx=0 dy=0 dh=0 dv=0 dx=0 dy=0 dh=260 dv=0
PairPos2: "'kern' Horizontal Kerning in Arabic lookup 0 subtable" uni06AB.ini dx=0 dy=0 dh=0 dv=0 dx=0 dy=0 dh=260 dv=0
PairPos2: "'kern' Horizontal Kerning in Arabic lookup 0 subtable" uniFB90 dx=0 dy=0 dh=0 dv=0 dx=0 dy=0 dh=260 dv=0
PairPos2: "'kern' Horizontal Kerning in Arabic lookup 0 subtable" uniFEDB dx=0 dy=0 dh=0 dv=0 dx=0 dy=0 dh=260 dv=0
PairPos2: "'kern' Horizontal Kerning in Arabic lookup 0 subtable" uni0671 dx=0 dy=0 dh=0 dv=0 dx=0 dy=0 dh=208 dv=0
PairPos2: "'kern' Horizontal Kerning in Arabic lookup 0 subtable" afii57410 dx=0 dy=0 dh=0 dv=0 dx=0 dy=0 dh=208 dv=0
PairPos2: "'kern' Horizontal Kerning in Arabic lookup 0 subtable" afii57415 dx=0 dy=0 dh=0 dv=0 dx=0 dy=0 dh=52 dv=0
EndChar

StartChar: greater
Encoding: 62 62 33
Width: 1050
GlyphClass: 2
Flags: W
LayerCount: 2
Fore
SplineSet
772 519 m 1,0,-1
 8 899 l 1,1,-1
 8 1053 l 1,2,-1
 1042 546 l 1,3,-1
 1042 489 l 1,4,-1
 8 -17 l 1,5,-1
 8 136 l 1,6,-1
 772 519 l 1,0,-1
EndSplineSet
Substitution2: "<17016,16016> Urdu Swash lookup 75 subtable" greater
PairPos2: "'kern' Horizontal Kerning in Arabic lookup 0 subtable" afii57509 dx=0 dy=0 dh=0 dv=0 dx=0 dy=0 dh=260 dv=0
PairPos2: "'kern' Horizontal Kerning in Arabic lookup 0 subtable" uni06AB dx=0 dy=0 dh=0 dv=0 dx=0 dy=0 dh=260 dv=0
PairPos2: "'kern' Horizontal Kerning in Arabic lookup 0 subtable" uni06A9 dx=0 dy=0 dh=0 dv=0 dx=0 dy=0 dh=260 dv=0
PairPos2: "'kern' Horizontal Kerning in Arabic lookup 0 subtable" uniFB94 dx=0 dy=0 dh=0 dv=0 dx=0 dy=0 dh=260 dv=0
PairPos2: "'kern' Horizontal Kerning in Arabic lookup 0 subtable" uniFBD5 dx=0 dy=0 dh=0 dv=0 dx=0 dy=0 dh=260 dv=0
PairPos2: "'kern' Horizontal Kerning in Arabic lookup 0 subtable" uni06AB.ini dx=0 dy=0 dh=0 dv=0 dx=0 dy=0 dh=260 dv=0
PairPos2: "'kern' Horizontal Kerning in Arabic lookup 0 subtable" uniFB90 dx=0 dy=0 dh=0 dv=0 dx=0 dy=0 dh=260 dv=0
PairPos2: "'kern' Horizontal Kerning in Arabic lookup 0 subtable" uniFEDB dx=0 dy=0 dh=0 dv=0 dx=0 dy=0 dh=260 dv=0
PairPos2: "'kern' Horizontal Kerning in Arabic lookup 0 subtable" uni0671 dx=0 dy=0 dh=0 dv=0 dx=0 dy=0 dh=208 dv=0
PairPos2: "'kern' Horizontal Kerning in Arabic lookup 0 subtable" afii57410 dx=0 dy=0 dh=0 dv=0 dx=0 dy=0 dh=208 dv=0
PairPos2: "'kern' Horizontal Kerning in Arabic lookup 0 subtable" afii57415 dx=0 dy=0 dh=0 dv=0 dx=0 dy=0 dh=52 dv=0
EndChar

StartChar: question
Encoding: 63 63 34
Width: 909
GlyphClass: 2
Flags: W
LayerCount: 2
Fore
SplineSet
483 -19 m 0,0,1
 459 -19 459 -19 438.5 -10.5 c 128,-1,2
 418 -2 418 -2 403 13 c 128,-1,3
 388 28 388 28 379.5 48 c 128,-1,4
 371 68 371 68 371 91 c 256,5,6
 371 114 371 114 380 134 c 128,-1,7
 389 154 389 154 404 169 c 128,-1,8
 419 184 419 184 439 192.5 c 128,-1,9
 459 201 459 201 481 201 c 0,10,11
 505 201 505 201 525.5 192.5 c 128,-1,12
 546 184 546 184 561.5 169 c 128,-1,13
 577 154 577 154 586 134 c 128,-1,14
 595 114 595 114 595 91 c 256,15,16
 595 68 595 68 586 48 c 128,-1,17
 577 28 577 28 562 13 c 128,-1,18
 547 -2 547 -2 526.5 -10.5 c 128,-1,19
 506 -19 506 -19 483 -19 c 0,0,1
850 1058 m 0,20,21
 850 929 850 929 697 734 c 0,22,23
 529 523 529 523 501 336 c 1,24,-1
 463 336 l 1,25,26
 463 353 463 353 466 381.5 c 128,-1,27
 469 410 469 410 474.5 441.5 c 128,-1,28
 480 473 480 473 487 504 c 128,-1,29
 494 535 494 535 501 559 c 0,30,31
 517 608 517 608 582 758 c 0,32,33
 615 833 615 833 637.5 908.5 c 128,-1,34
 660 984 660 984 660 1047 c 0,35,36
 660 1097 660 1097 647 1146 c 128,-1,37
 634 1195 634 1195 606 1233.5 c 128,-1,38
 578 1272 578 1272 535.5 1296 c 128,-1,39
 493 1320 493 1320 433 1320 c 0,40,41
 394 1320 394 1320 359 1307.5 c 128,-1,42
 324 1295 324 1295 298 1276 c 128,-1,43
 272 1257 272 1257 257 1235 c 128,-1,44
 242 1213 242 1213 242 1195 c 0,45,46
 242 1174 242 1174 283 1127 c 0,47,48
 303 1104 303 1104 313.5 1083 c 128,-1,49
 324 1062 324 1062 324 1041 c 0,50,51
 324 1007 324 1007 299.5 982 c 128,-1,52
 275 957 275 957 239 957 c 0,53,54
 219 957 219 957 200 965.5 c 128,-1,55
 181 974 181 974 166.5 991.5 c 128,-1,56
 152 1009 152 1009 143 1034.5 c 128,-1,57
 134 1060 134 1060 134 1093 c 0,58,59
 134 1196 134 1196 223 1290 c 0,60,61
 312 1383 312 1383 491 1383 c 0,62,63
 568 1383 568 1383 634 1361 c 128,-1,64
 700 1339 700 1339 748 1297 c 128,-1,65
 796 1255 796 1255 823 1195 c 128,-1,66
 850 1135 850 1135 850 1058 c 0,20,21
EndSplineSet
Substitution2: "<17016,16016> Urdu Swash lookup 75 subtable" question
PairPos2: "'kern' Horizontal Kerning in Arabic lookup 0 subtable" afii57509 dx=0 dy=0 dh=0 dv=0 dx=0 dy=0 dh=260 dv=0
PairPos2: "'kern' Horizontal Kerning in Arabic lookup 0 subtable" uni06AB dx=0 dy=0 dh=0 dv=0 dx=0 dy=0 dh=260 dv=0
PairPos2: "'kern' Horizontal Kerning in Arabic lookup 0 subtable" uni06A9 dx=0 dy=0 dh=0 dv=0 dx=0 dy=0 dh=260 dv=0
PairPos2: "'kern' Horizontal Kerning in Arabic lookup 0 subtable" uniFB94 dx=0 dy=0 dh=0 dv=0 dx=0 dy=0 dh=260 dv=0
PairPos2: "'kern' Horizontal Kerning in Arabic lookup 0 subtable" uniFBD5 dx=0 dy=0 dh=0 dv=0 dx=0 dy=0 dh=260 dv=0
PairPos2: "'kern' Horizontal Kerning in Arabic lookup 0 subtable" uni06AB.ini dx=0 dy=0 dh=0 dv=0 dx=0 dy=0 dh=260 dv=0
PairPos2: "'kern' Horizontal Kerning in Arabic lookup 0 subtable" uniFB90 dx=0 dy=0 dh=0 dv=0 dx=0 dy=0 dh=260 dv=0
PairPos2: "'kern' Horizontal Kerning in Arabic lookup 0 subtable" uniFEDB dx=0 dy=0 dh=0 dv=0 dx=0 dy=0 dh=260 dv=0
PairPos2: "'kern' Horizontal Kerning in Arabic lookup 0 subtable" uni0671 dx=0 dy=0 dh=0 dv=0 dx=0 dy=0 dh=208 dv=0
PairPos2: "'kern' Horizontal Kerning in Arabic lookup 0 subtable" afii57410 dx=0 dy=0 dh=0 dv=0 dx=0 dy=0 dh=208 dv=0
PairPos2: "'kern' Horizontal Kerning in Arabic lookup 0 subtable" afii57415 dx=0 dy=0 dh=0 dv=0 dx=0 dy=0 dh=52 dv=0
EndChar

StartChar: at
Encoding: 64 64 35
Width: 1886
GlyphClass: 2
Flags: W
LayerCount: 2
Fore
SplineSet
873 361 m 0,0,1
 991 361 991 361 1063 552 c 0,2,3
 1136 744 1136 744 1136 834 c 0,4,5
 1136 885 1136 885 1107 915 c 128,-1,6
 1078 945 1078 945 1027 945 c 0,7,8
 928 945 928 945 839 792 c 0,9,10
 751 638 751 638 751 501 c 0,11,12
 751 436 751 436 784 398.5 c 128,-1,13
 817 361 817 361 873 361 c 0,0,1
411 161 m 0,14,15
 185 354 185 354 185 630 c 0,16,17
 185 945 185 945 433 1164 c 0,18,19
 557 1274 557 1274 704 1329.5 c 128,-1,20
 851 1385 851 1385 1028 1384 c 0,21,22
 1300 1384 1300 1384 1488 1233 c 0,23,24
 1686 1073 1686 1073 1686 824 c 0,25,26
 1686 622 1686 622 1559 455 c 0,27,28
 1431 288 1431 288 1270 288 c 0,29,30
 1228 288 1228 288 1193.5 300 c 128,-1,31
 1159 312 1159 312 1133.5 333 c 128,-1,32
 1108 354 1108 354 1093 382.5 c 128,-1,33
 1078 411 1078 411 1076 444 c 1,34,35
 1063 413 1063 413 1038 384.5 c 128,-1,36
 1013 356 1013 356 982 334.5 c 128,-1,37
 951 313 951 313 915.5 300 c 128,-1,38
 880 287 880 287 844 287 c 0,39,40
 787 287 787 287 738 306.5 c 128,-1,41
 689 326 689 326 653 363 c 128,-1,42
 617 400 617 400 596.5 452 c 128,-1,43
 576 504 576 504 576 570 c 0,44,45
 576 741 576 741 706 881 c 0,46,47
 838 1023 838 1023 995 1023 c 0,48,49
 1030 1023 1030 1023 1060.5 1013.5 c 128,-1,50
 1091 1004 1091 1004 1115 987.5 c 128,-1,51
 1139 971 1139 971 1156 948 c 128,-1,52
 1173 925 1173 925 1181 899 c 1,53,54
 1189 923 1189 923 1197 948.5 c 128,-1,55
 1205 974 1205 974 1213 998 c 1,56,-1
 1378 998 l 1,57,-1
 1323 827 l 2,58,59
 1301 759 1301 759 1282.5 696 c 128,-1,60
 1264 633 1264 633 1250.5 582.5 c 128,-1,61
 1237 532 1237 532 1229.5 496.5 c 128,-1,62
 1222 461 1222 461 1222 449 c 0,63,64
 1222 433 1222 433 1228.5 417.5 c 128,-1,65
 1235 402 1235 402 1246.5 390 c 128,-1,66
 1258 378 1258 378 1274 370.5 c 128,-1,67
 1290 363 1290 363 1308 363 c 0,68,69
 1356 363 1356 363 1406 396.5 c 128,-1,70
 1456 430 1456 430 1507 496 c 256,71,72
 1558 562 1558 562 1583.5 645 c 128,-1,73
 1609 728 1609 728 1610 821 c 0,74,75
 1610 1055 1610 1055 1430 1179 c 0,76,77
 1251 1304 1251 1304 1038 1304 c 0,78,79
 771 1304 771 1304 557 1119 c 0,80,81
 325 920 325 920 325 632 c 0,82,83
 325 503 325 503 374.5 395 c 128,-1,84
 424 287 424 287 511 209 c 128,-1,85
 598 131 598 131 718 87.5 c 128,-1,86
 838 44 838 44 979 44 c 0,87,88
 1076 44 1076 44 1187 72 c 0,89,90
 1359 115 1359 115 1483 209 c 1,91,-1
 1523 150 l 1,92,93
 1449 102 1449 102 1376.5 67 c 128,-1,94
 1304 32 1304 32 1239 12 c 0,95,96
 1173 -8 1173 -8 1099.5 -18.5 c 128,-1,97
 1026 -29 1026 -29 950 -29 c 0,98,99
 634 -29 634 -29 411 161 c 0,14,15
EndSplineSet
Substitution2: "<17016,16016> Urdu Swash lookup 75 subtable" at
PairPos2: "'kern' Horizontal Kerning in Arabic lookup 0 subtable" afii57509 dx=0 dy=0 dh=0 dv=0 dx=0 dy=0 dh=260 dv=0
PairPos2: "'kern' Horizontal Kerning in Arabic lookup 0 subtable" uni06AB dx=0 dy=0 dh=0 dv=0 dx=0 dy=0 dh=260 dv=0
PairPos2: "'kern' Horizontal Kerning in Arabic lookup 0 subtable" uni06A9 dx=0 dy=0 dh=0 dv=0 dx=0 dy=0 dh=260 dv=0
PairPos2: "'kern' Horizontal Kerning in Arabic lookup 0 subtable" uniFB94 dx=0 dy=0 dh=0 dv=0 dx=0 dy=0 dh=260 dv=0
PairPos2: "'kern' Horizontal Kerning in Arabic lookup 0 subtable" uniFBD5 dx=0 dy=0 dh=0 dv=0 dx=0 dy=0 dh=260 dv=0
PairPos2: "'kern' Horizontal Kerning in Arabic lookup 0 subtable" uni06AB.ini dx=0 dy=0 dh=0 dv=0 dx=0 dy=0 dh=260 dv=0
PairPos2: "'kern' Horizontal Kerning in Arabic lookup 0 subtable" uniFB90 dx=0 dy=0 dh=0 dv=0 dx=0 dy=0 dh=260 dv=0
PairPos2: "'kern' Horizontal Kerning in Arabic lookup 0 subtable" uniFEDB dx=0 dy=0 dh=0 dv=0 dx=0 dy=0 dh=260 dv=0
PairPos2: "'kern' Horizontal Kerning in Arabic lookup 0 subtable" uni0671 dx=0 dy=0 dh=0 dv=0 dx=0 dy=0 dh=208 dv=0
PairPos2: "'kern' Horizontal Kerning in Arabic lookup 0 subtable" afii57410 dx=0 dy=0 dh=0 dv=0 dx=0 dy=0 dh=208 dv=0
PairPos2: "'kern' Horizontal Kerning in Arabic lookup 0 subtable" afii57415 dx=0 dy=0 dh=0 dv=0 dx=0 dy=0 dh=52 dv=0
EndChar

StartChar: A
Encoding: 65 65 36
Width: 1479
GlyphClass: 2
Flags: W
LayerCount: 2
Fore
SplineSet
913 527 m 1,0,1
 885 593 885 593 855 664 c 128,-1,2
 825 735 825 735 795 807 c 128,-1,3
 765 879 765 879 735 950 c 128,-1,4
 705 1021 705 1021 677 1087 c 1,5,6
 618 947 618 947 560.5 807.5 c 128,-1,7
 503 668 503 668 444 527 c 1,8,-1
 913 527 l 1,0,1
30 0 m 1,9,-1
 30 39 l 1,10,11
 109 48 109 48 148 99 c 0,12,13
 190 151 190 151 284 374 c 2,14,-1
 710 1379 l 1,15,-1
 752 1379 l 1,16,-1
 1261 219 l 2,17,18
 1285 165 1285 165 1306 127.5 c 128,-1,19
 1327 90 1327 90 1342 76 c 256,20,21
 1357 62 1357 62 1383.5 53.5 c 128,-1,22
 1410 45 1410 45 1445 39 c 1,23,-1
 1445 0 l 1,24,-1
 923 0 l 1,25,-1
 923 39 l 1,26,27
 969 43 969 43 997 47 c 128,-1,28
 1025 51 1025 51 1040 58.5 c 128,-1,29
 1055 66 1055 66 1060 79 c 128,-1,30
 1065 92 1065 92 1065 114 c 0,31,32
 1065 134 1065 134 1053 171 c 128,-1,33
 1041 208 1041 208 1023 253.5 c 128,-1,34
 1005 299 1005 299 983.5 348.5 c 128,-1,35
 962 398 962 398 942 442 c 1,36,-1
 408 442 l 1,37,38
 384 379 384 379 366 334.5 c 128,-1,39
 348 290 348 290 336 259 c 128,-1,40
 324 228 324 228 316.5 208 c 128,-1,41
 309 188 309 188 305 174 c 128,-1,42
 301 160 301 160 299.5 149.5 c 128,-1,43
 298 139 298 139 298 128 c 0,44,45
 298 106 298 106 303.5 91 c 128,-1,46
 309 76 309 76 324.5 65.5 c 128,-1,47
 340 55 340 55 367 49 c 128,-1,48
 394 43 394 43 437 39 c 1,49,-1
 437 0 l 1,50,-1
 30 0 l 1,9,-1
EndSplineSet
Substitution2: "<17016,16016> Urdu Swash lookup 75 subtable" A
PairPos2: "'kern' Horizontal Kerning in Arabic lookup 0 subtable" afii57509 dx=0 dy=0 dh=0 dv=0 dx=0 dy=0 dh=260 dv=0
PairPos2: "'kern' Horizontal Kerning in Arabic lookup 0 subtable" uni06AB dx=0 dy=0 dh=0 dv=0 dx=0 dy=0 dh=260 dv=0
PairPos2: "'kern' Horizontal Kerning in Arabic lookup 0 subtable" uni06A9 dx=0 dy=0 dh=0 dv=0 dx=0 dy=0 dh=260 dv=0
PairPos2: "'kern' Horizontal Kerning in Arabic lookup 0 subtable" uniFB94 dx=0 dy=0 dh=0 dv=0 dx=0 dy=0 dh=260 dv=0
PairPos2: "'kern' Horizontal Kerning in Arabic lookup 0 subtable" uniFBD5 dx=0 dy=0 dh=0 dv=0 dx=0 dy=0 dh=260 dv=0
PairPos2: "'kern' Horizontal Kerning in Arabic lookup 0 subtable" uni06AB.ini dx=0 dy=0 dh=0 dv=0 dx=0 dy=0 dh=260 dv=0
PairPos2: "'kern' Horizontal Kerning in Arabic lookup 0 subtable" uniFB90 dx=0 dy=0 dh=0 dv=0 dx=0 dy=0 dh=260 dv=0
PairPos2: "'kern' Horizontal Kerning in Arabic lookup 0 subtable" uniFEDB dx=0 dy=0 dh=0 dv=0 dx=0 dy=0 dh=260 dv=0
PairPos2: "'kern' Horizontal Kerning in Arabic lookup 0 subtable" uni0671 dx=0 dy=0 dh=0 dv=0 dx=0 dy=0 dh=208 dv=0
PairPos2: "'kern' Horizontal Kerning in Arabic lookup 0 subtable" afii57410 dx=0 dy=0 dh=0 dv=0 dx=0 dy=0 dh=208 dv=0
PairPos2: "'kern' Horizontal Kerning in Arabic lookup 0 subtable" afii57415 dx=0 dy=0 dh=0 dv=0 dx=0 dy=0 dh=52 dv=0
EndChar

StartChar: B
Encoding: 66 66 37
Width: 1366
GlyphClass: 2
Flags: W
LayerCount: 2
Fore
SplineSet
806 783 m 0,0,1
 935 842 935 842 935 997 c 0,2,3
 935 1086 935 1086 897 1148 c 128,-1,4
 859 1210 859 1210 786 1242 c 0,5,6
 744 1259 744 1259 681.5 1268 c 128,-1,7
 619 1277 619 1277 534 1277 c 0,8,9
 502 1277 502 1277 483.5 1275 c 128,-1,10
 465 1273 465 1273 455.5 1266 c 128,-1,11
 446 1259 446 1259 443.5 1245 c 128,-1,12
 441 1231 441 1231 441 1207 c 2,13,-1
 441 747 l 1,14,15
 491 748 491 748 542.5 748 c 128,-1,16
 594 748 594 748 642 751 c 128,-1,17
 690 754 690 754 732 761 c 128,-1,18
 774 768 774 768 806 783 c 0,0,1
977 369 m 0,19,20
 977 542 977 542 854 603 c 0,21,22
 730 666 730 666 538 666 c 2,23,-1
 478 666 l 2,24,25
 472 666 472 666 463 666 c 128,-1,26
 454 666 454 666 441 667 c 1,27,-1
 441 159 l 2,28,29
 441 133 441 133 446 117 c 128,-1,30
 451 101 451 101 468.5 92 c 128,-1,31
 486 83 486 83 519.5 79.5 c 128,-1,32
 553 76 553 76 609 76 c 0,33,34
 765 76 765 76 871 137 c 256,35,36
 977 198 977 198 977 369 c 0,19,20
35 39 m 1,37,38
 99 43 99 43 137.5 50.5 c 128,-1,39
 176 58 176 58 197 77.5 c 128,-1,40
 218 97 218 97 225 131.5 c 128,-1,41
 232 166 232 166 232 223 c 2,42,-1
 232 1132 l 2,43,44
 232 1243 232 1243 195 1276 c 0,45,46
 157 1311 157 1311 35 1315 c 1,47,-1
 35 1355 l 1,48,-1
 609 1355 l 2,49,50
 732 1355 732 1355 831 1336 c 128,-1,51
 930 1317 930 1317 999.5 1275.5 c 128,-1,52
 1069 1234 1069 1234 1106.5 1167 c 128,-1,53
 1144 1100 1144 1100 1144 1004 c 0,54,55
 1144 933 1144 933 1117 877 c 128,-1,56
 1090 821 1090 821 1043 783 c 0,57,58
 1015 765 1015 765 971 745.5 c 128,-1,59
 927 726 927 726 876 713 c 1,60,61
 1015 677 1015 677 1113 600 c 0,62,63
 1213 521 1213 521 1213 377 c 0,64,65
 1213 198 1213 198 1084.5 99 c 128,-1,66
 956 0 956 0 703 0 c 2,67,-1
 35 0 l 1,68,-1
 35 39 l 1,37,38
EndSplineSet
Substitution2: "<17016,16016> Urdu Swash lookup 75 subtable" B
PairPos2: "'kern' Horizontal Kerning in Arabic lookup 0 subtable" afii57509 dx=0 dy=0 dh=0 dv=0 dx=0 dy=0 dh=260 dv=0
PairPos2: "'kern' Horizontal Kerning in Arabic lookup 0 subtable" uni06AB dx=0 dy=0 dh=0 dv=0 dx=0 dy=0 dh=260 dv=0
PairPos2: "'kern' Horizontal Kerning in Arabic lookup 0 subtable" uni06A9 dx=0 dy=0 dh=0 dv=0 dx=0 dy=0 dh=260 dv=0
PairPos2: "'kern' Horizontal Kerning in Arabic lookup 0 subtable" uniFB94 dx=0 dy=0 dh=0 dv=0 dx=0 dy=0 dh=260 dv=0
PairPos2: "'kern' Horizontal Kerning in Arabic lookup 0 subtable" uniFBD5 dx=0 dy=0 dh=0 dv=0 dx=0 dy=0 dh=260 dv=0
PairPos2: "'kern' Horizontal Kerning in Arabic lookup 0 subtable" uni06AB.ini dx=0 dy=0 dh=0 dv=0 dx=0 dy=0 dh=260 dv=0
PairPos2: "'kern' Horizontal Kerning in Arabic lookup 0 subtable" uniFB90 dx=0 dy=0 dh=0 dv=0 dx=0 dy=0 dh=260 dv=0
PairPos2: "'kern' Horizontal Kerning in Arabic lookup 0 subtable" uniFEDB dx=0 dy=0 dh=0 dv=0 dx=0 dy=0 dh=260 dv=0
PairPos2: "'kern' Horizontal Kerning in Arabic lookup 0 subtable" uni0671 dx=0 dy=0 dh=0 dv=0 dx=0 dy=0 dh=208 dv=0
PairPos2: "'kern' Horizontal Kerning in Arabic lookup 0 subtable" afii57410 dx=0 dy=0 dh=0 dv=0 dx=0 dy=0 dh=208 dv=0
PairPos2: "'kern' Horizontal Kerning in Arabic lookup 0 subtable" afii57415 dx=0 dy=0 dh=0 dv=0 dx=0 dy=0 dh=52 dv=0
EndChar

StartChar: C
Encoding: 67 67 38
AltUni2: 00216d.ffffffff.0
Width: 1366
GlyphClass: 2
Flags: W
LayerCount: 2
Fore
SplineSet
1116 1313 m 0,0,1
 1145 1313 1145 1313 1170.5 1329 c 128,-1,2
 1196 1345 1196 1345 1206 1379 c 1,3,-1
 1251 1379 l 1,4,-1
 1270 918 l 1,5,-1
 1221 918 l 1,6,7
 1201 985 1201 985 1173.5 1040.5 c 128,-1,8
 1146 1096 1146 1096 1114 1138 c 0,9,10
 1052 1216 1052 1216 967 1256 c 128,-1,11
 882 1296 882 1296 777 1296 c 0,12,13
 563 1296 563 1296 426 1126 c 0,14,15
 357 1041 357 1041 324 925 c 128,-1,16
 291 809 291 809 291 660 c 0,17,18
 291 387 291 387 433 224 c 0,19,20
 577 61 577 61 796 61 c 0,21,22
 957 61 957 61 1088 137 c 0,23,24
 1126 159 1126 159 1167.5 191 c 128,-1,25
 1209 223 1209 223 1257 268 c 1,26,-1
 1297 228 l 1,27,28
 1228 141 1228 141 1127 76 c 0,29,30
 955 -34 955 -34 754 -34 c 0,31,32
 597 -34 597 -34 467.5 18.5 c 128,-1,33
 338 71 338 71 245.5 164 c 128,-1,34
 153 257 153 257 102 385 c 128,-1,35
 51 513 51 513 51 664 c 0,36,37
 51 965 51 965 240 1166 c 0,38,39
 340 1273 340 1273 468.5 1326 c 128,-1,40
 597 1379 597 1379 758 1379 c 0,41,42
 869 1379 869 1379 986 1346 c 0,43,44
 1102 1313 1102 1313 1116 1313 c 0,0,1
EndSplineSet
Substitution2: "<17016,16016> Urdu Swash lookup 75 subtable" C
PairPos2: "'kern' Horizontal Kerning in Arabic lookup 0 subtable" afii57509 dx=0 dy=0 dh=0 dv=0 dx=0 dy=0 dh=260 dv=0
PairPos2: "'kern' Horizontal Kerning in Arabic lookup 0 subtable" uni06AB dx=0 dy=0 dh=0 dv=0 dx=0 dy=0 dh=260 dv=0
PairPos2: "'kern' Horizontal Kerning in Arabic lookup 0 subtable" uni06A9 dx=0 dy=0 dh=0 dv=0 dx=0 dy=0 dh=260 dv=0
PairPos2: "'kern' Horizontal Kerning in Arabic lookup 0 subtable" uniFB94 dx=0 dy=0 dh=0 dv=0 dx=0 dy=0 dh=260 dv=0
PairPos2: "'kern' Horizontal Kerning in Arabic lookup 0 subtable" uniFBD5 dx=0 dy=0 dh=0 dv=0 dx=0 dy=0 dh=260 dv=0
PairPos2: "'kern' Horizontal Kerning in Arabic lookup 0 subtable" uni06AB.ini dx=0 dy=0 dh=0 dv=0 dx=0 dy=0 dh=260 dv=0
PairPos2: "'kern' Horizontal Kerning in Arabic lookup 0 subtable" uniFB90 dx=0 dy=0 dh=0 dv=0 dx=0 dy=0 dh=260 dv=0
PairPos2: "'kern' Horizontal Kerning in Arabic lookup 0 subtable" uniFEDB dx=0 dy=0 dh=0 dv=0 dx=0 dy=0 dh=260 dv=0
PairPos2: "'kern' Horizontal Kerning in Arabic lookup 0 subtable" uni0671 dx=0 dy=0 dh=0 dv=0 dx=0 dy=0 dh=208 dv=0
PairPos2: "'kern' Horizontal Kerning in Arabic lookup 0 subtable" afii57410 dx=0 dy=0 dh=0 dv=0 dx=0 dy=0 dh=208 dv=0
PairPos2: "'kern' Horizontal Kerning in Arabic lookup 0 subtable" afii57415 dx=0 dy=0 dh=0 dv=0 dx=0 dy=0 dh=52 dv=0
EndChar

StartChar: D
Encoding: 68 68 39
AltUni2: 00216e.ffffffff.0
Width: 1479
GlyphClass: 2
Flags: W
LayerCount: 2
Fore
SplineSet
547 78 m 0,0,1
 700 78 700 78 817.5 116.5 c 128,-1,2
 935 155 935 155 1015.5 230 c 128,-1,3
 1096 305 1096 305 1137 415.5 c 128,-1,4
 1178 526 1178 526 1178 670 c 0,5,6
 1178 816 1178 816 1134 929 c 128,-1,7
 1090 1042 1090 1042 1007.5 1119.5 c 128,-1,8
 925 1197 925 1197 806.5 1237.5 c 128,-1,9
 688 1278 688 1278 539 1278 c 0,10,11
 506 1278 506 1278 484 1275 c 128,-1,12
 462 1272 462 1272 448 1263.5 c 128,-1,13
 434 1255 434 1255 428 1239.5 c 128,-1,14
 422 1224 422 1224 422 1198 c 2,15,-1
 422 159 l 2,16,17
 422 134 422 134 428 118 c 128,-1,18
 434 102 434 102 448 93 c 128,-1,19
 462 84 462 84 486 81 c 128,-1,20
 510 78 510 78 547 78 c 0,0,1
33 39 m 1,21,22
 87 45 87 45 124 55.5 c 128,-1,23
 161 66 161 66 179 79 c 0,24,25
 213 110 213 110 213 223 c 2,26,-1
 213 1132 l 2,27,28
 213 1244 213 1244 180 1275 c 0,29,30
 146 1308 146 1308 33 1315 c 1,31,-1
 33 1355 l 1,32,-1
 585 1355 l 2,33,34
 784 1355 784 1355 937 1309.5 c 128,-1,35
 1090 1264 1090 1264 1194 1177 c 128,-1,36
 1298 1090 1298 1090 1351.5 963 c 128,-1,37
 1405 836 1405 836 1405 673 c 0,38,39
 1405 520 1405 520 1342 382 c 0,40,41
 1312 315 1312 315 1263 255.5 c 128,-1,42
 1214 196 1214 196 1154 149 c 0,43,44
 1117 120 1117 120 1073 97 c 128,-1,45
 1029 74 1029 74 988 58 c 0,46,47
 910 30 910 30 812 15 c 128,-1,48
 714 0 714 0 602 0 c 2,49,-1
 33 0 l 1,50,-1
 33 39 l 1,21,22
EndSplineSet
Substitution2: "<17016,16016> Urdu Swash lookup 75 subtable" D
PairPos2: "'kern' Horizontal Kerning in Arabic lookup 0 subtable" afii57509 dx=0 dy=0 dh=0 dv=0 dx=0 dy=0 dh=260 dv=0
PairPos2: "'kern' Horizontal Kerning in Arabic lookup 0 subtable" uni06AB dx=0 dy=0 dh=0 dv=0 dx=0 dy=0 dh=260 dv=0
PairPos2: "'kern' Horizontal Kerning in Arabic lookup 0 subtable" uni06A9 dx=0 dy=0 dh=0 dv=0 dx=0 dy=0 dh=260 dv=0
PairPos2: "'kern' Horizontal Kerning in Arabic lookup 0 subtable" uniFB94 dx=0 dy=0 dh=0 dv=0 dx=0 dy=0 dh=260 dv=0
PairPos2: "'kern' Horizontal Kerning in Arabic lookup 0 subtable" uniFBD5 dx=0 dy=0 dh=0 dv=0 dx=0 dy=0 dh=260 dv=0
PairPos2: "'kern' Horizontal Kerning in Arabic lookup 0 subtable" uni06AB.ini dx=0 dy=0 dh=0 dv=0 dx=0 dy=0 dh=260 dv=0
PairPos2: "'kern' Horizontal Kerning in Arabic lookup 0 subtable" uniFB90 dx=0 dy=0 dh=0 dv=0 dx=0 dy=0 dh=260 dv=0
PairPos2: "'kern' Horizontal Kerning in Arabic lookup 0 subtable" uniFEDB dx=0 dy=0 dh=0 dv=0 dx=0 dy=0 dh=260 dv=0
PairPos2: "'kern' Horizontal Kerning in Arabic lookup 0 subtable" uni0671 dx=0 dy=0 dh=0 dv=0 dx=0 dy=0 dh=208 dv=0
PairPos2: "'kern' Horizontal Kerning in Arabic lookup 0 subtable" afii57410 dx=0 dy=0 dh=0 dv=0 dx=0 dy=0 dh=208 dv=0
PairPos2: "'kern' Horizontal Kerning in Arabic lookup 0 subtable" afii57415 dx=0 dy=0 dh=0 dv=0 dx=0 dy=0 dh=52 dv=0
EndChar

StartChar: E
Encoding: 69 69 40
Width: 1251
GlyphClass: 2
Flags: W
LayerCount: 2
Fore
SplineSet
23 39 m 1,0,1
 137 51 137 51 169 79 c 0,2,3
 203 107 203 107 203 223 c 2,4,-1
 203 1132 l 2,5,6
 203 1187 203 1187 196 1221 c 128,-1,7
 189 1255 189 1255 169.5 1274.5 c 128,-1,8
 150 1294 150 1294 115 1302.5 c 128,-1,9
 80 1311 80 1311 23 1315 c 1,10,-1
 23 1355 l 1,11,-1
 1111 1355 l 1,12,-1
 1111 1060 l 1,13,-1
 1064 1060 l 1,14,15
 1039 1194 1039 1194 986 1235 c 0,16,17
 936 1275 936 1275 756 1275 c 2,18,-1
 478 1275 l 2,19,20
 456 1275 456 1275 443 1271.5 c 128,-1,21
 430 1268 430 1268 423.5 1260.5 c 128,-1,22
 417 1253 417 1253 415 1240 c 128,-1,23
 413 1227 413 1227 413 1207 c 2,24,-1
 413 752 l 1,25,-1
 727 752 l 2,26,27
 857 752 857 752 893 791 c 0,28,29
 928 829 928 829 951 949 c 1,30,-1
 1000 949 l 1,31,-1
 1000 473 l 1,32,-1
 951 473 l 1,33,34
 928 592 928 592 892 630 c 0,35,36
 856 669 856 669 727 669 c 2,37,-1
 413 669 l 1,38,-1
 413 164 l 2,39,40
 413 104 413 104 450 93 c 0,41,42
 470 87 470 87 528 85 c 128,-1,43
 586 83 586 83 681 82 c 0,44,45
 781 82 781 82 859.5 94.5 c 128,-1,46
 938 107 938 107 987 127 c 1,47,48
 1035 151 1035 151 1080 205.5 c 128,-1,49
 1125 260 1125 260 1164 348 c 1,50,-1
 1223 348 l 1,51,-1
 1130 0 l 1,52,-1
 23 0 l 1,53,-1
 23 39 l 1,0,1
EndSplineSet
Substitution2: "<17016,16016> Urdu Swash lookup 75 subtable" E
PairPos2: "'kern' Horizontal Kerning in Arabic lookup 0 subtable" afii57509 dx=0 dy=0 dh=0 dv=0 dx=0 dy=0 dh=260 dv=0
PairPos2: "'kern' Horizontal Kerning in Arabic lookup 0 subtable" uni06AB dx=0 dy=0 dh=0 dv=0 dx=0 dy=0 dh=260 dv=0
PairPos2: "'kern' Horizontal Kerning in Arabic lookup 0 subtable" uni06A9 dx=0 dy=0 dh=0 dv=0 dx=0 dy=0 dh=260 dv=0
PairPos2: "'kern' Horizontal Kerning in Arabic lookup 0 subtable" uniFB94 dx=0 dy=0 dh=0 dv=0 dx=0 dy=0 dh=260 dv=0
PairPos2: "'kern' Horizontal Kerning in Arabic lookup 0 subtable" uniFBD5 dx=0 dy=0 dh=0 dv=0 dx=0 dy=0 dh=260 dv=0
PairPos2: "'kern' Horizontal Kerning in Arabic lookup 0 subtable" uni06AB.ini dx=0 dy=0 dh=0 dv=0 dx=0 dy=0 dh=260 dv=0
PairPos2: "'kern' Horizontal Kerning in Arabic lookup 0 subtable" uniFB90 dx=0 dy=0 dh=0 dv=0 dx=0 dy=0 dh=260 dv=0
PairPos2: "'kern' Horizontal Kerning in Arabic lookup 0 subtable" uniFEDB dx=0 dy=0 dh=0 dv=0 dx=0 dy=0 dh=260 dv=0
PairPos2: "'kern' Horizontal Kerning in Arabic lookup 0 subtable" uni0671 dx=0 dy=0 dh=0 dv=0 dx=0 dy=0 dh=208 dv=0
PairPos2: "'kern' Horizontal Kerning in Arabic lookup 0 subtable" afii57410 dx=0 dy=0 dh=0 dv=0 dx=0 dy=0 dh=208 dv=0
PairPos2: "'kern' Horizontal Kerning in Arabic lookup 0 subtable" afii57415 dx=0 dy=0 dh=0 dv=0 dx=0 dy=0 dh=52 dv=0
EndChar

StartChar: F
Encoding: 70 70 41
Width: 1139
GlyphClass: 2
Flags: W
LayerCount: 2
Fore
SplineSet
23 39 m 1,0,1
 146 53 146 53 173 83 c 0,2,3
 203 115 203 115 203 247 c 2,4,-1
 203 1132 l 2,5,6
 203 1187 203 1187 196 1221 c 128,-1,7
 189 1255 189 1255 169.5 1274.5 c 128,-1,8
 150 1294 150 1294 115 1302.5 c 128,-1,9
 80 1311 80 1311 23 1315 c 1,10,-1
 23 1355 l 1,11,-1
 1114 1355 l 1,12,-1
 1114 1060 l 1,13,-1
 1062 1060 l 1,14,15
 1041 1200 1041 1200 983 1237 c 0,16,17
 924 1275 924 1275 756 1275 c 2,18,-1
 476 1275 l 2,19,20
 456 1275 456 1275 443.5 1272 c 128,-1,21
 431 1269 431 1269 424.5 1261.5 c 128,-1,22
 418 1254 418 1254 415.5 1240.5 c 128,-1,23
 413 1227 413 1227 413 1207 c 2,24,-1
 413 752 l 1,25,-1
 708 752 l 2,26,27
 838 752 838 752 874 791 c 256,28,29
 910 830 910 830 931 949 c 1,30,-1
 981 949 l 1,31,-1
 981 473 l 1,32,-1
 931 473 l 1,33,34
 910 591 910 591 873 630 c 0,35,36
 837 669 837 669 708 669 c 2,37,-1
 413 669 l 1,38,-1
 413 223 l 2,39,40
 413 166 413 166 420 132 c 128,-1,41
 427 98 427 98 447 78.5 c 128,-1,42
 467 59 467 59 503 51.5 c 128,-1,43
 539 44 539 44 598 39 c 1,44,-1
 598 0 l 1,45,-1
 23 0 l 1,46,-1
 23 39 l 1,0,1
EndSplineSet
Substitution2: "<17016,16016> Urdu Swash lookup 75 subtable" F
PairPos2: "'kern' Horizontal Kerning in Arabic lookup 0 subtable" afii57509 dx=0 dy=0 dh=0 dv=0 dx=0 dy=0 dh=260 dv=0
PairPos2: "'kern' Horizontal Kerning in Arabic lookup 0 subtable" uni06AB dx=0 dy=0 dh=0 dv=0 dx=0 dy=0 dh=260 dv=0
PairPos2: "'kern' Horizontal Kerning in Arabic lookup 0 subtable" uni06A9 dx=0 dy=0 dh=0 dv=0 dx=0 dy=0 dh=260 dv=0
PairPos2: "'kern' Horizontal Kerning in Arabic lookup 0 subtable" uniFB94 dx=0 dy=0 dh=0 dv=0 dx=0 dy=0 dh=260 dv=0
PairPos2: "'kern' Horizontal Kerning in Arabic lookup 0 subtable" uniFBD5 dx=0 dy=0 dh=0 dv=0 dx=0 dy=0 dh=260 dv=0
PairPos2: "'kern' Horizontal Kerning in Arabic lookup 0 subtable" uni06AB.ini dx=0 dy=0 dh=0 dv=0 dx=0 dy=0 dh=260 dv=0
PairPos2: "'kern' Horizontal Kerning in Arabic lookup 0 subtable" uniFB90 dx=0 dy=0 dh=0 dv=0 dx=0 dy=0 dh=260 dv=0
PairPos2: "'kern' Horizontal Kerning in Arabic lookup 0 subtable" uniFEDB dx=0 dy=0 dh=0 dv=0 dx=0 dy=0 dh=260 dv=0
PairPos2: "'kern' Horizontal Kerning in Arabic lookup 0 subtable" uni0671 dx=0 dy=0 dh=0 dv=0 dx=0 dy=0 dh=208 dv=0
PairPos2: "'kern' Horizontal Kerning in Arabic lookup 0 subtable" afii57410 dx=0 dy=0 dh=0 dv=0 dx=0 dy=0 dh=208 dv=0
PairPos2: "'kern' Horizontal Kerning in Arabic lookup 0 subtable" afii57415 dx=0 dy=0 dh=0 dv=0 dx=0 dy=0 dh=52 dv=0
EndChar

StartChar: G
Encoding: 71 71 42
Width: 1479
GlyphClass: 2
Flags: W
LayerCount: 2
Fore
SplineSet
1123 1313 m 0,0,1
 1145 1313 1145 1313 1159.5 1317.5 c 128,-1,2
 1174 1322 1174 1322 1184.5 1330 c 128,-1,3
 1195 1338 1195 1338 1202.5 1350.5 c 128,-1,4
 1210 1363 1210 1363 1216 1379 c 1,5,-1
 1263 1379 l 1,6,-1
 1263 947 l 1,7,-1
 1230 947 l 1,8,9
 1199 1019 1199 1019 1165.5 1075.5 c 128,-1,10
 1132 1132 1132 1132 1101 1168 c 0,11,12
 1041 1229 1041 1229 961 1262.5 c 128,-1,13
 881 1296 881 1296 787 1296 c 0,14,15
 691 1296 691 1296 603 1257 c 128,-1,16
 515 1218 515 1218 441 1146 c 1,17,18
 371 1071 371 1071 332 947.5 c 128,-1,19
 293 824 293 824 293 656 c 0,20,21
 293 376 293 376 441 216 c 0,22,23
 590 57 590 57 808 57 c 0,24,25
 845 57 845 57 895 64 c 128,-1,26
 945 71 945 71 990 86 c 0,27,28
 1028 98 1028 98 1049.5 108 c 128,-1,29
 1071 118 1071 118 1081.5 128 c 128,-1,30
 1092 138 1092 138 1095 150 c 128,-1,31
 1098 162 1098 162 1098 178 c 2,32,-1
 1098 504 l 2,33,34
 1098 622 1098 622 1064 650 c 0,35,36
 1031 678 1031 678 918 686 c 1,37,-1
 918 726 l 1,38,-1
 1441 726 l 1,39,-1
 1441 686 l 1,40,41
 1367 682 1367 682 1340 661 c 0,42,43
 1298 630 1298 630 1298 530 c 2,44,-1
 1298 128 l 2,45,46
 1298 116 1298 116 1274.5 99.5 c 128,-1,47
 1251 83 1251 83 1211 66 c 128,-1,48
 1171 49 1171 49 1118.5 31.5 c 128,-1,49
 1066 14 1066 14 1008.5 1 c 128,-1,50
 951 -12 951 -12 892.5 -20.5 c 128,-1,51
 834 -29 834 -29 782 -29 c 0,52,53
 479 -29 479 -29 276 146 c 0,54,55
 162 243 162 243 105.5 371 c 128,-1,56
 49 499 49 499 49 664 c 0,57,58
 49 764 49 764 73 856 c 128,-1,59
 97 948 97 948 141.5 1027.5 c 128,-1,60
 186 1107 186 1107 249.5 1172 c 128,-1,61
 313 1237 313 1237 392 1283 c 128,-1,62
 471 1329 471 1329 563.5 1354 c 128,-1,63
 656 1379 656 1379 758 1379 c 0,64,65
 877 1379 877 1379 992 1346 c 0,66,67
 1108 1313 1108 1313 1123 1313 c 0,0,1
EndSplineSet
Substitution2: "<17016,16016> Urdu Swash lookup 75 subtable" G
PairPos2: "'kern' Horizontal Kerning in Arabic lookup 0 subtable" afii57509 dx=0 dy=0 dh=0 dv=0 dx=0 dy=0 dh=260 dv=0
PairPos2: "'kern' Horizontal Kerning in Arabic lookup 0 subtable" uni06AB dx=0 dy=0 dh=0 dv=0 dx=0 dy=0 dh=260 dv=0
PairPos2: "'kern' Horizontal Kerning in Arabic lookup 0 subtable" uni06A9 dx=0 dy=0 dh=0 dv=0 dx=0 dy=0 dh=260 dv=0
PairPos2: "'kern' Horizontal Kerning in Arabic lookup 0 subtable" uniFB94 dx=0 dy=0 dh=0 dv=0 dx=0 dy=0 dh=260 dv=0
PairPos2: "'kern' Horizontal Kerning in Arabic lookup 0 subtable" uniFBD5 dx=0 dy=0 dh=0 dv=0 dx=0 dy=0 dh=260 dv=0
PairPos2: "'kern' Horizontal Kerning in Arabic lookup 0 subtable" uni06AB.ini dx=0 dy=0 dh=0 dv=0 dx=0 dy=0 dh=260 dv=0
PairPos2: "'kern' Horizontal Kerning in Arabic lookup 0 subtable" uniFB90 dx=0 dy=0 dh=0 dv=0 dx=0 dy=0 dh=260 dv=0
PairPos2: "'kern' Horizontal Kerning in Arabic lookup 0 subtable" uniFEDB dx=0 dy=0 dh=0 dv=0 dx=0 dy=0 dh=260 dv=0
PairPos2: "'kern' Horizontal Kerning in Arabic lookup 0 subtable" uni0671 dx=0 dy=0 dh=0 dv=0 dx=0 dy=0 dh=208 dv=0
PairPos2: "'kern' Horizontal Kerning in Arabic lookup 0 subtable" afii57410 dx=0 dy=0 dh=0 dv=0 dx=0 dy=0 dh=208 dv=0
PairPos2: "'kern' Horizontal Kerning in Arabic lookup 0 subtable" afii57415 dx=0 dy=0 dh=0 dv=0 dx=0 dy=0 dh=52 dv=0
EndChar

StartChar: H
Encoding: 72 72 43
Width: 1479
GlyphClass: 2
Flags: W
LayerCount: 2
Fore
SplineSet
33 39 m 1,0,1
 154 53 154 53 183 83 c 0,2,3
 213 115 213 115 213 247 c 2,4,-1
 213 1132 l 2,5,6
 213 1186 213 1186 206.5 1220 c 128,-1,7
 200 1254 200 1254 180.5 1274 c 128,-1,8
 161 1294 161 1294 125.5 1302.5 c 128,-1,9
 90 1311 90 1311 33 1315 c 1,10,-1
 33 1355 l 1,11,-1
 603 1355 l 1,12,-1
 603 1315 l 1,13,14
 546 1311 546 1311 511 1302.5 c 128,-1,15
 476 1294 476 1294 456 1274.5 c 128,-1,16
 436 1255 436 1255 429 1221 c 128,-1,17
 422 1187 422 1187 422 1132 c 2,18,-1
 422 735 l 1,19,-1
 1041 735 l 1,20,-1
 1041 1132 l 2,21,22
 1041 1241 1041 1241 1008 1274 c 0,23,24
 974 1308 974 1308 861 1315 c 1,25,-1
 861 1355 l 1,26,-1
 1431 1355 l 1,27,-1
 1431 1315 l 1,28,29
 1375 1311 1375 1311 1339.5 1303 c 128,-1,30
 1304 1295 1304 1295 1284.5 1275.5 c 128,-1,31
 1265 1256 1265 1256 1258 1222 c 128,-1,32
 1251 1188 1251 1188 1251 1132 c 2,33,-1
 1251 223 l 2,34,35
 1251 166 1251 166 1258 132 c 128,-1,36
 1265 98 1265 98 1284.5 79 c 128,-1,37
 1304 60 1304 60 1339.5 52 c 128,-1,38
 1375 44 1375 44 1431 39 c 1,39,-1
 1431 0 l 1,40,-1
 861 0 l 1,41,-1
 861 39 l 1,42,43
 982 51 982 51 1011 83 c 0,44,45
 1041 115 1041 115 1041 247 c 2,46,-1
 1041 643 l 1,47,-1
 422 643 l 1,48,-1
 422 223 l 2,49,50
 422 111 422 111 456 80 c 0,51,52
 491 48 491 48 603 39 c 1,53,-1
 603 0 l 1,54,-1
 33 0 l 1,55,-1
 33 39 l 1,0,1
EndSplineSet
Substitution2: "<17016,16016> Urdu Swash lookup 75 subtable" H
PairPos2: "'kern' Horizontal Kerning in Arabic lookup 0 subtable" afii57509 dx=0 dy=0 dh=0 dv=0 dx=0 dy=0 dh=260 dv=0
PairPos2: "'kern' Horizontal Kerning in Arabic lookup 0 subtable" uni06AB dx=0 dy=0 dh=0 dv=0 dx=0 dy=0 dh=260 dv=0
PairPos2: "'kern' Horizontal Kerning in Arabic lookup 0 subtable" uni06A9 dx=0 dy=0 dh=0 dv=0 dx=0 dy=0 dh=260 dv=0
PairPos2: "'kern' Horizontal Kerning in Arabic lookup 0 subtable" uniFB94 dx=0 dy=0 dh=0 dv=0 dx=0 dy=0 dh=260 dv=0
PairPos2: "'kern' Horizontal Kerning in Arabic lookup 0 subtable" uniFBD5 dx=0 dy=0 dh=0 dv=0 dx=0 dy=0 dh=260 dv=0
PairPos2: "'kern' Horizontal Kerning in Arabic lookup 0 subtable" uni06AB.ini dx=0 dy=0 dh=0 dv=0 dx=0 dy=0 dh=260 dv=0
PairPos2: "'kern' Horizontal Kerning in Arabic lookup 0 subtable" uniFB90 dx=0 dy=0 dh=0 dv=0 dx=0 dy=0 dh=260 dv=0
PairPos2: "'kern' Horizontal Kerning in Arabic lookup 0 subtable" uniFEDB dx=0 dy=0 dh=0 dv=0 dx=0 dy=0 dh=260 dv=0
PairPos2: "'kern' Horizontal Kerning in Arabic lookup 0 subtable" uni0671 dx=0 dy=0 dh=0 dv=0 dx=0 dy=0 dh=208 dv=0
PairPos2: "'kern' Horizontal Kerning in Arabic lookup 0 subtable" afii57410 dx=0 dy=0 dh=0 dv=0 dx=0 dy=0 dh=208 dv=0
PairPos2: "'kern' Horizontal Kerning in Arabic lookup 0 subtable" afii57415 dx=0 dy=0 dh=0 dv=0 dx=0 dy=0 dh=52 dv=0
EndChar

StartChar: I
Encoding: 73 73 44
Width: 682
GlyphClass: 2
Flags: W
LayerCount: 2
Fore
SplineSet
32 39 m 1,0,1
 157 48 157 48 194 76 c 256,2,3
 231 104 231 104 231 223 c 2,4,-1
 231 1132 l 2,5,6
 231 1245 231 1245 194 1276 c 0,7,8
 157 1309 157 1309 32 1315 c 1,9,-1
 32 1355 l 1,10,-1
 640 1355 l 1,11,-1
 640 1315 l 1,12,13
 517 1309 517 1309 478 1276 c 0,14,15
 441 1245 441 1245 441 1132 c 2,16,-1
 441 223 l 2,17,18
 441 107 441 107 478 76 c 1,19,20
 518 48 518 48 640 39 c 1,21,-1
 640 0 l 1,22,-1
 32 0 l 1,23,-1
 32 39 l 1,0,1
EndSplineSet
Substitution2: "<17016,16016> Urdu Swash lookup 75 subtable" I
PairPos2: "'kern' Horizontal Kerning in Arabic lookup 0 subtable" afii57509 dx=0 dy=0 dh=0 dv=0 dx=0 dy=0 dh=260 dv=0
PairPos2: "'kern' Horizontal Kerning in Arabic lookup 0 subtable" uni06AB dx=0 dy=0 dh=0 dv=0 dx=0 dy=0 dh=260 dv=0
PairPos2: "'kern' Horizontal Kerning in Arabic lookup 0 subtable" uni06A9 dx=0 dy=0 dh=0 dv=0 dx=0 dy=0 dh=260 dv=0
PairPos2: "'kern' Horizontal Kerning in Arabic lookup 0 subtable" uniFB94 dx=0 dy=0 dh=0 dv=0 dx=0 dy=0 dh=260 dv=0
PairPos2: "'kern' Horizontal Kerning in Arabic lookup 0 subtable" uniFBD5 dx=0 dy=0 dh=0 dv=0 dx=0 dy=0 dh=260 dv=0
PairPos2: "'kern' Horizontal Kerning in Arabic lookup 0 subtable" uni06AB.ini dx=0 dy=0 dh=0 dv=0 dx=0 dy=0 dh=260 dv=0
PairPos2: "'kern' Horizontal Kerning in Arabic lookup 0 subtable" uniFB90 dx=0 dy=0 dh=0 dv=0 dx=0 dy=0 dh=260 dv=0
PairPos2: "'kern' Horizontal Kerning in Arabic lookup 0 subtable" uniFEDB dx=0 dy=0 dh=0 dv=0 dx=0 dy=0 dh=260 dv=0
PairPos2: "'kern' Horizontal Kerning in Arabic lookup 0 subtable" uni0671 dx=0 dy=0 dh=0 dv=0 dx=0 dy=0 dh=208 dv=0
PairPos2: "'kern' Horizontal Kerning in Arabic lookup 0 subtable" afii57410 dx=0 dy=0 dh=0 dv=0 dx=0 dy=0 dh=208 dv=0
PairPos2: "'kern' Horizontal Kerning in Arabic lookup 0 subtable" afii57415 dx=0 dy=0 dh=0 dv=0 dx=0 dy=0 dh=52 dv=0
EndChar

StartChar: J
Encoding: 74 74 45
Width: 797
GlyphClass: 2
Flags: W
LayerCount: 2
Fore
SplineSet
117 222 m 0,0,1
 150 222 150 222 176.5 199 c 128,-1,2
 203 176 203 176 220 135 c 0,3,4
 237 95 237 95 254 73 c 128,-1,5
 271 51 271 51 289 51 c 0,6,7
 328 51 328 51 343.5 86 c 128,-1,8
 359 121 359 121 359 207 c 2,9,-1
 359 1132 l 2,10,11
 359 1246 359 1246 322 1277 c 0,12,13
 284 1309 284 1309 169 1315 c 1,14,-1
 169 1355 l 1,15,-1
 758 1355 l 1,16,-1
 758 1315 l 1,17,18
 700 1311 700 1311 663 1302.5 c 128,-1,19
 626 1294 626 1294 605 1274 c 128,-1,20
 584 1254 584 1254 576.5 1220 c 128,-1,21
 569 1186 569 1186 569 1132 c 2,22,-1
 569 381 l 2,23,24
 569 277 569 277 542 201 c 128,-1,25
 515 125 515 125 468.5 75 c 128,-1,26
 422 25 422 25 359 0.5 c 128,-1,27
 296 -24 296 -24 224 -24 c 0,28,29
 176 -24 176 -24 138.5 -12 c 128,-1,30
 101 0 101 0 74.5 20 c 128,-1,31
 48 40 48 40 34.5 65.5 c 128,-1,32
 21 91 21 91 21 119 c 0,33,34
 21 148 21 148 29.5 168 c 128,-1,35
 38 188 38 188 52 200 c 128,-1,36
 66 212 66 212 83 217 c 128,-1,37
 100 222 100 222 117 222 c 0,0,1
EndSplineSet
Substitution2: "<17016,16016> Urdu Swash lookup 75 subtable" J
PairPos2: "'kern' Horizontal Kerning in Arabic lookup 0 subtable" afii57509 dx=0 dy=0 dh=0 dv=0 dx=0 dy=0 dh=260 dv=0
PairPos2: "'kern' Horizontal Kerning in Arabic lookup 0 subtable" uni06AB dx=0 dy=0 dh=0 dv=0 dx=0 dy=0 dh=260 dv=0
PairPos2: "'kern' Horizontal Kerning in Arabic lookup 0 subtable" uni06A9 dx=0 dy=0 dh=0 dv=0 dx=0 dy=0 dh=260 dv=0
PairPos2: "'kern' Horizontal Kerning in Arabic lookup 0 subtable" uniFB94 dx=0 dy=0 dh=0 dv=0 dx=0 dy=0 dh=260 dv=0
PairPos2: "'kern' Horizontal Kerning in Arabic lookup 0 subtable" uniFBD5 dx=0 dy=0 dh=0 dv=0 dx=0 dy=0 dh=260 dv=0
PairPos2: "'kern' Horizontal Kerning in Arabic lookup 0 subtable" uni06AB.ini dx=0 dy=0 dh=0 dv=0 dx=0 dy=0 dh=260 dv=0
PairPos2: "'kern' Horizontal Kerning in Arabic lookup 0 subtable" uniFB90 dx=0 dy=0 dh=0 dv=0 dx=0 dy=0 dh=260 dv=0
PairPos2: "'kern' Horizontal Kerning in Arabic lookup 0 subtable" uniFEDB dx=0 dy=0 dh=0 dv=0 dx=0 dy=0 dh=260 dv=0
PairPos2: "'kern' Horizontal Kerning in Arabic lookup 0 subtable" uni0671 dx=0 dy=0 dh=0 dv=0 dx=0 dy=0 dh=208 dv=0
PairPos2: "'kern' Horizontal Kerning in Arabic lookup 0 subtable" afii57410 dx=0 dy=0 dh=0 dv=0 dx=0 dy=0 dh=208 dv=0
PairPos2: "'kern' Horizontal Kerning in Arabic lookup 0 subtable" afii57415 dx=0 dy=0 dh=0 dv=0 dx=0 dy=0 dh=52 dv=0
EndChar

StartChar: K
Encoding: 75 75 46
AltUni2: 00212a.ffffffff.0
Width: 1479
GlyphClass: 2
Flags: W
LayerCount: 2
Fore
SplineSet
37 39 m 1,0,1
 163 50 163 50 192 83 c 0,2,3
 222 118 222 118 222 247 c 2,4,-1
 222 1132 l 2,5,6
 222 1241 222 1241 188 1274 c 0,7,8
 171 1291 171 1291 134 1301.5 c 128,-1,9
 97 1312 97 1312 37 1315 c 1,10,-1
 37 1355 l 1,11,-1
 622 1355 l 1,12,-1
 622 1315 l 1,13,14
 561 1312 561 1312 524 1303.5 c 128,-1,15
 487 1295 487 1295 466.5 1275 c 128,-1,16
 446 1255 446 1255 439 1220.5 c 128,-1,17
 432 1186 432 1186 432 1132 c 2,18,-1
 432 716 l 1,19,20
 526 797 526 797 602.5 864 c 128,-1,21
 679 931 679 931 739 988 c 0,22,23
 845 1088 845 1088 899.5 1154.5 c 128,-1,24
 954 1221 954 1221 954 1249 c 0,25,26
 954 1290 954 1290 917.5 1302.5 c 128,-1,27
 881 1315 881 1315 814 1315 c 1,28,-1
 814 1355 l 1,29,-1
 1351 1355 l 1,30,-1
 1351 1320 l 1,31,32
 1304 1315 1304 1315 1263.5 1305 c 128,-1,33
 1223 1295 1223 1295 1195 1281 c 0,34,35
 1168 1268 1168 1268 1129.5 1235.5 c 128,-1,36
 1091 1203 1091 1203 1041 1154 c 0,37,38
 944 1059 944 1059 847 965 c 128,-1,39
 750 871 750 871 653 775 c 1,40,41
 657 771 657 771 678.5 748 c 128,-1,42
 700 725 700 725 733 689 c 128,-1,43
 766 653 766 653 807 609 c 128,-1,44
 848 565 848 565 891 518.5 c 128,-1,45
 934 472 934 472 975 428 c 128,-1,46
 1016 384 1016 384 1048.5 348 c 128,-1,47
 1081 312 1081 312 1102.5 289 c 128,-1,48
 1124 266 1124 266 1128 262 c 0,49,50
 1191 195 1191 195 1237.5 149 c 128,-1,51
 1284 103 1284 103 1309 83 c 0,52,53
 1332 65 1332 65 1368.5 54 c 128,-1,54
 1405 43 1405 43 1450 37 c 1,55,-1
 1450 0 l 1,56,-1
 823 0 l 1,57,-1
 823 39 l 1,58,59
 867 41 867 41 895 43.5 c 128,-1,60
 923 46 923 46 939 52 c 128,-1,61
 955 58 955 58 961.5 67.5 c 128,-1,62
 968 77 968 77 968 93 c 0,63,64
 968 110 968 110 948.5 144.5 c 128,-1,65
 929 179 929 179 887 225 c 2,66,-1
 500 649 l 1,67,68
 483 635 483 635 466 620 c 128,-1,69
 449 605 449 605 432 591 c 1,70,-1
 432 223 l 2,71,72
 432 169 432 169 441 132.5 c 128,-1,73
 450 96 450 96 466 79 c 0,74,75
 503 50 503 50 617 39 c 1,76,-1
 617 0 l 1,77,-1
 37 0 l 1,78,-1
 37 39 l 1,0,1
EndSplineSet
Substitution2: "<17016,16016> Urdu Swash lookup 75 subtable" K
PairPos2: "'kern' Horizontal Kerning in Arabic lookup 0 subtable" afii57509 dx=0 dy=0 dh=0 dv=0 dx=0 dy=0 dh=260 dv=0
PairPos2: "'kern' Horizontal Kerning in Arabic lookup 0 subtable" uni06AB dx=0 dy=0 dh=0 dv=0 dx=0 dy=0 dh=260 dv=0
PairPos2: "'kern' Horizontal Kerning in Arabic lookup 0 subtable" uni06A9 dx=0 dy=0 dh=0 dv=0 dx=0 dy=0 dh=260 dv=0
PairPos2: "'kern' Horizontal Kerning in Arabic lookup 0 subtable" uniFB94 dx=0 dy=0 dh=0 dv=0 dx=0 dy=0 dh=260 dv=0
PairPos2: "'kern' Horizontal Kerning in Arabic lookup 0 subtable" uniFBD5 dx=0 dy=0 dh=0 dv=0 dx=0 dy=0 dh=260 dv=0
PairPos2: "'kern' Horizontal Kerning in Arabic lookup 0 subtable" uni06AB.ini dx=0 dy=0 dh=0 dv=0 dx=0 dy=0 dh=260 dv=0
PairPos2: "'kern' Horizontal Kerning in Arabic lookup 0 subtable" uniFB90 dx=0 dy=0 dh=0 dv=0 dx=0 dy=0 dh=260 dv=0
PairPos2: "'kern' Horizontal Kerning in Arabic lookup 0 subtable" uniFEDB dx=0 dy=0 dh=0 dv=0 dx=0 dy=0 dh=260 dv=0
PairPos2: "'kern' Horizontal Kerning in Arabic lookup 0 subtable" uni0671 dx=0 dy=0 dh=0 dv=0 dx=0 dy=0 dh=208 dv=0
PairPos2: "'kern' Horizontal Kerning in Arabic lookup 0 subtable" afii57410 dx=0 dy=0 dh=0 dv=0 dx=0 dy=0 dh=208 dv=0
PairPos2: "'kern' Horizontal Kerning in Arabic lookup 0 subtable" afii57415 dx=0 dy=0 dh=0 dv=0 dx=0 dy=0 dh=52 dv=0
EndChar

StartChar: L
Encoding: 76 76 47
AltUni2: 00216c.ffffffff.0
Width: 1251
GlyphClass: 2
Flags: W
LayerCount: 2
Fore
SplineSet
23 39 m 1,0,1
 137 51 137 51 169 79 c 0,2,3
 203 107 203 107 203 223 c 2,4,-1
 203 1132 l 2,5,6
 203 1187 203 1187 196 1221 c 128,-1,7
 189 1255 189 1255 169.5 1274.5 c 128,-1,8
 150 1294 150 1294 115 1302.5 c 128,-1,9
 80 1311 80 1311 23 1315 c 1,10,-1
 23 1355 l 1,11,-1
 603 1355 l 1,12,-1
 603 1315 l 1,13,14
 546 1312 546 1312 509.5 1304 c 128,-1,15
 473 1296 473 1296 451.5 1278 c 128,-1,16
 430 1260 430 1260 421.5 1228.5 c 128,-1,17
 413 1197 413 1197 413 1146 c 2,18,-1
 413 164 l 2,19,20
 413 136 413 136 420.5 119.5 c 128,-1,21
 428 103 428 103 450.5 94.5 c 128,-1,22
 473 86 473 86 513 84 c 128,-1,23
 553 82 553 82 618 82 c 0,24,25
 749 82 749 82 843 94.5 c 128,-1,26
 937 107 937 107 986 127 c 0,27,28
 1080 173 1080 173 1171 357 c 1,29,-1
 1225 357 l 1,30,-1
 1125 0 l 1,31,-1
 23 0 l 1,32,-1
 23 39 l 1,0,1
EndSplineSet
Substitution2: "<17016,16016> Urdu Swash lookup 75 subtable" L
PairPos2: "'kern' Horizontal Kerning in Arabic lookup 0 subtable" afii57509 dx=0 dy=0 dh=0 dv=0 dx=0 dy=0 dh=260 dv=0
PairPos2: "'kern' Horizontal Kerning in Arabic lookup 0 subtable" uni06AB dx=0 dy=0 dh=0 dv=0 dx=0 dy=0 dh=260 dv=0
PairPos2: "'kern' Horizontal Kerning in Arabic lookup 0 subtable" uni06A9 dx=0 dy=0 dh=0 dv=0 dx=0 dy=0 dh=260 dv=0
PairPos2: "'kern' Horizontal Kerning in Arabic lookup 0 subtable" uniFB94 dx=0 dy=0 dh=0 dv=0 dx=0 dy=0 dh=260 dv=0
PairPos2: "'kern' Horizontal Kerning in Arabic lookup 0 subtable" uniFBD5 dx=0 dy=0 dh=0 dv=0 dx=0 dy=0 dh=260 dv=0
PairPos2: "'kern' Horizontal Kerning in Arabic lookup 0 subtable" uni06AB.ini dx=0 dy=0 dh=0 dv=0 dx=0 dy=0 dh=260 dv=0
PairPos2: "'kern' Horizontal Kerning in Arabic lookup 0 subtable" uniFB90 dx=0 dy=0 dh=0 dv=0 dx=0 dy=0 dh=260 dv=0
PairPos2: "'kern' Horizontal Kerning in Arabic lookup 0 subtable" uniFEDB dx=0 dy=0 dh=0 dv=0 dx=0 dy=0 dh=260 dv=0
PairPos2: "'kern' Horizontal Kerning in Arabic lookup 0 subtable" uni0671 dx=0 dy=0 dh=0 dv=0 dx=0 dy=0 dh=208 dv=0
PairPos2: "'kern' Horizontal Kerning in Arabic lookup 0 subtable" afii57410 dx=0 dy=0 dh=0 dv=0 dx=0 dy=0 dh=208 dv=0
PairPos2: "'kern' Horizontal Kerning in Arabic lookup 0 subtable" afii57415 dx=0 dy=0 dh=0 dv=0 dx=0 dy=0 dh=52 dv=0
EndChar

StartChar: M
Encoding: 77 77 48
AltUni2: 00216f.ffffffff.0
Width: 1821
GlyphClass: 2
Flags: W
LayerCount: 2
Fore
SplineSet
23 39 m 1,0,1
 150 52 150 52 186 96 c 0,2,3
 222 141 222 141 222 302 c 2,4,-1
 222 1132 l 2,5,6
 222 1242 222 1242 187 1275 c 0,7,8
 153 1309 153 1309 28 1315 c 1,9,-1
 28 1355 l 1,10,-1
 435 1355 l 1,11,-1
 907 325 l 1,12,13
 1021 583 1021 583 1133 840 c 128,-1,14
 1245 1097 1245 1097 1358 1355 c 1,15,-1
 1768 1355 l 1,16,-1
 1768 1315 l 1,17,18
 1711 1311 1711 1311 1676 1302.5 c 128,-1,19
 1641 1294 1641 1294 1621.5 1274.5 c 128,-1,20
 1602 1255 1602 1255 1595 1221 c 128,-1,21
 1588 1187 1588 1187 1588 1132 c 2,22,-1
 1588 223 l 2,23,24
 1588 167 1588 167 1594.5 133 c 128,-1,25
 1601 99 1601 99 1620.5 80 c 128,-1,26
 1640 61 1640 61 1675 52.5 c 128,-1,27
 1710 44 1710 44 1768 39 c 1,28,-1
 1768 0 l 1,29,-1
 1193 0 l 1,30,-1
 1193 39 l 1,31,32
 1317 50 1317 50 1346 83 c 0,33,34
 1377 117 1377 117 1377 247 c 2,35,-1
 1377 1161 l 1,36,37
 1246 870 1246 870 1116.5 580.5 c 128,-1,38
 987 291 987 291 856 0 c 1,39,-1
 826 0 l 1,40,-1
 314 1113 l 1,41,-1
 314 302 l 2,42,43
 314 134 314 134 363 84 c 0,44,45
 394 51 394 51 506 39 c 1,46,-1
 506 0 l 1,47,-1
 23 0 l 1,48,-1
 23 39 l 1,0,1
EndSplineSet
Substitution2: "<17016,16016> Urdu Swash lookup 75 subtable" M
PairPos2: "'kern' Horizontal Kerning in Arabic lookup 0 subtable" afii57509 dx=0 dy=0 dh=0 dv=0 dx=0 dy=0 dh=260 dv=0
PairPos2: "'kern' Horizontal Kerning in Arabic lookup 0 subtable" uni06AB dx=0 dy=0 dh=0 dv=0 dx=0 dy=0 dh=260 dv=0
PairPos2: "'kern' Horizontal Kerning in Arabic lookup 0 subtable" uni06A9 dx=0 dy=0 dh=0 dv=0 dx=0 dy=0 dh=260 dv=0
PairPos2: "'kern' Horizontal Kerning in Arabic lookup 0 subtable" uniFB94 dx=0 dy=0 dh=0 dv=0 dx=0 dy=0 dh=260 dv=0
PairPos2: "'kern' Horizontal Kerning in Arabic lookup 0 subtable" uniFBD5 dx=0 dy=0 dh=0 dv=0 dx=0 dy=0 dh=260 dv=0
PairPos2: "'kern' Horizontal Kerning in Arabic lookup 0 subtable" uni06AB.ini dx=0 dy=0 dh=0 dv=0 dx=0 dy=0 dh=260 dv=0
PairPos2: "'kern' Horizontal Kerning in Arabic lookup 0 subtable" uniFB90 dx=0 dy=0 dh=0 dv=0 dx=0 dy=0 dh=260 dv=0
PairPos2: "'kern' Horizontal Kerning in Arabic lookup 0 subtable" uniFEDB dx=0 dy=0 dh=0 dv=0 dx=0 dy=0 dh=260 dv=0
PairPos2: "'kern' Horizontal Kerning in Arabic lookup 0 subtable" uni0671 dx=0 dy=0 dh=0 dv=0 dx=0 dy=0 dh=208 dv=0
PairPos2: "'kern' Horizontal Kerning in Arabic lookup 0 subtable" afii57410 dx=0 dy=0 dh=0 dv=0 dx=0 dy=0 dh=208 dv=0
PairPos2: "'kern' Horizontal Kerning in Arabic lookup 0 subtable" afii57415 dx=0 dy=0 dh=0 dv=0 dx=0 dy=0 dh=52 dv=0
EndChar

StartChar: N
Encoding: 78 78 49
Width: 1479
GlyphClass: 2
Flags: W
LayerCount: 2
Fore
SplineSet
23 39 m 1,0,1
 150 52 150 52 186 96 c 0,2,3
 222 141 222 141 222 302 c 2,4,-1
 222 1202 l 1,5,6
 191 1240 191 1240 170 1262.5 c 128,-1,7
 149 1285 149 1285 128.5 1296 c 128,-1,8
 108 1307 108 1307 84 1310.5 c 128,-1,9
 60 1314 60 1314 23 1315 c 1,10,-1
 23 1355 l 1,11,-1
 376 1355 l 1,12,-1
 1161 373 l 1,13,-1
 1161 1054 l 2,14,15
 1161 1220 1161 1220 1111 1272 c 0,16,17
 1080 1304 1080 1304 966 1315 c 1,18,-1
 966 1355 l 1,19,-1
 1448 1355 l 1,20,-1
 1448 1315 l 1,21,22
 1391 1309 1391 1309 1351.5 1294 c 128,-1,23
 1312 1279 1312 1279 1292 1258 c 0,24,25
 1253 1210 1253 1210 1253 1054 c 2,26,-1
 1253 -24 l 1,27,-1
 1216 -24 l 1,28,-1
 314 1095 l 1,29,-1
 314 302 l 2,30,31
 314 134 314 134 363 84 c 0,32,33
 396 51 396 51 505 39 c 1,34,-1
 505 0 l 1,35,-1
 23 0 l 1,36,-1
 23 39 l 1,0,1
EndSplineSet
Substitution2: "<17016,16016> Urdu Swash lookup 75 subtable" N
PairPos2: "'kern' Horizontal Kerning in Arabic lookup 0 subtable" afii57509 dx=0 dy=0 dh=0 dv=0 dx=0 dy=0 dh=260 dv=0
PairPos2: "'kern' Horizontal Kerning in Arabic lookup 0 subtable" uni06AB dx=0 dy=0 dh=0 dv=0 dx=0 dy=0 dh=260 dv=0
PairPos2: "'kern' Horizontal Kerning in Arabic lookup 0 subtable" uni06A9 dx=0 dy=0 dh=0 dv=0 dx=0 dy=0 dh=260 dv=0
PairPos2: "'kern' Horizontal Kerning in Arabic lookup 0 subtable" uniFB94 dx=0 dy=0 dh=0 dv=0 dx=0 dy=0 dh=260 dv=0
PairPos2: "'kern' Horizontal Kerning in Arabic lookup 0 subtable" uniFBD5 dx=0 dy=0 dh=0 dv=0 dx=0 dy=0 dh=260 dv=0
PairPos2: "'kern' Horizontal Kerning in Arabic lookup 0 subtable" uni06AB.ini dx=0 dy=0 dh=0 dv=0 dx=0 dy=0 dh=260 dv=0
PairPos2: "'kern' Horizontal Kerning in Arabic lookup 0 subtable" uniFB90 dx=0 dy=0 dh=0 dv=0 dx=0 dy=0 dh=260 dv=0
PairPos2: "'kern' Horizontal Kerning in Arabic lookup 0 subtable" uniFEDB dx=0 dy=0 dh=0 dv=0 dx=0 dy=0 dh=260 dv=0
PairPos2: "'kern' Horizontal Kerning in Arabic lookup 0 subtable" uni0671 dx=0 dy=0 dh=0 dv=0 dx=0 dy=0 dh=208 dv=0
PairPos2: "'kern' Horizontal Kerning in Arabic lookup 0 subtable" afii57410 dx=0 dy=0 dh=0 dv=0 dx=0 dy=0 dh=208 dv=0
PairPos2: "'kern' Horizontal Kerning in Arabic lookup 0 subtable" afii57415 dx=0 dy=0 dh=0 dv=0 dx=0 dy=0 dh=52 dv=0
EndChar

StartChar: O
Encoding: 79 79 50
Width: 1479
GlyphClass: 2
Flags: W
LayerCount: 2
Fore
SplineSet
732 47 m 0,0,1
 913 47 913 47 1040 197 c 0,2,3
 1168 349 1168 349 1168 677 c 0,4,5
 1168 1012 1168 1012 1039 1159 c 0,6,7
 908 1308 908 1308 732 1308 c 0,8,9
 549 1308 549 1308 421 1153 c 0,10,11
 295 1000 295 1000 295 677 c 0,12,13
 295 356 295 356 421 201 c 0,14,15
 548 47 548 47 732 47 c 0,0,1
267 1203 m 0,16,17
 454 1384 454 1384 732 1384 c 0,18,19
 875 1384 875 1384 997.5 1332 c 128,-1,20
 1120 1280 1120 1280 1210 1186 c 128,-1,21
 1300 1092 1300 1092 1351.5 962.5 c 128,-1,22
 1403 833 1403 833 1403 677 c 0,23,24
 1403 344 1403 344 1191 147 c 0,25,26
 1001 -29 1001 -29 732 -29 c 0,27,28
 443 -29 443 -29 254 166 c 0,29,30
 61 365 61 365 61 677 c 0,31,32
 61 1006 61 1006 267 1203 c 0,16,17
EndSplineSet
Substitution2: "<17016,16016> Urdu Swash lookup 75 subtable" O
PairPos2: "'kern' Horizontal Kerning in Arabic lookup 0 subtable" afii57509 dx=0 dy=0 dh=0 dv=0 dx=0 dy=0 dh=260 dv=0
PairPos2: "'kern' Horizontal Kerning in Arabic lookup 0 subtable" uni06AB dx=0 dy=0 dh=0 dv=0 dx=0 dy=0 dh=260 dv=0
PairPos2: "'kern' Horizontal Kerning in Arabic lookup 0 subtable" uni06A9 dx=0 dy=0 dh=0 dv=0 dx=0 dy=0 dh=260 dv=0
PairPos2: "'kern' Horizontal Kerning in Arabic lookup 0 subtable" uniFB94 dx=0 dy=0 dh=0 dv=0 dx=0 dy=0 dh=260 dv=0
PairPos2: "'kern' Horizontal Kerning in Arabic lookup 0 subtable" uniFBD5 dx=0 dy=0 dh=0 dv=0 dx=0 dy=0 dh=260 dv=0
PairPos2: "'kern' Horizontal Kerning in Arabic lookup 0 subtable" uni06AB.ini dx=0 dy=0 dh=0 dv=0 dx=0 dy=0 dh=260 dv=0
PairPos2: "'kern' Horizontal Kerning in Arabic lookup 0 subtable" uniFB90 dx=0 dy=0 dh=0 dv=0 dx=0 dy=0 dh=260 dv=0
PairPos2: "'kern' Horizontal Kerning in Arabic lookup 0 subtable" uniFEDB dx=0 dy=0 dh=0 dv=0 dx=0 dy=0 dh=260 dv=0
PairPos2: "'kern' Horizontal Kerning in Arabic lookup 0 subtable" uni0671 dx=0 dy=0 dh=0 dv=0 dx=0 dy=0 dh=208 dv=0
PairPos2: "'kern' Horizontal Kerning in Arabic lookup 0 subtable" afii57410 dx=0 dy=0 dh=0 dv=0 dx=0 dy=0 dh=208 dv=0
PairPos2: "'kern' Horizontal Kerning in Arabic lookup 0 subtable" afii57415 dx=0 dy=0 dh=0 dv=0 dx=0 dy=0 dh=52 dv=0
EndChar

StartChar: P
Encoding: 80 80 51
Width: 1139
GlyphClass: 2
Flags: W
LayerCount: 2
Fore
SplineSet
724 1239 m 0,0,1
 636 1277 636 1277 504 1277 c 0,2,3
 474 1277 474 1277 456 1275 c 128,-1,4
 438 1273 438 1273 428.5 1266 c 128,-1,5
 419 1259 419 1259 416 1245.5 c 128,-1,6
 413 1232 413 1232 413 1210 c 2,7,-1
 413 678 l 1,8,9
 441 676 441 676 457 674.5 c 128,-1,10
 473 673 473 673 483 672.5 c 128,-1,11
 493 672 493 672 500 671.5 c 128,-1,12
 507 671 507 671 517 671 c 0,13,14
 708 671 708 671 796.5 749 c 128,-1,15
 885 827 885 827 885 983 c 0,16,17
 885 1168 885 1168 724 1239 c 0,0,1
33 39 m 1,18,19
 148 49 148 49 179 85 c 0,20,21
 193 104 193 104 200.5 144.5 c 128,-1,22
 208 185 208 185 208 247 c 2,23,-1
 208 1132 l 2,24,25
 208 1185 208 1185 201.5 1218 c 128,-1,26
 195 1251 195 1251 176.5 1271.5 c 128,-1,27
 158 1292 158 1292 123.5 1301.5 c 128,-1,28
 89 1311 89 1311 33 1315 c 1,29,-1
 33 1355 l 1,30,-1
 573 1355 l 2,31,32
 704 1355 704 1355 804 1328.5 c 128,-1,33
 904 1302 904 1302 972 1253.5 c 128,-1,34
 1040 1205 1040 1205 1074.5 1137.5 c 128,-1,35
 1109 1070 1109 1070 1109 988 c 0,36,37
 1109 779 1109 779 956 684 c 0,38,39
 805 590 805 590 573 590 c 0,40,41
 561 590 561 590 541.5 590.5 c 128,-1,42
 522 591 522 591 500 591.5 c 128,-1,43
 478 592 478 592 455 592.5 c 128,-1,44
 432 593 432 593 413 593 c 1,45,-1
 413 223 l 2,46,47
 413 169 413 169 422.5 132 c 128,-1,48
 432 95 432 95 448 78 c 1,49,50
 467 64 467 64 507 54 c 128,-1,51
 547 44 547 44 607 39 c 1,52,-1
 607 0 l 1,53,-1
 33 0 l 1,54,-1
 33 39 l 1,18,19
EndSplineSet
Substitution2: "<17016,16016> Urdu Swash lookup 75 subtable" P
PairPos2: "'kern' Horizontal Kerning in Arabic lookup 0 subtable" afii57509 dx=0 dy=0 dh=0 dv=0 dx=0 dy=0 dh=260 dv=0
PairPos2: "'kern' Horizontal Kerning in Arabic lookup 0 subtable" uni06AB dx=0 dy=0 dh=0 dv=0 dx=0 dy=0 dh=260 dv=0
PairPos2: "'kern' Horizontal Kerning in Arabic lookup 0 subtable" uni06A9 dx=0 dy=0 dh=0 dv=0 dx=0 dy=0 dh=260 dv=0
PairPos2: "'kern' Horizontal Kerning in Arabic lookup 0 subtable" uniFB94 dx=0 dy=0 dh=0 dv=0 dx=0 dy=0 dh=260 dv=0
PairPos2: "'kern' Horizontal Kerning in Arabic lookup 0 subtable" uniFBD5 dx=0 dy=0 dh=0 dv=0 dx=0 dy=0 dh=260 dv=0
PairPos2: "'kern' Horizontal Kerning in Arabic lookup 0 subtable" uni06AB.ini dx=0 dy=0 dh=0 dv=0 dx=0 dy=0 dh=260 dv=0
PairPos2: "'kern' Horizontal Kerning in Arabic lookup 0 subtable" uniFB90 dx=0 dy=0 dh=0 dv=0 dx=0 dy=0 dh=260 dv=0
PairPos2: "'kern' Horizontal Kerning in Arabic lookup 0 subtable" uniFEDB dx=0 dy=0 dh=0 dv=0 dx=0 dy=0 dh=260 dv=0
PairPos2: "'kern' Horizontal Kerning in Arabic lookup 0 subtable" uni0671 dx=0 dy=0 dh=0 dv=0 dx=0 dy=0 dh=208 dv=0
PairPos2: "'kern' Horizontal Kerning in Arabic lookup 0 subtable" afii57410 dx=0 dy=0 dh=0 dv=0 dx=0 dy=0 dh=208 dv=0
PairPos2: "'kern' Horizontal Kerning in Arabic lookup 0 subtable" afii57415 dx=0 dy=0 dh=0 dv=0 dx=0 dy=0 dh=52 dv=0
EndChar

StartChar: Q
Encoding: 81 81 52
Width: 1479
GlyphClass: 2
Flags: W
LayerCount: 2
Fore
SplineSet
732 47 m 0,0,1
 913 47 913 47 1040 197 c 0,2,3
 1168 349 1168 349 1168 677 c 0,4,5
 1168 1012 1168 1012 1039 1159 c 0,6,7
 908 1308 908 1308 732 1308 c 0,8,9
 549 1308 549 1308 421 1153 c 0,10,11
 295 1000 295 1000 295 677 c 0,12,13
 295 356 295 356 421 201 c 0,14,15
 548 47 548 47 732 47 c 0,0,1
267 1203 m 0,16,17
 454 1384 454 1384 732 1384 c 0,18,19
 1004 1384 1004 1384 1194 1205 c 0,20,21
 1403 1010 1403 1010 1403 677 c 0,22,23
 1403 415 1403 415 1270 234 c 0,24,25
 1126 39 1126 39 864 -12 c 1,26,27
 926 -101 926 -101 1001 -164 c 128,-1,28
 1076 -227 1076 -227 1161 -264 c 0,29,30
 1209 -285 1209 -285 1278.5 -300.5 c 128,-1,31
 1348 -316 1348 -316 1429 -326 c 1,32,-1
 1429 -364 l 1,33,-1
 1344 -364 l 2,34,35
 1178 -364 1178 -364 1050 -337.5 c 128,-1,36
 922 -311 922 -311 817 -256 c 0,37,38
 709 -199 709 -199 621 -106 c 0,39,40
 530 -7 530 -7 523 -5 c 2,41,-1
 497 7 l 2,42,43
 412 46 412 46 346 92.5 c 128,-1,44
 280 139 280 139 234 187 c 0,45,46
 146 281 146 281 104 403 c 128,-1,47
 62 525 62 525 61 677 c 0,48,49
 61 1006 61 1006 267 1203 c 0,16,17
EndSplineSet
Substitution2: "<17016,16016> Urdu Swash lookup 75 subtable" Q
PairPos2: "'kern' Horizontal Kerning in Arabic lookup 0 subtable" afii57509 dx=0 dy=0 dh=0 dv=0 dx=0 dy=0 dh=260 dv=0
PairPos2: "'kern' Horizontal Kerning in Arabic lookup 0 subtable" uni06AB dx=0 dy=0 dh=0 dv=0 dx=0 dy=0 dh=260 dv=0
PairPos2: "'kern' Horizontal Kerning in Arabic lookup 0 subtable" uni06A9 dx=0 dy=0 dh=0 dv=0 dx=0 dy=0 dh=260 dv=0
PairPos2: "'kern' Horizontal Kerning in Arabic lookup 0 subtable" uniFB94 dx=0 dy=0 dh=0 dv=0 dx=0 dy=0 dh=260 dv=0
PairPos2: "'kern' Horizontal Kerning in Arabic lookup 0 subtable" uniFBD5 dx=0 dy=0 dh=0 dv=0 dx=0 dy=0 dh=260 dv=0
PairPos2: "'kern' Horizontal Kerning in Arabic lookup 0 subtable" uni06AB.ini dx=0 dy=0 dh=0 dv=0 dx=0 dy=0 dh=260 dv=0
PairPos2: "'kern' Horizontal Kerning in Arabic lookup 0 subtable" uniFB90 dx=0 dy=0 dh=0 dv=0 dx=0 dy=0 dh=260 dv=0
PairPos2: "'kern' Horizontal Kerning in Arabic lookup 0 subtable" uniFEDB dx=0 dy=0 dh=0 dv=0 dx=0 dy=0 dh=260 dv=0
PairPos2: "'kern' Horizontal Kerning in Arabic lookup 0 subtable" uni0671 dx=0 dy=0 dh=0 dv=0 dx=0 dy=0 dh=208 dv=0
PairPos2: "'kern' Horizontal Kerning in Arabic lookup 0 subtable" afii57410 dx=0 dy=0 dh=0 dv=0 dx=0 dy=0 dh=208 dv=0
PairPos2: "'kern' Horizontal Kerning in Arabic lookup 0 subtable" afii57415 dx=0 dy=0 dh=0 dv=0 dx=0 dy=0 dh=52 dv=0
EndChar

StartChar: R
Encoding: 82 82 53
Width: 1366
GlyphClass: 2
Flags: W
LayerCount: 2
Fore
SplineSet
723 748 m 0,0,1
 885 816 885 816 885 999 c 0,2,3
 885 1275 885 1275 533 1275 c 0,4,5
 490 1275 490 1275 465 1272.5 c 128,-1,6
 440 1270 440 1270 427 1262.5 c 128,-1,7
 414 1255 414 1255 411 1241.5 c 128,-1,8
 408 1228 408 1228 408 1205 c 2,9,-1
 408 702 l 1,10,11
 517 706 517 706 596.5 717.5 c 128,-1,12
 676 729 676 729 723 748 c 0,0,1
23 39 m 1,13,14
 82 44 82 44 118.5 56 c 128,-1,15
 155 68 155 68 170 85 c 0,16,17
 184 103 184 103 191.5 144 c 128,-1,18
 199 185 199 185 199 247 c 2,19,-1
 199 1132 l 2,20,21
 199 1186 199 1186 192.5 1219.5 c 128,-1,22
 186 1253 186 1253 167 1272.5 c 128,-1,23
 148 1292 148 1292 113.5 1301.5 c 128,-1,24
 79 1311 79 1311 23 1315 c 1,25,-1
 23 1355 l 1,26,-1
 590 1355 l 2,27,28
 848 1355 848 1355 978.5 1262 c 128,-1,29
 1109 1169 1109 1169 1109 997 c 0,30,31
 1109 919 1109 919 1083 860.5 c 128,-1,32
 1057 802 1057 802 1009 760 c 128,-1,33
 961 718 961 718 893 692 c 128,-1,34
 825 666 825 666 741 653 c 1,35,36
 745 648 745 648 764.5 624.5 c 128,-1,37
 784 601 784 601 813 565.5 c 128,-1,38
 842 530 842 530 878 485.5 c 128,-1,39
 914 441 914 441 951.5 395 c 128,-1,40
 989 349 989 349 1025 304.5 c 128,-1,41
 1061 260 1061 260 1090 224.5 c 128,-1,42
 1119 189 1119 189 1138 165.5 c 128,-1,43
 1157 142 1157 142 1161 137 c 0,44,45
 1199 91 1199 91 1239.5 68 c 128,-1,46
 1280 45 1280 45 1339 39 c 1,47,-1
 1339 0 l 1,48,-1
 1008 0 l 1,49,-1
 520 629 l 1,50,51
 493 628 493 628 464 626.5 c 128,-1,52
 435 625 435 625 408 624 c 1,53,-1
 408 223 l 2,54,55
 408 169 408 169 417 132.5 c 128,-1,56
 426 96 426 96 442 79 c 0,57,58
 479 50 479 50 593 39 c 1,59,-1
 593 0 l 1,60,-1
 23 0 l 1,61,-1
 23 39 l 1,13,14
EndSplineSet
Substitution2: "<17016,16016> Urdu Swash lookup 75 subtable" R
PairPos2: "'kern' Horizontal Kerning in Arabic lookup 0 subtable" afii57509 dx=0 dy=0 dh=0 dv=0 dx=0 dy=0 dh=260 dv=0
PairPos2: "'kern' Horizontal Kerning in Arabic lookup 0 subtable" uni06AB dx=0 dy=0 dh=0 dv=0 dx=0 dy=0 dh=260 dv=0
PairPos2: "'kern' Horizontal Kerning in Arabic lookup 0 subtable" uni06A9 dx=0 dy=0 dh=0 dv=0 dx=0 dy=0 dh=260 dv=0
PairPos2: "'kern' Horizontal Kerning in Arabic lookup 0 subtable" uniFB94 dx=0 dy=0 dh=0 dv=0 dx=0 dy=0 dh=260 dv=0
PairPos2: "'kern' Horizontal Kerning in Arabic lookup 0 subtable" uniFBD5 dx=0 dy=0 dh=0 dv=0 dx=0 dy=0 dh=260 dv=0
PairPos2: "'kern' Horizontal Kerning in Arabic lookup 0 subtable" uni06AB.ini dx=0 dy=0 dh=0 dv=0 dx=0 dy=0 dh=260 dv=0
PairPos2: "'kern' Horizontal Kerning in Arabic lookup 0 subtable" uniFB90 dx=0 dy=0 dh=0 dv=0 dx=0 dy=0 dh=260 dv=0
PairPos2: "'kern' Horizontal Kerning in Arabic lookup 0 subtable" uniFEDB dx=0 dy=0 dh=0 dv=0 dx=0 dy=0 dh=260 dv=0
PairPos2: "'kern' Horizontal Kerning in Arabic lookup 0 subtable" uni0671 dx=0 dy=0 dh=0 dv=0 dx=0 dy=0 dh=208 dv=0
PairPos2: "'kern' Horizontal Kerning in Arabic lookup 0 subtable" afii57410 dx=0 dy=0 dh=0 dv=0 dx=0 dy=0 dh=208 dv=0
PairPos2: "'kern' Horizontal Kerning in Arabic lookup 0 subtable" afii57415 dx=0 dy=0 dh=0 dv=0 dx=0 dy=0 dh=52 dv=0
EndChar

StartChar: S
Encoding: 83 83 54
Width: 1139
GlyphClass: 2
Flags: W
LayerCount: 2
Fore
SplineSet
134 413 m 1,0,1
 160 344 160 344 190 290 c 128,-1,2
 220 236 220 236 255 194 c 0,3,4
 377 51 377 51 557 51 c 0,5,6
 605 51 605 51 648.5 67 c 128,-1,7
 692 83 692 83 725 113 c 128,-1,8
 758 143 758 143 777.5 186.5 c 128,-1,9
 797 230 797 230 797 285 c 0,10,11
 797 385 797 385 725 457 c 0,12,13
 709 474 709 474 670.5 501 c 128,-1,14
 632 528 632 528 581 562 c 128,-1,15
 530 596 530 596 470.5 633.5 c 128,-1,16
 411 671 411 671 352 707 c 0,17,18
 241 776 241 776 190.5 853.5 c 128,-1,19
 140 931 140 931 140 1023 c 0,20,21
 140 1100 140 1100 167 1166 c 128,-1,22
 194 1232 194 1232 243 1280.5 c 128,-1,23
 292 1329 292 1329 361.5 1356.5 c 128,-1,24
 431 1384 431 1384 516 1384 c 0,25,26
 585 1384 585 1384 684 1349 c 0,27,28
 782 1315 782 1315 797 1315 c 0,29,30
 816 1315 816 1315 828 1319.5 c 128,-1,31
 840 1324 840 1324 848.5 1333 c 128,-1,32
 857 1342 857 1342 862 1355 c 128,-1,33
 867 1368 867 1368 871 1384 c 1,34,-1
 914 1384 l 1,35,-1
 959 947 l 1,36,-1
 908 947 l 1,37,38
 860 1142 860 1142 748 1221 c 0,39,40
 639 1299 639 1299 531 1299 c 0,41,42
 491 1299 491 1299 453 1286 c 128,-1,43
 415 1273 415 1273 386.5 1249 c 128,-1,44
 358 1225 358 1225 340.5 1190.5 c 128,-1,45
 323 1156 323 1156 323 1113 c 0,46,47
 323 1074 323 1074 335 1041.5 c 128,-1,48
 347 1009 347 1009 371.5 979 c 128,-1,49
 396 949 396 949 433 920.5 c 128,-1,50
 470 892 470 892 520 861 c 2,51,-1
 700 750 l 2,52,53
 782 699 782 699 843 650.5 c 128,-1,54
 904 602 904 602 937 559 c 0,55,56
 1005 470 1005 470 1005 351 c 0,57,58
 1005 271 1005 271 972.5 202 c 128,-1,59
 940 133 940 133 882.5 82 c 128,-1,60
 825 31 825 31 746 2 c 128,-1,61
 667 -27 667 -27 573 -27 c 0,62,63
 478 -27 478 -27 374 9 c 0,64,65
 271 45 271 45 256 45 c 0,66,67
 238 45 238 45 226.5 39 c 128,-1,68
 215 33 215 33 208 23 c 128,-1,69
 201 13 201 13 197.5 0.5 c 128,-1,70
 194 -12 194 -12 192 -24 c 1,71,-1
 146 -24 l 1,72,-1
 85 413 l 1,73,-1
 134 413 l 1,0,1
EndSplineSet
Substitution2: "<17016,16016> Urdu Swash lookup 75 subtable" S
PairPos2: "'kern' Horizontal Kerning in Arabic lookup 0 subtable" afii57509 dx=0 dy=0 dh=0 dv=0 dx=0 dy=0 dh=260 dv=0
PairPos2: "'kern' Horizontal Kerning in Arabic lookup 0 subtable" uni06AB dx=0 dy=0 dh=0 dv=0 dx=0 dy=0 dh=260 dv=0
PairPos2: "'kern' Horizontal Kerning in Arabic lookup 0 subtable" uni06A9 dx=0 dy=0 dh=0 dv=0 dx=0 dy=0 dh=260 dv=0
PairPos2: "'kern' Horizontal Kerning in Arabic lookup 0 subtable" uniFB94 dx=0 dy=0 dh=0 dv=0 dx=0 dy=0 dh=260 dv=0
PairPos2: "'kern' Horizontal Kerning in Arabic lookup 0 subtable" uniFBD5 dx=0 dy=0 dh=0 dv=0 dx=0 dy=0 dh=260 dv=0
PairPos2: "'kern' Horizontal Kerning in Arabic lookup 0 subtable" uni06AB.ini dx=0 dy=0 dh=0 dv=0 dx=0 dy=0 dh=260 dv=0
PairPos2: "'kern' Horizontal Kerning in Arabic lookup 0 subtable" uniFB90 dx=0 dy=0 dh=0 dv=0 dx=0 dy=0 dh=260 dv=0
PairPos2: "'kern' Horizontal Kerning in Arabic lookup 0 subtable" uniFEDB dx=0 dy=0 dh=0 dv=0 dx=0 dy=0 dh=260 dv=0
PairPos2: "'kern' Horizontal Kerning in Arabic lookup 0 subtable" uni0671 dx=0 dy=0 dh=0 dv=0 dx=0 dy=0 dh=208 dv=0
PairPos2: "'kern' Horizontal Kerning in Arabic lookup 0 subtable" afii57410 dx=0 dy=0 dh=0 dv=0 dx=0 dy=0 dh=208 dv=0
PairPos2: "'kern' Horizontal Kerning in Arabic lookup 0 subtable" afii57415 dx=0 dy=0 dh=0 dv=0 dx=0 dy=0 dh=52 dv=0
EndChar

StartChar: T
Encoding: 84 84 55
Width: 1251
GlyphClass: 2
Flags: W
LayerCount: 2
Fore
SplineSet
28 1355 m 1,0,-1
 1197 1355 l 1,1,-1
 1197 1006 l 1,2,-1
 1157 1006 l 1,3,4
 1121 1168 1121 1168 1065 1218 c 256,5,6
 1009 1268 1009 1268 834 1268 c 2,7,-1
 721 1268 l 1,8,-1
 721 223 l 2,9,10
 721 107 721 107 758 76 c 1,11,12
 798 48 798 48 920 39 c 1,13,-1
 920 0 l 1,14,-1
 321 0 l 1,15,-1
 321 39 l 1,16,17
 452 50 452 50 483 82 c 0,18,19
 515 116 515 116 515 247 c 2,20,-1
 515 1268 l 1,21,-1
 402 1268 l 2,22,23
 233 1268 233 1268 172 1219 c 0,24,25
 112 1170 112 1170 80 1006 c 1,26,-1
 28 1006 l 1,27,-1
 28 1355 l 1,0,-1
EndSplineSet
Substitution2: "<17016,16016> Urdu Swash lookup 75 subtable" T
PairPos2: "'kern' Horizontal Kerning in Arabic lookup 0 subtable" afii57509 dx=0 dy=0 dh=0 dv=0 dx=0 dy=0 dh=260 dv=0
PairPos2: "'kern' Horizontal Kerning in Arabic lookup 0 subtable" uni06AB dx=0 dy=0 dh=0 dv=0 dx=0 dy=0 dh=260 dv=0
PairPos2: "'kern' Horizontal Kerning in Arabic lookup 0 subtable" uni06A9 dx=0 dy=0 dh=0 dv=0 dx=0 dy=0 dh=260 dv=0
PairPos2: "'kern' Horizontal Kerning in Arabic lookup 0 subtable" uniFB94 dx=0 dy=0 dh=0 dv=0 dx=0 dy=0 dh=260 dv=0
PairPos2: "'kern' Horizontal Kerning in Arabic lookup 0 subtable" uniFBD5 dx=0 dy=0 dh=0 dv=0 dx=0 dy=0 dh=260 dv=0
PairPos2: "'kern' Horizontal Kerning in Arabic lookup 0 subtable" uni06AB.ini dx=0 dy=0 dh=0 dv=0 dx=0 dy=0 dh=260 dv=0
PairPos2: "'kern' Horizontal Kerning in Arabic lookup 0 subtable" uniFB90 dx=0 dy=0 dh=0 dv=0 dx=0 dy=0 dh=260 dv=0
PairPos2: "'kern' Horizontal Kerning in Arabic lookup 0 subtable" uniFEDB dx=0 dy=0 dh=0 dv=0 dx=0 dy=0 dh=260 dv=0
PairPos2: "'kern' Horizontal Kerning in Arabic lookup 0 subtable" uni0671 dx=0 dy=0 dh=0 dv=0 dx=0 dy=0 dh=208 dv=0
PairPos2: "'kern' Horizontal Kerning in Arabic lookup 0 subtable" afii57410 dx=0 dy=0 dh=0 dv=0 dx=0 dy=0 dh=208 dv=0
PairPos2: "'kern' Horizontal Kerning in Arabic lookup 0 subtable" afii57415 dx=0 dy=0 dh=0 dv=0 dx=0 dy=0 dh=52 dv=0
EndChar

StartChar: U
Encoding: 85 85 56
Width: 1479
GlyphClass: 2
Flags: W
LayerCount: 2
Fore
SplineSet
610 1355 m 1,0,-1
 610 1315 l 1,1,2
 493 1308 493 1308 457 1275 c 0,3,4
 422 1243 422 1243 422 1132 c 2,5,-1
 422 478 l 2,6,7
 422 400 422 400 433.5 336.5 c 128,-1,8
 445 273 445 273 466 228 c 0,9,10
 508 150 508 150 586 107.5 c 128,-1,11
 664 65 664 65 776 65 c 0,12,13
 1027 65 1027 65 1111 232 c 0,14,15
 1159 327 1159 327 1159 521 c 2,16,-1
 1159 1054 l 2,17,18
 1159 1220 1159 1220 1119 1261 c 0,19,20
 1099 1283 1099 1283 1062.5 1297 c 128,-1,21
 1026 1311 1026 1311 968 1315 c 1,22,-1
 968 1355 l 1,23,-1
 1443 1355 l 1,24,-1
 1443 1315 l 1,25,26
 1386 1308 1386 1308 1346 1294 c 128,-1,27
 1306 1280 1306 1280 1287 1257 c 0,28,29
 1251 1212 1251 1212 1251 1054 c 2,30,-1
 1251 521 l 2,31,32
 1251 376 1251 376 1218.5 272 c 128,-1,33
 1186 168 1186 168 1120.5 101 c 128,-1,34
 1055 34 1055 34 957.5 2.5 c 128,-1,35
 860 -29 860 -29 730 -29 c 0,36,37
 474 -29 474 -29 343.5 101.5 c 128,-1,38
 213 232 213 232 213 493 c 2,39,-1
 213 1132 l 2,40,41
 213 1242 213 1242 178 1274 c 256,42,43
 143 1306 143 1306 28 1315 c 1,44,-1
 28 1355 l 1,45,-1
 610 1355 l 1,0,-1
EndSplineSet
Substitution2: "<17016,16016> Urdu Swash lookup 75 subtable" U
PairPos2: "'kern' Horizontal Kerning in Arabic lookup 0 subtable" afii57509 dx=0 dy=0 dh=0 dv=0 dx=0 dy=0 dh=260 dv=0
PairPos2: "'kern' Horizontal Kerning in Arabic lookup 0 subtable" uni06AB dx=0 dy=0 dh=0 dv=0 dx=0 dy=0 dh=260 dv=0
PairPos2: "'kern' Horizontal Kerning in Arabic lookup 0 subtable" uni06A9 dx=0 dy=0 dh=0 dv=0 dx=0 dy=0 dh=260 dv=0
PairPos2: "'kern' Horizontal Kerning in Arabic lookup 0 subtable" uniFB94 dx=0 dy=0 dh=0 dv=0 dx=0 dy=0 dh=260 dv=0
PairPos2: "'kern' Horizontal Kerning in Arabic lookup 0 subtable" uniFBD5 dx=0 dy=0 dh=0 dv=0 dx=0 dy=0 dh=260 dv=0
PairPos2: "'kern' Horizontal Kerning in Arabic lookup 0 subtable" uni06AB.ini dx=0 dy=0 dh=0 dv=0 dx=0 dy=0 dh=260 dv=0
PairPos2: "'kern' Horizontal Kerning in Arabic lookup 0 subtable" uniFB90 dx=0 dy=0 dh=0 dv=0 dx=0 dy=0 dh=260 dv=0
PairPos2: "'kern' Horizontal Kerning in Arabic lookup 0 subtable" uniFEDB dx=0 dy=0 dh=0 dv=0 dx=0 dy=0 dh=260 dv=0
PairPos2: "'kern' Horizontal Kerning in Arabic lookup 0 subtable" uni0671 dx=0 dy=0 dh=0 dv=0 dx=0 dy=0 dh=208 dv=0
PairPos2: "'kern' Horizontal Kerning in Arabic lookup 0 subtable" afii57410 dx=0 dy=0 dh=0 dv=0 dx=0 dy=0 dh=208 dv=0
PairPos2: "'kern' Horizontal Kerning in Arabic lookup 0 subtable" afii57415 dx=0 dy=0 dh=0 dv=0 dx=0 dy=0 dh=52 dv=0
EndChar

StartChar: V
Encoding: 86 86 57
Width: 1479
GlyphClass: 2
Flags: W
LayerCount: 2
Fore
SplineSet
579 1355 m 1,0,-1
 579 1315 l 1,1,2
 534 1314 534 1314 504.5 1310.5 c 128,-1,3
 475 1307 475 1307 457 1298 c 128,-1,4
 439 1289 439 1289 432 1275 c 128,-1,5
 425 1261 425 1261 425 1239 c 0,6,7
 425 1224 425 1224 429.5 1206.5 c 128,-1,8
 434 1189 434 1189 444 1164 c 128,-1,9
 454 1139 454 1139 470 1105 c 128,-1,10
 486 1071 486 1071 508 1021 c 2,11,-1
 827 311 l 1,12,13
 834 328 834 328 848.5 366.5 c 128,-1,14
 863 405 863 405 882.5 457 c 128,-1,15
 902 509 902 509 925 570.5 c 128,-1,16
 948 632 948 632 972 695 c 128,-1,17
 996 758 996 758 1019 819.5 c 128,-1,18
 1042 881 1042 881 1061.5 933 c 128,-1,19
 1081 985 1081 985 1095.5 1023.5 c 128,-1,20
 1110 1062 1110 1062 1116 1079 c 0,21,22
 1134 1128 1134 1128 1144.5 1164.5 c 128,-1,23
 1155 1201 1155 1201 1155 1222 c 0,24,25
 1155 1270 1155 1270 1122.5 1292 c 128,-1,26
 1090 1314 1090 1314 1006 1315 c 1,27,-1
 1006 1355 l 1,28,-1
 1426 1355 l 1,29,-1
 1426 1318 l 1,30,31
 1387 1312 1387 1312 1360 1300.5 c 128,-1,32
 1333 1289 1333 1289 1312.5 1267 c 128,-1,33
 1292 1245 1292 1245 1275 1211 c 128,-1,34
 1258 1177 1258 1177 1237 1127 c 2,35,-1
 785 -24 l 1,36,-1
 752 -24 l 1,37,-1
 248 1101 l 2,38,39
 218 1169 218 1169 191.5 1215 c 128,-1,40
 165 1261 165 1261 145 1278 c 0,41,42
 106 1314 106 1314 33 1318 c 1,43,-1
 33 1355 l 1,44,-1
 579 1355 l 1,0,-1
EndSplineSet
Substitution2: "<17016,16016> Urdu Swash lookup 75 subtable" V
PairPos2: "'kern' Horizontal Kerning in Arabic lookup 0 subtable" afii57509 dx=0 dy=0 dh=0 dv=0 dx=0 dy=0 dh=260 dv=0
PairPos2: "'kern' Horizontal Kerning in Arabic lookup 0 subtable" uni06AB dx=0 dy=0 dh=0 dv=0 dx=0 dy=0 dh=260 dv=0
PairPos2: "'kern' Horizontal Kerning in Arabic lookup 0 subtable" uni06A9 dx=0 dy=0 dh=0 dv=0 dx=0 dy=0 dh=260 dv=0
PairPos2: "'kern' Horizontal Kerning in Arabic lookup 0 subtable" uniFB94 dx=0 dy=0 dh=0 dv=0 dx=0 dy=0 dh=260 dv=0
PairPos2: "'kern' Horizontal Kerning in Arabic lookup 0 subtable" uniFBD5 dx=0 dy=0 dh=0 dv=0 dx=0 dy=0 dh=260 dv=0
PairPos2: "'kern' Horizontal Kerning in Arabic lookup 0 subtable" uni06AB.ini dx=0 dy=0 dh=0 dv=0 dx=0 dy=0 dh=260 dv=0
PairPos2: "'kern' Horizontal Kerning in Arabic lookup 0 subtable" uniFB90 dx=0 dy=0 dh=0 dv=0 dx=0 dy=0 dh=260 dv=0
PairPos2: "'kern' Horizontal Kerning in Arabic lookup 0 subtable" uniFEDB dx=0 dy=0 dh=0 dv=0 dx=0 dy=0 dh=260 dv=0
PairPos2: "'kern' Horizontal Kerning in Arabic lookup 0 subtable" uni0671 dx=0 dy=0 dh=0 dv=0 dx=0 dy=0 dh=208 dv=0
PairPos2: "'kern' Horizontal Kerning in Arabic lookup 0 subtable" afii57410 dx=0 dy=0 dh=0 dv=0 dx=0 dy=0 dh=208 dv=0
PairPos2: "'kern' Horizontal Kerning in Arabic lookup 0 subtable" afii57415 dx=0 dy=0 dh=0 dv=0 dx=0 dy=0 dh=52 dv=0
EndChar

StartChar: W
Encoding: 87 87 58
Width: 1933
GlyphClass: 2
Flags: W
LayerCount: 2
Fore
SplineSet
513 1355 m 1,0,-1
 513 1315 l 1,1,2
 439 1314 439 1314 409.5 1297 c 128,-1,3
 380 1280 380 1280 380 1243 c 0,4,5
 380 1223 380 1223 386 1202.5 c 128,-1,6
 392 1182 392 1182 402 1155 c 0,7,8
 474 965 474 965 549.5 772.5 c 128,-1,9
 625 580 625 580 696 389 c 1,10,11
 750 533 750 533 804.5 676.5 c 128,-1,12
 859 820 859 820 913 964 c 1,13,14
 910 972 910 972 902.5 991 c 128,-1,15
 895 1010 895 1010 885 1035 c 128,-1,16
 875 1060 875 1060 864.5 1087.5 c 128,-1,17
 854 1115 854 1115 844 1140 c 128,-1,18
 834 1165 834 1165 826.5 1184 c 128,-1,19
 819 1203 819 1203 816 1210 c 0,20,21
 805 1239 805 1239 791 1258.5 c 128,-1,22
 777 1278 777 1278 756.5 1290 c 128,-1,23
 736 1302 736 1302 707.5 1308 c 128,-1,24
 679 1314 679 1314 638 1315 c 1,25,-1
 638 1355 l 1,26,-1
 1188 1355 l 1,27,-1
 1188 1315 l 1,28,29
 1141 1314 1141 1314 1111.5 1310 c 128,-1,30
 1082 1306 1082 1306 1065 1297 c 128,-1,31
 1048 1288 1048 1288 1042 1273 c 128,-1,32
 1036 1258 1036 1258 1036 1235 c 0,33,34
 1036 1225 1036 1225 1036.5 1218.5 c 128,-1,35
 1037 1212 1037 1212 1039.5 1203.5 c 128,-1,36
 1042 1195 1042 1195 1046.5 1182.5 c 128,-1,37
 1051 1170 1051 1170 1060 1148 c 2,38,-1
 1354 384 l 2,39,40
 1356 389 1356 389 1367.5 420.5 c 128,-1,41
 1379 452 1379 452 1396.5 500 c 128,-1,42
 1414 548 1414 548 1436.5 608 c 128,-1,43
 1459 668 1459 668 1481.5 730 c 128,-1,44
 1504 792 1504 792 1526.5 852 c 128,-1,45
 1549 912 1549 912 1566.5 959.5 c 128,-1,46
 1584 1007 1584 1007 1595.5 1038.5 c 128,-1,47
 1607 1070 1607 1070 1609 1075 c 0,48,49
 1626 1120 1626 1120 1635 1159.5 c 128,-1,50
 1644 1199 1644 1199 1644 1222 c 0,51,52
 1644 1267 1644 1267 1611 1290 c 128,-1,53
 1578 1313 1578 1313 1500 1315 c 1,54,-1
 1500 1355 l 1,55,-1
 1908 1355 l 1,56,-1
 1908 1315 l 1,57,58
 1873 1311 1873 1311 1847.5 1301.5 c 128,-1,59
 1822 1292 1822 1292 1803 1277 c 128,-1,60
 1784 1262 1784 1262 1770.5 1240.5 c 128,-1,61
 1757 1219 1757 1219 1746 1191 c 0,62,63
 1691 1039 1691 1039 1637.5 887.5 c 128,-1,64
 1584 736 1584 736 1528 583 c 2,65,-1
 1443 349 l 2,66,67
 1429 307 1429 307 1413.5 259 c 128,-1,68
 1398 211 1398 211 1381.5 162.5 c 128,-1,69
 1365 114 1365 114 1349.5 66 c 128,-1,70
 1334 18 1334 18 1320 -24 c 1,71,-1
 1288 -24 l 1,72,-1
 1205 214 l 1,73,74
 1145 369 1145 369 1083.5 526.5 c 128,-1,75
 1022 684 1022 684 962 840 c 1,76,77
 883 623 883 623 805 408 c 128,-1,78
 727 193 727 193 648 -24 c 1,79,-1
 615 -24 l 1,80,-1
 469 402 l 2,81,82
 464 416 464 416 450.5 453 c 128,-1,83
 437 490 437 490 419.5 538.5 c 128,-1,84
 402 587 402 587 382 641.5 c 128,-1,85
 362 696 362 696 344 744.5 c 128,-1,86
 326 793 326 793 312 830 c 128,-1,87
 298 867 298 867 293 881 c 0,88,89
 239 1028 239 1028 201.5 1117.5 c 128,-1,90
 164 1207 164 1207 141 1242 c 0,91,92
 98 1311 98 1311 9 1315 c 1,93,-1
 9 1355 l 1,94,-1
 513 1355 l 1,0,-1
EndSplineSet
Substitution2: "<17016,16016> Urdu Swash lookup 75 subtable" W
PairPos2: "'kern' Horizontal Kerning in Arabic lookup 0 subtable" afii57509 dx=0 dy=0 dh=0 dv=0 dx=0 dy=0 dh=260 dv=0
PairPos2: "'kern' Horizontal Kerning in Arabic lookup 0 subtable" uni06AB dx=0 dy=0 dh=0 dv=0 dx=0 dy=0 dh=260 dv=0
PairPos2: "'kern' Horizontal Kerning in Arabic lookup 0 subtable" uni06A9 dx=0 dy=0 dh=0 dv=0 dx=0 dy=0 dh=260 dv=0
PairPos2: "'kern' Horizontal Kerning in Arabic lookup 0 subtable" uniFB94 dx=0 dy=0 dh=0 dv=0 dx=0 dy=0 dh=260 dv=0
PairPos2: "'kern' Horizontal Kerning in Arabic lookup 0 subtable" uniFBD5 dx=0 dy=0 dh=0 dv=0 dx=0 dy=0 dh=260 dv=0
PairPos2: "'kern' Horizontal Kerning in Arabic lookup 0 subtable" uni06AB.ini dx=0 dy=0 dh=0 dv=0 dx=0 dy=0 dh=260 dv=0
PairPos2: "'kern' Horizontal Kerning in Arabic lookup 0 subtable" uniFB90 dx=0 dy=0 dh=0 dv=0 dx=0 dy=0 dh=260 dv=0
PairPos2: "'kern' Horizontal Kerning in Arabic lookup 0 subtable" uniFEDB dx=0 dy=0 dh=0 dv=0 dx=0 dy=0 dh=260 dv=0
PairPos2: "'kern' Horizontal Kerning in Arabic lookup 0 subtable" uni0671 dx=0 dy=0 dh=0 dv=0 dx=0 dy=0 dh=208 dv=0
PairPos2: "'kern' Horizontal Kerning in Arabic lookup 0 subtable" afii57410 dx=0 dy=0 dh=0 dv=0 dx=0 dy=0 dh=208 dv=0
PairPos2: "'kern' Horizontal Kerning in Arabic lookup 0 subtable" afii57415 dx=0 dy=0 dh=0 dv=0 dx=0 dy=0 dh=52 dv=0
EndChar

StartChar: X
Encoding: 88 88 59
Width: 1479
GlyphClass: 2
Flags: W
LayerCount: 2
Fore
SplineSet
21 39 m 1,0,1
 62 44 62 44 94 55 c 128,-1,2
 126 66 126 66 147 83 c 0,3,4
 170 102 170 102 213 150.5 c 128,-1,5
 256 199 256 199 317 274 c 0,6,7
 395 370 395 370 476 470 c 128,-1,8
 557 570 557 570 635 666 c 1,9,10
 580 746 580 746 522 830 c 128,-1,11
 464 914 464 914 409 994 c 0,12,13
 337 1098 337 1098 285 1165 c 128,-1,14
 233 1232 233 1232 203 1258 c 0,15,16
 145 1310 145 1310 45 1315 c 1,17,-1
 45 1355 l 1,18,-1
 664 1355 l 1,19,-1
 664 1315 l 1,20,21
 574 1312 574 1312 547 1303 c 0,22,23
 507 1289 507 1289 507 1247 c 0,24,25
 507 1224 507 1224 518 1198.5 c 128,-1,26
 529 1173 529 1173 555 1135 c 2,27,-1
 767 829 l 1,28,29
 774 837 774 837 791.5 858.5 c 128,-1,30
 809 880 809 880 833 908.5 c 128,-1,31
 857 937 857 937 883 969 c 128,-1,32
 909 1001 909 1001 933 1029.5 c 128,-1,33
 957 1058 957 1058 974.5 1079.5 c 128,-1,34
 992 1101 992 1101 999 1109 c 0,35,36
 1043 1161 1043 1161 1061 1192 c 128,-1,37
 1079 1223 1079 1223 1079 1246 c 0,38,39
 1079 1265 1079 1265 1072.5 1278 c 128,-1,40
 1066 1291 1066 1291 1049.5 1299 c 128,-1,41
 1033 1307 1033 1307 1006 1310.5 c 128,-1,42
 979 1314 979 1314 937 1315 c 1,43,-1
 937 1355 l 1,44,-1
 1424 1355 l 1,45,-1
 1424 1315 l 1,46,47
 1383 1314 1383 1314 1351 1308 c 128,-1,48
 1319 1302 1319 1302 1296 1289 c 0,49,50
 1262 1270 1262 1270 1217 1227 c 128,-1,51
 1172 1184 1172 1184 1121 1121 c 2,52,-1
 822 753 l 1,53,54
 825 748 825 748 843 722.5 c 128,-1,55
 861 697 861 697 888 658 c 128,-1,56
 915 619 915 619 949 570.5 c 128,-1,57
 983 522 983 522 1017.5 472 c 128,-1,58
 1052 422 1052 422 1086 373.5 c 128,-1,59
 1120 325 1120 325 1147 286 c 128,-1,60
 1174 247 1174 247 1192 221.5 c 128,-1,61
 1210 196 1210 196 1213 191 c 0,62,63
 1275 101 1275 101 1318 75 c 1,64,-1
 1317 75 l 1,65,66
 1359 51 1359 51 1441 39 c 1,67,-1
 1441 0 l 1,68,-1
 833 0 l 1,69,-1
 833 42 l 1,70,71
 920 44 920 44 954.5 57 c 128,-1,72
 989 70 989 70 989 106 c 0,73,74
 989 138 989 138 943 211 c 0,75,76
 920 248 920 248 857 341.5 c 128,-1,77
 794 435 794 435 689 590 c 1,78,79
 683 582 683 582 658 550.5 c 128,-1,80
 633 519 633 519 599 475.5 c 128,-1,81
 565 432 565 432 526.5 383.5 c 128,-1,82
 488 335 488 335 455 293 c 128,-1,83
 422 251 422 251 399.5 221.5 c 128,-1,84
 377 192 377 192 374 188 c 0,85,86
 342 138 342 138 342 116 c 0,87,88
 342 79 342 79 376.5 61.5 c 128,-1,89
 411 44 411 44 498 39 c 1,90,-1
 498 0 l 1,91,-1
 21 0 l 1,92,-1
 21 39 l 1,0,1
EndSplineSet
Substitution2: "<17016,16016> Urdu Swash lookup 75 subtable" X
PairPos2: "'kern' Horizontal Kerning in Arabic lookup 0 subtable" afii57509 dx=0 dy=0 dh=0 dv=0 dx=0 dy=0 dh=260 dv=0
PairPos2: "'kern' Horizontal Kerning in Arabic lookup 0 subtable" uni06AB dx=0 dy=0 dh=0 dv=0 dx=0 dy=0 dh=260 dv=0
PairPos2: "'kern' Horizontal Kerning in Arabic lookup 0 subtable" uni06A9 dx=0 dy=0 dh=0 dv=0 dx=0 dy=0 dh=260 dv=0
PairPos2: "'kern' Horizontal Kerning in Arabic lookup 0 subtable" uniFB94 dx=0 dy=0 dh=0 dv=0 dx=0 dy=0 dh=260 dv=0
PairPos2: "'kern' Horizontal Kerning in Arabic lookup 0 subtable" uniFBD5 dx=0 dy=0 dh=0 dv=0 dx=0 dy=0 dh=260 dv=0
PairPos2: "'kern' Horizontal Kerning in Arabic lookup 0 subtable" uni06AB.ini dx=0 dy=0 dh=0 dv=0 dx=0 dy=0 dh=260 dv=0
PairPos2: "'kern' Horizontal Kerning in Arabic lookup 0 subtable" uniFB90 dx=0 dy=0 dh=0 dv=0 dx=0 dy=0 dh=260 dv=0
PairPos2: "'kern' Horizontal Kerning in Arabic lookup 0 subtable" uniFEDB dx=0 dy=0 dh=0 dv=0 dx=0 dy=0 dh=260 dv=0
PairPos2: "'kern' Horizontal Kerning in Arabic lookup 0 subtable" uni0671 dx=0 dy=0 dh=0 dv=0 dx=0 dy=0 dh=208 dv=0
PairPos2: "'kern' Horizontal Kerning in Arabic lookup 0 subtable" afii57410 dx=0 dy=0 dh=0 dv=0 dx=0 dy=0 dh=208 dv=0
PairPos2: "'kern' Horizontal Kerning in Arabic lookup 0 subtable" afii57415 dx=0 dy=0 dh=0 dv=0 dx=0 dy=0 dh=52 dv=0
EndChar

StartChar: Y
Encoding: 89 89 60
Width: 1479
GlyphClass: 2
Flags: W
LayerCount: 2
Fore
SplineSet
619 1355 m 1,0,-1
 619 1315 l 1,1,2
 613 1315 613 1315 607 1315.5 c 128,-1,3
 601 1316 601 1316 595 1316 c 0,4,5
 535 1316 535 1316 505 1301.5 c 128,-1,6
 475 1287 475 1287 475 1249 c 0,7,8
 475 1238 475 1238 482.5 1216.5 c 128,-1,9
 490 1195 490 1195 508 1166 c 0,10,11
 583 1054 583 1054 659 940 c 128,-1,12
 735 826 735 826 810 714 c 1,13,14
 819 728 819 728 841.5 763.5 c 128,-1,15
 864 799 864 799 893.5 845.5 c 128,-1,16
 923 892 923 892 956 944 c 128,-1,17
 989 996 989 996 1018.5 1042 c 128,-1,18
 1048 1088 1048 1088 1070.5 1123.5 c 128,-1,19
 1093 1159 1093 1159 1102 1173 c 0,20,21
 1120 1202 1120 1202 1125.5 1220.5 c 128,-1,22
 1131 1239 1131 1239 1131 1248 c 0,23,24
 1131 1267 1131 1267 1124 1279.5 c 128,-1,25
 1117 1292 1117 1292 1100.5 1299.5 c 128,-1,26
 1084 1307 1084 1307 1057 1310.5 c 128,-1,27
 1030 1314 1030 1314 989 1315 c 1,28,-1
 989 1355 l 1,29,-1
 1438 1355 l 1,30,-1
 1438 1315 l 1,31,32
 1400 1313 1400 1313 1366 1299 c 128,-1,33
 1332 1285 1332 1285 1298.5 1257 c 128,-1,34
 1265 1229 1265 1229 1230.5 1185.5 c 128,-1,35
 1196 1142 1196 1142 1156 1081 c 2,36,-1
 854 620 l 1,37,-1
 854 223 l 2,38,39
 854 165 854 165 863.5 127 c 128,-1,40
 873 89 873 89 892 75 c 0,41,42
 929 48 929 48 1065 39 c 1,43,-1
 1065 0 l 1,44,-1
 437 0 l 1,45,-1
 437 39 l 1,46,47
 575 46 575 46 609 80 c 256,48,49
 643 114 643 114 643 247 c 2,50,-1
 643 601 l 2,51,52
 640 605 640 605 620 635 c 128,-1,53
 600 665 600 665 571.5 707 c 128,-1,54
 543 749 543 749 509.5 798 c 128,-1,55
 476 847 476 847 447.5 889 c 128,-1,56
 419 931 419 931 399 960.5 c 128,-1,57
 379 990 379 990 376 994 c 0,58,59
 312 1089 312 1089 259.5 1157 c 128,-1,60
 207 1225 207 1225 181 1253 c 0,61,62
 127 1310 127 1310 45 1315 c 1,63,-1
 45 1355 l 1,64,-1
 619 1355 l 1,0,-1
EndSplineSet
Substitution2: "<17016,16016> Urdu Swash lookup 75 subtable" Y
PairPos2: "'kern' Horizontal Kerning in Arabic lookup 0 subtable" afii57509 dx=0 dy=0 dh=0 dv=0 dx=0 dy=0 dh=260 dv=0
PairPos2: "'kern' Horizontal Kerning in Arabic lookup 0 subtable" uni06AB dx=0 dy=0 dh=0 dv=0 dx=0 dy=0 dh=260 dv=0
PairPos2: "'kern' Horizontal Kerning in Arabic lookup 0 subtable" uni06A9 dx=0 dy=0 dh=0 dv=0 dx=0 dy=0 dh=260 dv=0
PairPos2: "'kern' Horizontal Kerning in Arabic lookup 0 subtable" uniFB94 dx=0 dy=0 dh=0 dv=0 dx=0 dy=0 dh=260 dv=0
PairPos2: "'kern' Horizontal Kerning in Arabic lookup 0 subtable" uniFBD5 dx=0 dy=0 dh=0 dv=0 dx=0 dy=0 dh=260 dv=0
PairPos2: "'kern' Horizontal Kerning in Arabic lookup 0 subtable" uni06AB.ini dx=0 dy=0 dh=0 dv=0 dx=0 dy=0 dh=260 dv=0
PairPos2: "'kern' Horizontal Kerning in Arabic lookup 0 subtable" uniFB90 dx=0 dy=0 dh=0 dv=0 dx=0 dy=0 dh=260 dv=0
PairPos2: "'kern' Horizontal Kerning in Arabic lookup 0 subtable" uniFEDB dx=0 dy=0 dh=0 dv=0 dx=0 dy=0 dh=260 dv=0
PairPos2: "'kern' Horizontal Kerning in Arabic lookup 0 subtable" uni0671 dx=0 dy=0 dh=0 dv=0 dx=0 dy=0 dh=208 dv=0
PairPos2: "'kern' Horizontal Kerning in Arabic lookup 0 subtable" afii57410 dx=0 dy=0 dh=0 dv=0 dx=0 dy=0 dh=208 dv=0
PairPos2: "'kern' Horizontal Kerning in Arabic lookup 0 subtable" afii57415 dx=0 dy=0 dh=0 dv=0 dx=0 dy=0 dh=52 dv=0
EndChar

StartChar: Z
Encoding: 90 90 61
Width: 1251
GlyphClass: 2
Flags: W
LayerCount: 2
Fore
SplineSet
14 25 m 1,0,-1
 910 1275 l 1,1,-1
 440 1275 l 2,2,3
 264 1275 264 1275 189 1186 c 0,4,5
 143 1133 143 1133 118 1004 c 1,6,-1
 63 1004 l 1,7,-1
 104 1355 l 1,8,-1
 1185 1355 l 1,9,-1
 1185 1330 l 1,10,-1
 298 80 l 1,11,-1
 822 80 l 2,12,13
 999 80 999 80 1081 165 c 0,14,15
 1132 219 1132 219 1173 361 c 1,16,-1
 1223 361 l 1,17,-1
 1173 0 l 1,18,-1
 14 0 l 1,19,-1
 14 25 l 1,0,-1
EndSplineSet
Substitution2: "<17016,16016> Urdu Swash lookup 75 subtable" Z
PairPos2: "'kern' Horizontal Kerning in Arabic lookup 0 subtable" afii57509 dx=0 dy=0 dh=0 dv=0 dx=0 dy=0 dh=260 dv=0
PairPos2: "'kern' Horizontal Kerning in Arabic lookup 0 subtable" uni06AB dx=0 dy=0 dh=0 dv=0 dx=0 dy=0 dh=260 dv=0
PairPos2: "'kern' Horizontal Kerning in Arabic lookup 0 subtable" uni06A9 dx=0 dy=0 dh=0 dv=0 dx=0 dy=0 dh=260 dv=0
PairPos2: "'kern' Horizontal Kerning in Arabic lookup 0 subtable" uniFB94 dx=0 dy=0 dh=0 dv=0 dx=0 dy=0 dh=260 dv=0
PairPos2: "'kern' Horizontal Kerning in Arabic lookup 0 subtable" uniFBD5 dx=0 dy=0 dh=0 dv=0 dx=0 dy=0 dh=260 dv=0
PairPos2: "'kern' Horizontal Kerning in Arabic lookup 0 subtable" uni06AB.ini dx=0 dy=0 dh=0 dv=0 dx=0 dy=0 dh=260 dv=0
PairPos2: "'kern' Horizontal Kerning in Arabic lookup 0 subtable" uniFB90 dx=0 dy=0 dh=0 dv=0 dx=0 dy=0 dh=260 dv=0
PairPos2: "'kern' Horizontal Kerning in Arabic lookup 0 subtable" uniFEDB dx=0 dy=0 dh=0 dv=0 dx=0 dy=0 dh=260 dv=0
PairPos2: "'kern' Horizontal Kerning in Arabic lookup 0 subtable" uni0671 dx=0 dy=0 dh=0 dv=0 dx=0 dy=0 dh=208 dv=0
PairPos2: "'kern' Horizontal Kerning in Arabic lookup 0 subtable" afii57410 dx=0 dy=0 dh=0 dv=0 dx=0 dy=0 dh=208 dv=0
PairPos2: "'kern' Horizontal Kerning in Arabic lookup 0 subtable" afii57415 dx=0 dy=0 dh=0 dv=0 dx=0 dy=0 dh=52 dv=0
EndChar

StartChar: bracketleft
Encoding: 91 91 62
Width: 625
GlyphClass: 2
Flags: W
LayerCount: 2
Fore
SplineSet
100 -543 m 1,0,-1
 100 1509 l 1,1,-1
 525 1509 l 1,2,-1
 525 1380 l 1,3,-1
 238 1380 l 1,4,-1
 238 -411 l 1,5,-1
 525 -411 l 1,6,-1
 525 -543 l 1,7,-1
 100 -543 l 1,0,-1
EndSplineSet
Substitution2: "<17016,16016> Urdu Swash lookup 75 subtable" bracketleft
PairPos2: "'kern' Horizontal Kerning in Arabic lookup 0 subtable" afii57509 dx=0 dy=0 dh=0 dv=0 dx=0 dy=0 dh=260 dv=0
PairPos2: "'kern' Horizontal Kerning in Arabic lookup 0 subtable" uni06AB dx=0 dy=0 dh=0 dv=0 dx=0 dy=0 dh=260 dv=0
PairPos2: "'kern' Horizontal Kerning in Arabic lookup 0 subtable" uni06A9 dx=0 dy=0 dh=0 dv=0 dx=0 dy=0 dh=260 dv=0
PairPos2: "'kern' Horizontal Kerning in Arabic lookup 0 subtable" uniFB94 dx=0 dy=0 dh=0 dv=0 dx=0 dy=0 dh=260 dv=0
PairPos2: "'kern' Horizontal Kerning in Arabic lookup 0 subtable" uniFBD5 dx=0 dy=0 dh=0 dv=0 dx=0 dy=0 dh=260 dv=0
PairPos2: "'kern' Horizontal Kerning in Arabic lookup 0 subtable" uni06AB.ini dx=0 dy=0 dh=0 dv=0 dx=0 dy=0 dh=260 dv=0
PairPos2: "'kern' Horizontal Kerning in Arabic lookup 0 subtable" uniFB90 dx=0 dy=0 dh=0 dv=0 dx=0 dy=0 dh=260 dv=0
PairPos2: "'kern' Horizontal Kerning in Arabic lookup 0 subtable" uniFEDB dx=0 dy=0 dh=0 dv=0 dx=0 dy=0 dh=260 dv=0
PairPos2: "'kern' Horizontal Kerning in Arabic lookup 0 subtable" uni0671 dx=0 dy=0 dh=0 dv=0 dx=0 dy=0 dh=208 dv=0
PairPos2: "'kern' Horizontal Kerning in Arabic lookup 0 subtable" afii57410 dx=0 dy=0 dh=0 dv=0 dx=0 dy=0 dh=208 dv=0
PairPos2: "'kern' Horizontal Kerning in Arabic lookup 0 subtable" afii57415 dx=0 dy=0 dh=0 dv=0 dx=0 dy=0 dh=52 dv=0
EndChar

StartChar: backslash
Encoding: 92 92 63
Width: 569
GlyphClass: 2
Flags: W
LayerCount: 2
Fore
SplineSet
74 1384 m 1,0,-1
 633 0 l 1,1,-1
 496 0 l 1,2,-1
 -65 1384 l 1,3,-1
 74 1384 l 1,0,-1
EndSplineSet
Substitution2: "<17016,16016> Urdu Swash lookup 75 subtable" backslash
PairPos2: "'kern' Horizontal Kerning in Arabic lookup 0 subtable" afii57509 dx=0 dy=0 dh=0 dv=0 dx=0 dy=0 dh=260 dv=0
PairPos2: "'kern' Horizontal Kerning in Arabic lookup 0 subtable" uni06AB dx=0 dy=0 dh=0 dv=0 dx=0 dy=0 dh=260 dv=0
PairPos2: "'kern' Horizontal Kerning in Arabic lookup 0 subtable" uni06A9 dx=0 dy=0 dh=0 dv=0 dx=0 dy=0 dh=260 dv=0
PairPos2: "'kern' Horizontal Kerning in Arabic lookup 0 subtable" uniFB94 dx=0 dy=0 dh=0 dv=0 dx=0 dy=0 dh=260 dv=0
PairPos2: "'kern' Horizontal Kerning in Arabic lookup 0 subtable" uniFBD5 dx=0 dy=0 dh=0 dv=0 dx=0 dy=0 dh=260 dv=0
PairPos2: "'kern' Horizontal Kerning in Arabic lookup 0 subtable" uni06AB.ini dx=0 dy=0 dh=0 dv=0 dx=0 dy=0 dh=260 dv=0
PairPos2: "'kern' Horizontal Kerning in Arabic lookup 0 subtable" uniFB90 dx=0 dy=0 dh=0 dv=0 dx=0 dy=0 dh=260 dv=0
PairPos2: "'kern' Horizontal Kerning in Arabic lookup 0 subtable" uniFEDB dx=0 dy=0 dh=0 dv=0 dx=0 dy=0 dh=260 dv=0
PairPos2: "'kern' Horizontal Kerning in Arabic lookup 0 subtable" uni0671 dx=0 dy=0 dh=0 dv=0 dx=0 dy=0 dh=208 dv=0
PairPos2: "'kern' Horizontal Kerning in Arabic lookup 0 subtable" afii57410 dx=0 dy=0 dh=0 dv=0 dx=0 dy=0 dh=208 dv=0
PairPos2: "'kern' Horizontal Kerning in Arabic lookup 0 subtable" afii57415 dx=0 dy=0 dh=0 dv=0 dx=0 dy=0 dh=52 dv=0
EndChar

StartChar: bracketright
Encoding: 93 93 64
Width: 725
GlyphClass: 2
Flags: W
LayerCount: 2
Fore
SplineSet
100 -543 m 1,0,-1
 100 -411 l 1,1,-1
 385 -411 l 1,2,-1
 385 1380 l 1,3,-1
 100 1380 l 1,4,-1
 100 1509 l 1,5,-1
 525 1509 l 1,6,-1
 525 -543 l 1,7,-1
 100 -543 l 1,0,-1
EndSplineSet
Substitution2: "<17016,16016> Urdu Swash lookup 75 subtable" bracketright
PairPos2: "'kern' Horizontal Kerning in Arabic lookup 0 subtable" afii57509 dx=0 dy=0 dh=0 dv=0 dx=0 dy=0 dh=260 dv=0
PairPos2: "'kern' Horizontal Kerning in Arabic lookup 0 subtable" uni06AB dx=0 dy=0 dh=0 dv=0 dx=0 dy=0 dh=260 dv=0
PairPos2: "'kern' Horizontal Kerning in Arabic lookup 0 subtable" uni06A9 dx=0 dy=0 dh=0 dv=0 dx=0 dy=0 dh=260 dv=0
PairPos2: "'kern' Horizontal Kerning in Arabic lookup 0 subtable" uniFB94 dx=0 dy=0 dh=0 dv=0 dx=0 dy=0 dh=260 dv=0
PairPos2: "'kern' Horizontal Kerning in Arabic lookup 0 subtable" uniFBD5 dx=0 dy=0 dh=0 dv=0 dx=0 dy=0 dh=260 dv=0
PairPos2: "'kern' Horizontal Kerning in Arabic lookup 0 subtable" uni06AB.ini dx=0 dy=0 dh=0 dv=0 dx=0 dy=0 dh=260 dv=0
PairPos2: "'kern' Horizontal Kerning in Arabic lookup 0 subtable" uniFB90 dx=0 dy=0 dh=0 dv=0 dx=0 dy=0 dh=260 dv=0
PairPos2: "'kern' Horizontal Kerning in Arabic lookup 0 subtable" uniFEDB dx=0 dy=0 dh=0 dv=0 dx=0 dy=0 dh=260 dv=0
PairPos2: "'kern' Horizontal Kerning in Arabic lookup 0 subtable" uni0671 dx=0 dy=0 dh=0 dv=0 dx=0 dy=0 dh=208 dv=0
PairPos2: "'kern' Horizontal Kerning in Arabic lookup 0 subtable" afii57410 dx=0 dy=0 dh=0 dv=0 dx=0 dy=0 dh=208 dv=0
PairPos2: "'kern' Horizontal Kerning in Arabic lookup 0 subtable" afii57415 dx=0 dy=0 dh=0 dv=0 dx=0 dy=0 dh=52 dv=0
EndChar

StartChar: asciicircum
Encoding: 94 94 65
Width: 961
GlyphClass: 2
Flags: W
LayerCount: 2
Fore
SplineSet
508 1384 m 1,0,-1
 893 518 l 1,1,-1
 755 518 l 1,2,-1
 481 1163 l 1,3,4
 412 1002 412 1002 342.5 841 c 128,-1,5
 273 680 273 680 204 518 c 1,6,-1
 66 518 l 1,7,-1
 451 1384 l 1,8,-1
 508 1384 l 1,0,-1
EndSplineSet
Substitution2: "<17016,16016> Urdu Swash lookup 75 subtable" asciicircum
PairPos2: "'kern' Horizontal Kerning in Arabic lookup 0 subtable" afii57509 dx=0 dy=0 dh=0 dv=0 dx=0 dy=0 dh=260 dv=0
PairPos2: "'kern' Horizontal Kerning in Arabic lookup 0 subtable" uni06AB dx=0 dy=0 dh=0 dv=0 dx=0 dy=0 dh=260 dv=0
PairPos2: "'kern' Horizontal Kerning in Arabic lookup 0 subtable" uni06A9 dx=0 dy=0 dh=0 dv=0 dx=0 dy=0 dh=260 dv=0
PairPos2: "'kern' Horizontal Kerning in Arabic lookup 0 subtable" uniFB94 dx=0 dy=0 dh=0 dv=0 dx=0 dy=0 dh=260 dv=0
PairPos2: "'kern' Horizontal Kerning in Arabic lookup 0 subtable" uniFBD5 dx=0 dy=0 dh=0 dv=0 dx=0 dy=0 dh=260 dv=0
PairPos2: "'kern' Horizontal Kerning in Arabic lookup 0 subtable" uni06AB.ini dx=0 dy=0 dh=0 dv=0 dx=0 dy=0 dh=260 dv=0
PairPos2: "'kern' Horizontal Kerning in Arabic lookup 0 subtable" uniFB90 dx=0 dy=0 dh=0 dv=0 dx=0 dy=0 dh=260 dv=0
PairPos2: "'kern' Horizontal Kerning in Arabic lookup 0 subtable" uniFEDB dx=0 dy=0 dh=0 dv=0 dx=0 dy=0 dh=260 dv=0
PairPos2: "'kern' Horizontal Kerning in Arabic lookup 0 subtable" uni0671 dx=0 dy=0 dh=0 dv=0 dx=0 dy=0 dh=208 dv=0
PairPos2: "'kern' Horizontal Kerning in Arabic lookup 0 subtable" afii57410 dx=0 dy=0 dh=0 dv=0 dx=0 dy=0 dh=208 dv=0
PairPos2: "'kern' Horizontal Kerning in Arabic lookup 0 subtable" afii57415 dx=0 dy=0 dh=0 dv=0 dx=0 dy=0 dh=52 dv=0
EndChar

StartChar: underscore
Encoding: 95 95 66
Width: 1024
GlyphClass: 2
Flags: W
LayerCount: 2
Fore
SplineSet
0 -256 m 1,0,-1
 0 -153 l 1,1,-1
 1023 -153 l 1,2,-1
 1023 -256 l 1,3,-1
 0 -256 l 1,0,-1
EndSplineSet
Substitution2: "<17016,16016> Urdu Swash lookup 75 subtable" underscore
PairPos2: "'kern' Horizontal Kerning in Arabic lookup 0 subtable" afii57509 dx=0 dy=0 dh=0 dv=0 dx=0 dy=0 dh=260 dv=0
PairPos2: "'kern' Horizontal Kerning in Arabic lookup 0 subtable" uni06AB dx=0 dy=0 dh=0 dv=0 dx=0 dy=0 dh=260 dv=0
PairPos2: "'kern' Horizontal Kerning in Arabic lookup 0 subtable" uni06A9 dx=0 dy=0 dh=0 dv=0 dx=0 dy=0 dh=260 dv=0
PairPos2: "'kern' Horizontal Kerning in Arabic lookup 0 subtable" uniFB94 dx=0 dy=0 dh=0 dv=0 dx=0 dy=0 dh=260 dv=0
PairPos2: "'kern' Horizontal Kerning in Arabic lookup 0 subtable" uniFBD5 dx=0 dy=0 dh=0 dv=0 dx=0 dy=0 dh=260 dv=0
PairPos2: "'kern' Horizontal Kerning in Arabic lookup 0 subtable" uni06AB.ini dx=0 dy=0 dh=0 dv=0 dx=0 dy=0 dh=260 dv=0
PairPos2: "'kern' Horizontal Kerning in Arabic lookup 0 subtable" uniFB90 dx=0 dy=0 dh=0 dv=0 dx=0 dy=0 dh=260 dv=0
PairPos2: "'kern' Horizontal Kerning in Arabic lookup 0 subtable" uniFEDB dx=0 dy=0 dh=0 dv=0 dx=0 dy=0 dh=260 dv=0
PairPos2: "'kern' Horizontal Kerning in Arabic lookup 0 subtable" uni0671 dx=0 dy=0 dh=0 dv=0 dx=0 dy=0 dh=208 dv=0
PairPos2: "'kern' Horizontal Kerning in Arabic lookup 0 subtable" afii57410 dx=0 dy=0 dh=0 dv=0 dx=0 dy=0 dh=208 dv=0
PairPos2: "'kern' Horizontal Kerning in Arabic lookup 0 subtable" afii57415 dx=0 dy=0 dh=0 dv=0 dx=0 dy=0 dh=52 dv=0
EndChar

StartChar: grave
Encoding: 96 96 67
Width: 682
GlyphClass: 2
Flags: W
LayerCount: 2
Fore
SplineSet
499 1037 m 1,0,-1
 412 1037 l 1,1,-1
 97 1235 l 2,2,3
 64 1256 64 1256 49.5 1276 c 128,-1,4
 35 1296 35 1296 35 1323 c 0,5,6
 35 1353 35 1353 56 1371.5 c 128,-1,7
 77 1390 77 1390 105 1390 c 0,8,9
 132 1390 132 1390 154 1375.5 c 128,-1,10
 176 1361 176 1361 196 1341 c 2,11,-1
 499 1037 l 1,0,-1
EndSplineSet
Substitution2: "<17016,16016> Urdu Swash lookup 75 subtable" grave
PairPos2: "'kern' Horizontal Kerning in Arabic lookup 0 subtable" afii57509 dx=0 dy=0 dh=0 dv=0 dx=0 dy=0 dh=260 dv=0
PairPos2: "'kern' Horizontal Kerning in Arabic lookup 0 subtable" uni06AB dx=0 dy=0 dh=0 dv=0 dx=0 dy=0 dh=260 dv=0
PairPos2: "'kern' Horizontal Kerning in Arabic lookup 0 subtable" uni06A9 dx=0 dy=0 dh=0 dv=0 dx=0 dy=0 dh=260 dv=0
PairPos2: "'kern' Horizontal Kerning in Arabic lookup 0 subtable" uniFB94 dx=0 dy=0 dh=0 dv=0 dx=0 dy=0 dh=260 dv=0
PairPos2: "'kern' Horizontal Kerning in Arabic lookup 0 subtable" uniFBD5 dx=0 dy=0 dh=0 dv=0 dx=0 dy=0 dh=260 dv=0
PairPos2: "'kern' Horizontal Kerning in Arabic lookup 0 subtable" uni06AB.ini dx=0 dy=0 dh=0 dv=0 dx=0 dy=0 dh=260 dv=0
PairPos2: "'kern' Horizontal Kerning in Arabic lookup 0 subtable" uniFB90 dx=0 dy=0 dh=0 dv=0 dx=0 dy=0 dh=260 dv=0
PairPos2: "'kern' Horizontal Kerning in Arabic lookup 0 subtable" uniFEDB dx=0 dy=0 dh=0 dv=0 dx=0 dy=0 dh=260 dv=0
PairPos2: "'kern' Horizontal Kerning in Arabic lookup 0 subtable" uni0671 dx=0 dy=0 dh=0 dv=0 dx=0 dy=0 dh=208 dv=0
PairPos2: "'kern' Horizontal Kerning in Arabic lookup 0 subtable" afii57410 dx=0 dy=0 dh=0 dv=0 dx=0 dy=0 dh=208 dv=0
PairPos2: "'kern' Horizontal Kerning in Arabic lookup 0 subtable" afii57415 dx=0 dy=0 dh=0 dv=0 dx=0 dy=0 dh=52 dv=0
EndChar

StartChar: a
Encoding: 97 97 68
Width: 909
GlyphClass: 2
Flags: W
LayerCount: 2
Fore
SplineSet
586 553 m 1,0,1
 422 501 422 501 338 427 c 128,-1,2
 254 353 254 353 254 269 c 0,3,4
 254 233 254 233 265 203.5 c 128,-1,5
 276 174 276 174 295.5 153 c 128,-1,6
 315 132 315 132 342 120 c 128,-1,7
 369 108 369 108 400 108 c 0,8,9
 432 108 432 108 465 118 c 128,-1,10
 498 128 498 128 525 145 c 128,-1,11
 552 162 552 162 569 186 c 128,-1,12
 586 210 586 210 586 238 c 2,13,-1
 586 553 l 1,0,1
219 442 m 0,14,15
 264 471 264 471 357 512 c 128,-1,16
 450 553 450 553 586 605 c 1,17,-1
 586 689 l 2,18,19
 586 738 586 738 580.5 774.5 c 128,-1,20
 575 811 575 811 566 831 c 0,21,22
 548 862 548 862 512.5 879.5 c 128,-1,23
 477 897 477 897 426 897 c 0,24,25
 376 897 376 897 329 871 c 1,26,-1
 330 871 l 1,27,28
 284 844 284 844 284 798 c 0,29,30
 284 795 284 795 285.5 784 c 128,-1,31
 287 773 287 773 289 760 c 128,-1,32
 291 747 291 747 292.5 735.5 c 128,-1,33
 294 724 294 724 294 721 c 0,34,35
 294 679 294 679 271.5 654 c 128,-1,36
 249 629 249 629 206 629 c 0,37,38
 183 629 183 629 165.5 637 c 128,-1,39
 148 645 148 645 136.5 658.5 c 128,-1,40
 125 672 125 672 119 689.5 c 128,-1,41
 113 707 113 707 113 725 c 0,42,43
 113 796 113 796 198 872 c 0,44,45
 286 949 286 949 453 949 c 0,46,47
 529 949 529 949 585.5 931 c 128,-1,48
 642 913 642 913 679.5 874 c 128,-1,49
 717 835 717 835 735.5 772.5 c 128,-1,50
 754 710 754 710 754 621 c 2,51,-1
 754 221 l 2,52,53
 754 154 754 154 768 128.5 c 128,-1,54
 782 103 782 103 815 103 c 0,55,56
 827 103 827 103 834.5 104 c 128,-1,57
 842 105 842 105 850.5 109 c 128,-1,58
 859 113 859 113 871 121.5 c 128,-1,59
 883 130 883 130 905 145 c 1,60,-1
 905 90 l 1,61,62
 866 41 866 41 819 14.5 c 128,-1,63
 772 -12 772 -12 722 -12 c 0,64,65
 688 -12 688 -12 663.5 -0.5 c 128,-1,66
 639 11 639 11 623.5 30.5 c 128,-1,67
 608 50 608 50 599.5 77 c 128,-1,68
 591 104 591 104 589 135 c 1,69,70
 541 93 541 93 500.5 64.5 c 128,-1,71
 460 36 460 36 424.5 18.5 c 128,-1,72
 389 1 389 1 355.5 -7 c 128,-1,73
 322 -15 322 -15 287 -15 c 0,74,75
 244 -15 244 -15 205.5 1 c 128,-1,76
 167 17 167 17 138 45.5 c 128,-1,77
 109 74 109 74 92 113.5 c 128,-1,78
 75 153 75 153 75 200 c 0,79,80
 75 345 75 345 219 442 c 0,14,15
EndSplineSet
Substitution2: "<17016,16016> Urdu Swash lookup 75 subtable" a
PairPos2: "'kern' Horizontal Kerning in Arabic lookup 0 subtable" afii57509 dx=0 dy=0 dh=0 dv=0 dx=0 dy=0 dh=260 dv=0
PairPos2: "'kern' Horizontal Kerning in Arabic lookup 0 subtable" uni06AB dx=0 dy=0 dh=0 dv=0 dx=0 dy=0 dh=260 dv=0
PairPos2: "'kern' Horizontal Kerning in Arabic lookup 0 subtable" uni06A9 dx=0 dy=0 dh=0 dv=0 dx=0 dy=0 dh=260 dv=0
PairPos2: "'kern' Horizontal Kerning in Arabic lookup 0 subtable" uniFB94 dx=0 dy=0 dh=0 dv=0 dx=0 dy=0 dh=260 dv=0
PairPos2: "'kern' Horizontal Kerning in Arabic lookup 0 subtable" uniFBD5 dx=0 dy=0 dh=0 dv=0 dx=0 dy=0 dh=260 dv=0
PairPos2: "'kern' Horizontal Kerning in Arabic lookup 0 subtable" uni06AB.ini dx=0 dy=0 dh=0 dv=0 dx=0 dy=0 dh=260 dv=0
PairPos2: "'kern' Horizontal Kerning in Arabic lookup 0 subtable" uniFB90 dx=0 dy=0 dh=0 dv=0 dx=0 dy=0 dh=260 dv=0
PairPos2: "'kern' Horizontal Kerning in Arabic lookup 0 subtable" uniFEDB dx=0 dy=0 dh=0 dv=0 dx=0 dy=0 dh=260 dv=0
PairPos2: "'kern' Horizontal Kerning in Arabic lookup 0 subtable" uni0671 dx=0 dy=0 dh=0 dv=0 dx=0 dy=0 dh=208 dv=0
PairPos2: "'kern' Horizontal Kerning in Arabic lookup 0 subtable" afii57410 dx=0 dy=0 dh=0 dv=0 dx=0 dy=0 dh=208 dv=0
PairPos2: "'kern' Horizontal Kerning in Arabic lookup 0 subtable" afii57415 dx=0 dy=0 dh=0 dv=0 dx=0 dy=0 dh=52 dv=0
EndChar

StartChar: b
Encoding: 98 98 69
Width: 1024
GlyphClass: 2
Flags: W
LayerCount: 2
Fore
SplineSet
507 51 m 0,0,1
 646 51 646 51 713 156 c 0,2,3
 781 262 781 262 781 408 c 0,4,5
 781 557 781 557 718 683 c 0,6,7
 657 809 657 809 515 809 c 0,8,9
 482 809 482 809 445.5 797.5 c 128,-1,10
 409 786 409 786 379 766 c 128,-1,11
 349 746 349 746 329 717.5 c 128,-1,12
 309 689 309 689 309 656 c 2,13,-1
 309 147 l 1,14,15
 314 120 314 120 336.5 102 c 128,-1,16
 359 84 359 84 389 72.5 c 128,-1,17
 419 61 419 61 451 56 c 128,-1,18
 483 51 483 51 507 51 c 0,0,1
7 1270 m 1,19,-1
 7 1306 l 1,20,21
 63 1319 63 1319 116.5 1334.5 c 128,-1,22
 170 1350 170 1350 213 1363.5 c 128,-1,23
 256 1377 256 1377 282.5 1386.5 c 128,-1,24
 309 1396 309 1396 311 1396 c 0,25,26
 313 1388 313 1388 313 1383 c 2,27,-1
 313 779 l 1,28,29
 334 817 334 817 365 847 c 128,-1,30
 396 877 396 877 434 898 c 128,-1,31
 472 919 472 919 515 930.5 c 128,-1,32
 558 942 558 942 602 942 c 0,33,34
 676 942 676 942 740.5 909 c 128,-1,35
 805 876 805 876 853 817 c 128,-1,36
 901 758 901 758 929 675.5 c 128,-1,37
 957 593 957 593 957 495 c 0,38,39
 957 391 957 391 922 298 c 128,-1,40
 887 205 887 205 822.5 134.5 c 128,-1,41
 758 64 758 64 668 22.5 c 128,-1,42
 578 -19 578 -19 467 -19 c 0,43,44
 414 -19 414 -19 356.5 -7 c 128,-1,45
 299 5 299 5 251 24.5 c 128,-1,46
 203 44 203 44 172 67.5 c 128,-1,47
 141 91 141 91 141 114 c 2,48,-1
 141 1169 l 2,49,50
 141 1197 141 1197 138 1217 c 128,-1,51
 135 1237 135 1237 126 1250 c 128,-1,52
 117 1263 117 1263 99.5 1269 c 128,-1,53
 82 1275 82 1275 53 1275 c 2,54,-1
 7 1270 l 1,19,-1
EndSplineSet
Substitution2: "<17016,16016> Urdu Swash lookup 75 subtable" b
PairPos2: "'kern' Horizontal Kerning in Arabic lookup 0 subtable" afii57509 dx=0 dy=0 dh=0 dv=0 dx=0 dy=0 dh=260 dv=0
PairPos2: "'kern' Horizontal Kerning in Arabic lookup 0 subtable" uni06AB dx=0 dy=0 dh=0 dv=0 dx=0 dy=0 dh=260 dv=0
PairPos2: "'kern' Horizontal Kerning in Arabic lookup 0 subtable" uni06A9 dx=0 dy=0 dh=0 dv=0 dx=0 dy=0 dh=260 dv=0
PairPos2: "'kern' Horizontal Kerning in Arabic lookup 0 subtable" uniFB94 dx=0 dy=0 dh=0 dv=0 dx=0 dy=0 dh=260 dv=0
PairPos2: "'kern' Horizontal Kerning in Arabic lookup 0 subtable" uniFBD5 dx=0 dy=0 dh=0 dv=0 dx=0 dy=0 dh=260 dv=0
PairPos2: "'kern' Horizontal Kerning in Arabic lookup 0 subtable" uni06AB.ini dx=0 dy=0 dh=0 dv=0 dx=0 dy=0 dh=260 dv=0
PairPos2: "'kern' Horizontal Kerning in Arabic lookup 0 subtable" uniFB90 dx=0 dy=0 dh=0 dv=0 dx=0 dy=0 dh=260 dv=0
PairPos2: "'kern' Horizontal Kerning in Arabic lookup 0 subtable" uniFEDB dx=0 dy=0 dh=0 dv=0 dx=0 dy=0 dh=260 dv=0
PairPos2: "'kern' Horizontal Kerning in Arabic lookup 0 subtable" uni0671 dx=0 dy=0 dh=0 dv=0 dx=0 dy=0 dh=208 dv=0
PairPos2: "'kern' Horizontal Kerning in Arabic lookup 0 subtable" afii57410 dx=0 dy=0 dh=0 dv=0 dx=0 dy=0 dh=208 dv=0
PairPos2: "'kern' Horizontal Kerning in Arabic lookup 0 subtable" afii57415 dx=0 dy=0 dh=0 dv=0 dx=0 dy=0 dh=52 dv=0
EndChar

StartChar: c
Encoding: 99 99 70
AltUni2: 00217d.ffffffff.0
Width: 909
GlyphClass: 2
Flags: W
LayerCount: 2
Fore
SplineSet
815 737 m 0,0,1
 815 721 815 721 809.5 704.5 c 128,-1,2
 804 688 804 688 792.5 675 c 128,-1,3
 781 662 781 662 763 654 c 128,-1,4
 745 646 745 646 721 646 c 0,5,6
 687 646 687 646 659.5 670 c 128,-1,7
 632 694 632 694 620 741 c 2,8,-1
 608 789 l 2,9,10
 595 842 595 842 563 863 c 128,-1,11
 531 884 531 884 477 884 c 0,12,13
 422 884 422 884 372.5 858 c 128,-1,14
 323 832 323 832 286.5 785 c 128,-1,15
 250 738 250 738 228.5 671 c 128,-1,16
 207 604 207 604 207 521 c 0,17,18
 207 373 207 373 293 252 c 0,19,20
 380 132 380 132 526 132 c 0,21,22
 569 132 569 132 606 142.5 c 128,-1,23
 643 153 643 153 677 175.5 c 128,-1,24
 711 198 711 198 744.5 235 c 128,-1,25
 778 272 778 272 813 324 c 1,26,-1
 843 306 l 1,27,28
 814 245 814 245 784.5 197.5 c 128,-1,29
 755 150 755 150 724 115 c 0,30,31
 602 -19 602 -19 443 -19 c 0,32,33
 286 -19 286 -19 166 104 c 0,34,35
 47 228 47 228 47 438 c 0,36,37
 47 540 47 540 81.5 632 c 128,-1,38
 116 724 116 724 177.5 793 c 128,-1,39
 239 862 239 862 324 903 c 128,-1,40
 409 944 409 944 509 944 c 0,41,42
 571 944 571 944 626.5 926 c 128,-1,43
 682 908 682 908 724 878.5 c 128,-1,44
 766 849 766 849 790.5 812 c 128,-1,45
 815 775 815 775 815 737 c 0,0,1
EndSplineSet
Substitution2: "<17016,16016> Urdu Swash lookup 75 subtable" c
PairPos2: "'kern' Horizontal Kerning in Arabic lookup 0 subtable" afii57509 dx=0 dy=0 dh=0 dv=0 dx=0 dy=0 dh=260 dv=0
PairPos2: "'kern' Horizontal Kerning in Arabic lookup 0 subtable" uni06AB dx=0 dy=0 dh=0 dv=0 dx=0 dy=0 dh=260 dv=0
PairPos2: "'kern' Horizontal Kerning in Arabic lookup 0 subtable" uni06A9 dx=0 dy=0 dh=0 dv=0 dx=0 dy=0 dh=260 dv=0
PairPos2: "'kern' Horizontal Kerning in Arabic lookup 0 subtable" uniFB94 dx=0 dy=0 dh=0 dv=0 dx=0 dy=0 dh=260 dv=0
PairPos2: "'kern' Horizontal Kerning in Arabic lookup 0 subtable" uniFBD5 dx=0 dy=0 dh=0 dv=0 dx=0 dy=0 dh=260 dv=0
PairPos2: "'kern' Horizontal Kerning in Arabic lookup 0 subtable" uni06AB.ini dx=0 dy=0 dh=0 dv=0 dx=0 dy=0 dh=260 dv=0
PairPos2: "'kern' Horizontal Kerning in Arabic lookup 0 subtable" uniFB90 dx=0 dy=0 dh=0 dv=0 dx=0 dy=0 dh=260 dv=0
PairPos2: "'kern' Horizontal Kerning in Arabic lookup 0 subtable" uniFEDB dx=0 dy=0 dh=0 dv=0 dx=0 dy=0 dh=260 dv=0
PairPos2: "'kern' Horizontal Kerning in Arabic lookup 0 subtable" uni0671 dx=0 dy=0 dh=0 dv=0 dx=0 dy=0 dh=208 dv=0
PairPos2: "'kern' Horizontal Kerning in Arabic lookup 0 subtable" afii57410 dx=0 dy=0 dh=0 dv=0 dx=0 dy=0 dh=208 dv=0
PairPos2: "'kern' Horizontal Kerning in Arabic lookup 0 subtable" afii57415 dx=0 dy=0 dh=0 dv=0 dx=0 dy=0 dh=52 dv=0
EndChar

StartChar: d
Encoding: 100 100 71
AltUni2: 00217e.ffffffff.0
Width: 1024
GlyphClass: 2
Flags: W
LayerCount: 2
Fore
SplineSet
695 651 m 2,0,1
 695 781 695 781 625 833 c 0,2,3
 589 860 589 860 557 873.5 c 128,-1,4
 525 887 525 887 491 887 c 0,5,6
 428 887 428 887 379 857 c 128,-1,7
 330 827 330 827 296 774.5 c 128,-1,8
 262 722 262 722 244 652 c 128,-1,9
 226 582 226 582 226 502 c 0,10,11
 226 344 226 344 300 217 c 0,12,13
 375 91 375 91 522 91 c 0,14,15
 561 91 561 91 592.5 104.5 c 128,-1,16
 624 118 624 118 647 138 c 128,-1,17
 670 158 670 158 682.5 181 c 128,-1,18
 695 204 695 204 695 223 c 2,19,-1
 695 651 l 2,0,1
619 914 m 0,20,21
 641 903 641 903 659 889 c 128,-1,22
 677 875 677 875 695 858 c 1,23,-1
 695 1172 l 2,24,25
 695 1201 695 1201 692.5 1221.5 c 128,-1,26
 690 1242 690 1242 681.5 1254.5 c 128,-1,27
 673 1267 673 1267 658 1272.5 c 128,-1,28
 643 1278 643 1278 618 1278 c 0,29,30
 612 1278 612 1278 607.5 1278 c 128,-1,31
 603 1278 603 1278 596.5 1277 c 128,-1,32
 590 1276 590 1276 580.5 1275.5 c 128,-1,33
 571 1275 571 1275 556 1273 c 1,34,-1
 556 1308 l 1,35,-1
 639 1329 l 2,36,37
 674 1338 674 1338 707.5 1348 c 128,-1,38
 741 1358 741 1358 770 1367.5 c 128,-1,39
 799 1377 799 1377 822.5 1385 c 128,-1,40
 846 1393 846 1393 861 1398 c 1,41,-1
 868 1396 l 1,42,-1
 866 1290 l 2,43,44
 866 1233 866 1233 864.5 1173 c 128,-1,45
 863 1113 863 1113 863 1054 c 2,46,-1
 861 238 l 2,47,48
 861 207 861 207 863.5 185 c 128,-1,49
 866 163 866 163 876 149 c 128,-1,50
 886 135 886 135 906 128.5 c 128,-1,51
 926 122 926 122 960 122 c 0,52,53
 972 122 972 122 983 122.5 c 128,-1,54
 994 123 994 123 1005 125 c 1,55,-1
 1005 90 l 2,56,57
 1006 90 1006 90 978 80.5 c 128,-1,58
 950 71 950 71 906 55.5 c 128,-1,59
 862 40 862 40 808 20.5 c 128,-1,60
 754 1 754 1 702 -19 c 1,61,-1
 695 -10 l 1,62,-1
 695 111 l 1,63,64
 659 73 659 73 628.5 48 c 128,-1,65
 598 23 598 23 567.5 8 c 128,-1,66
 537 -7 537 -7 504 -13 c 128,-1,67
 471 -19 471 -19 430 -19 c 0,68,69
 259 -19 259 -19 154 112 c 0,70,71
 49 244 49 244 49 417 c 0,72,73
 49 633 49 633 174 790 c 0,74,75
 300 946 300 946 485 946 c 0,76,77
 557 946 557 946 619 914 c 0,20,21
EndSplineSet
Substitution2: "<17016,16016> Urdu Swash lookup 75 subtable" d
PairPos2: "'kern' Horizontal Kerning in Arabic lookup 0 subtable" afii57509 dx=0 dy=0 dh=0 dv=0 dx=0 dy=0 dh=260 dv=0
PairPos2: "'kern' Horizontal Kerning in Arabic lookup 0 subtable" uni06AB dx=0 dy=0 dh=0 dv=0 dx=0 dy=0 dh=260 dv=0
PairPos2: "'kern' Horizontal Kerning in Arabic lookup 0 subtable" uni06A9 dx=0 dy=0 dh=0 dv=0 dx=0 dy=0 dh=260 dv=0
PairPos2: "'kern' Horizontal Kerning in Arabic lookup 0 subtable" uniFB94 dx=0 dy=0 dh=0 dv=0 dx=0 dy=0 dh=260 dv=0
PairPos2: "'kern' Horizontal Kerning in Arabic lookup 0 subtable" uniFBD5 dx=0 dy=0 dh=0 dv=0 dx=0 dy=0 dh=260 dv=0
PairPos2: "'kern' Horizontal Kerning in Arabic lookup 0 subtable" uni06AB.ini dx=0 dy=0 dh=0 dv=0 dx=0 dy=0 dh=260 dv=0
PairPos2: "'kern' Horizontal Kerning in Arabic lookup 0 subtable" uniFB90 dx=0 dy=0 dh=0 dv=0 dx=0 dy=0 dh=260 dv=0
PairPos2: "'kern' Horizontal Kerning in Arabic lookup 0 subtable" uniFEDB dx=0 dy=0 dh=0 dv=0 dx=0 dy=0 dh=260 dv=0
PairPos2: "'kern' Horizontal Kerning in Arabic lookup 0 subtable" uni0671 dx=0 dy=0 dh=0 dv=0 dx=0 dy=0 dh=208 dv=0
PairPos2: "'kern' Horizontal Kerning in Arabic lookup 0 subtable" afii57410 dx=0 dy=0 dh=0 dv=0 dx=0 dy=0 dh=208 dv=0
PairPos2: "'kern' Horizontal Kerning in Arabic lookup 0 subtable" afii57415 dx=0 dy=0 dh=0 dv=0 dx=0 dy=0 dh=52 dv=0
EndChar

StartChar: e
Encoding: 101 101 72
Width: 909
GlyphClass: 2
Flags: W
LayerCount: 2
Fore
SplineSet
238 763 m 0,0,1
 223 737 223 737 211 702.5 c 128,-1,2
 199 668 199 668 192 629 c 1,3,-1
 612 629 l 1,4,5
 599 754 599 754 551 809 c 128,-1,6
 503 864 503 864 411 864 c 0,7,8
 298 864 298 864 238 763 c 0,0,1
188 563 m 1,9,10
 194 453 194 453 221 366.5 c 128,-1,11
 248 280 248 280 293 228 c 0,12,13
 340 178 340 178 397 150 c 128,-1,14
 454 122 454 122 517 122 c 0,15,16
 569 122 569 122 612.5 136 c 128,-1,17
 656 150 656 150 693 177 c 128,-1,18
 730 204 730 204 762.5 243 c 128,-1,19
 795 282 795 282 825 333 c 1,20,-1
 862 321 l 1,21,22
 821 193 821 193 709 84 c 0,23,24
 597 -24 597 -24 433 -24 c 0,25,26
 244 -24 244 -24 141 118 c 0,27,28
 90 190 90 190 65.5 271.5 c 128,-1,29
 41 353 41 353 40 445 c 0,30,31
 40 646 40 646 158 793 c 0,32,33
 277 939 277 939 469 939 c 0,34,35
 610 939 610 939 717 841 c 0,36,37
 822 745 822 745 822 563 c 1,38,-1
 188 563 l 1,9,10
EndSplineSet
Substitution2: "<17016,16016> Urdu Swash lookup 75 subtable" e
PairPos2: "'kern' Horizontal Kerning in Arabic lookup 0 subtable" afii57509 dx=0 dy=0 dh=0 dv=0 dx=0 dy=0 dh=260 dv=0
PairPos2: "'kern' Horizontal Kerning in Arabic lookup 0 subtable" uni06AB dx=0 dy=0 dh=0 dv=0 dx=0 dy=0 dh=260 dv=0
PairPos2: "'kern' Horizontal Kerning in Arabic lookup 0 subtable" uni06A9 dx=0 dy=0 dh=0 dv=0 dx=0 dy=0 dh=260 dv=0
PairPos2: "'kern' Horizontal Kerning in Arabic lookup 0 subtable" uniFB94 dx=0 dy=0 dh=0 dv=0 dx=0 dy=0 dh=260 dv=0
PairPos2: "'kern' Horizontal Kerning in Arabic lookup 0 subtable" uniFBD5 dx=0 dy=0 dh=0 dv=0 dx=0 dy=0 dh=260 dv=0
PairPos2: "'kern' Horizontal Kerning in Arabic lookup 0 subtable" uni06AB.ini dx=0 dy=0 dh=0 dv=0 dx=0 dy=0 dh=260 dv=0
PairPos2: "'kern' Horizontal Kerning in Arabic lookup 0 subtable" uniFB90 dx=0 dy=0 dh=0 dv=0 dx=0 dy=0 dh=260 dv=0
PairPos2: "'kern' Horizontal Kerning in Arabic lookup 0 subtable" uniFEDB dx=0 dy=0 dh=0 dv=0 dx=0 dy=0 dh=260 dv=0
PairPos2: "'kern' Horizontal Kerning in Arabic lookup 0 subtable" uni0671 dx=0 dy=0 dh=0 dv=0 dx=0 dy=0 dh=208 dv=0
PairPos2: "'kern' Horizontal Kerning in Arabic lookup 0 subtable" afii57410 dx=0 dy=0 dh=0 dv=0 dx=0 dy=0 dh=208 dv=0
PairPos2: "'kern' Horizontal Kerning in Arabic lookup 0 subtable" afii57415 dx=0 dy=0 dh=0 dv=0 dx=0 dy=0 dh=52 dv=0
EndChar

StartChar: f
Encoding: 102 102 73
Width: 682
GlyphClass: 2
Flags: W
LayerCount: 2
Fore
SplineSet
40 30 m 1,0,1
 94 32 94 32 127.5 40.5 c 128,-1,2
 161 49 161 49 179.5 69.5 c 128,-1,3
 198 90 198 90 205 124.5 c 128,-1,4
 212 159 212 159 212 214 c 2,5,-1
 212 854 l 1,6,-1
 42 854 l 1,7,-1
 42 923 l 1,8,-1
 212 923 l 1,9,10
 214 1153 214 1153 302.5 1275.5 c 128,-1,11
 391 1398 391 1398 557 1398 c 0,12,13
 599 1398 599 1398 639.5 1389 c 128,-1,14
 680 1380 680 1380 712.5 1363 c 128,-1,15
 745 1346 745 1346 764.5 1322 c 128,-1,16
 784 1298 784 1298 784 1268 c 0,17,18
 784 1234 784 1234 760.5 1208 c 128,-1,19
 737 1182 737 1182 702 1182 c 0,20,21
 672 1182 672 1182 651 1199.5 c 128,-1,22
 630 1217 630 1217 601 1261 c 2,23,-1
 584 1287 l 2,24,25
 570 1308 570 1308 551 1322.5 c 128,-1,26
 532 1337 532 1337 499 1337 c 0,27,28
 382 1337 382 1337 382 1158 c 2,29,-1
 382 923 l 1,30,-1
 633 923 l 1,31,-1
 633 854 l 1,32,-1
 384 854 l 1,33,-1
 384 214 l 2,34,35
 384 102 384 102 414 70 c 0,36,37
 445 39 445 39 574 30 c 1,38,-1
 574 0 l 1,39,-1
 40 0 l 1,40,-1
 40 30 l 1,0,1
EndSplineSet
Substitution2: "<17016,16016> Urdu Swash lookup 75 subtable" f
PairPos2: "'kern' Horizontal Kerning in Arabic lookup 0 subtable" afii57509 dx=0 dy=0 dh=0 dv=0 dx=0 dy=0 dh=260 dv=0
PairPos2: "'kern' Horizontal Kerning in Arabic lookup 0 subtable" uni06AB dx=0 dy=0 dh=0 dv=0 dx=0 dy=0 dh=260 dv=0
PairPos2: "'kern' Horizontal Kerning in Arabic lookup 0 subtable" uni06A9 dx=0 dy=0 dh=0 dv=0 dx=0 dy=0 dh=260 dv=0
PairPos2: "'kern' Horizontal Kerning in Arabic lookup 0 subtable" uniFB94 dx=0 dy=0 dh=0 dv=0 dx=0 dy=0 dh=260 dv=0
PairPos2: "'kern' Horizontal Kerning in Arabic lookup 0 subtable" uniFBD5 dx=0 dy=0 dh=0 dv=0 dx=0 dy=0 dh=260 dv=0
PairPos2: "'kern' Horizontal Kerning in Arabic lookup 0 subtable" uni06AB.ini dx=0 dy=0 dh=0 dv=0 dx=0 dy=0 dh=260 dv=0
PairPos2: "'kern' Horizontal Kerning in Arabic lookup 0 subtable" uniFB90 dx=0 dy=0 dh=0 dv=0 dx=0 dy=0 dh=260 dv=0
PairPos2: "'kern' Horizontal Kerning in Arabic lookup 0 subtable" uniFEDB dx=0 dy=0 dh=0 dv=0 dx=0 dy=0 dh=260 dv=0
PairPos2: "'kern' Horizontal Kerning in Arabic lookup 0 subtable" uni0671 dx=0 dy=0 dh=0 dv=0 dx=0 dy=0 dh=208 dv=0
PairPos2: "'kern' Horizontal Kerning in Arabic lookup 0 subtable" afii57410 dx=0 dy=0 dh=0 dv=0 dx=0 dy=0 dh=208 dv=0
PairPos2: "'kern' Horizontal Kerning in Arabic lookup 0 subtable" afii57415 dx=0 dy=0 dh=0 dv=0 dx=0 dy=0 dh=52 dv=0
EndChar

StartChar: g
Encoding: 103 103 74
Width: 1024
GlyphClass: 2
Flags: W
LayerCount: 2
Fore
SplineSet
612 387 m 0,0,1
 672 435 672 435 672 553 c 0,2,3
 672 650 672 650 623 767 c 0,4,5
 575 885 575 885 463 885 c 0,6,7
 388 885 388 885 349 829.5 c 128,-1,8
 310 774 310 774 310 672 c 0,9,10
 310 552 310 552 369 454 c 0,11,12
 427 358 427 358 521 358 c 0,13,14
 576 358 576 358 612 387 c 0,0,1
512 -331 m 0,15,16
 593 -331 593 -331 661.5 -316 c 128,-1,17
 730 -301 730 -301 779.5 -274 c 128,-1,18
 829 -247 829 -247 856.5 -211 c 128,-1,19
 884 -175 884 -175 884 -133 c 0,20,21
 884 -101 884 -101 862.5 -78.5 c 128,-1,22
 841 -56 841 -56 802 -45 c 0,23,24
 776 -38 776 -38 726.5 -35 c 128,-1,25
 677 -32 677 -32 605 -30 c 0,26,27
 569 -29 569 -29 536 -28 c 128,-1,28
 503 -27 503 -27 468 -24.5 c 128,-1,29
 433 -22 433 -22 394 -17.5 c 128,-1,30
 355 -13 355 -13 308 -4 c 1,31,32
 295 -7 295 -7 250 -67 c 0,33,34
 202 -132 202 -132 202 -184 c 0,35,36
 202 -268 202 -268 295 -299 c 0,37,38
 391 -331 391 -331 512 -331 c 0,15,16
139 616 m 0,39,40
 139 675 139 675 162.5 731 c 128,-1,41
 186 787 186 787 231 839 c 0,42,43
 278 890 278 890 344.5 917 c 128,-1,44
 411 944 411 944 495 944 c 0,45,46
 566 944 566 944 656 909 c 0,47,48
 743 875 743 875 825 875 c 0,49,50
 833 875 833 875 847.5 875.5 c 128,-1,51
 862 876 862 876 879 876.5 c 128,-1,52
 896 877 896 877 914.5 877.5 c 128,-1,53
 933 878 933 878 949 878 c 2,54,-1
 962 878 l 1,55,-1
 962 795 l 1,56,-1
 791 795 l 1,57,58
 815 741 815 741 825 698 c 128,-1,59
 835 655 835 655 835 613 c 0,60,61
 835 558 835 558 811.5 503.5 c 128,-1,62
 788 449 788 449 743 405.5 c 128,-1,63
 698 362 698 362 633 335 c 128,-1,64
 568 308 568 308 485 308 c 0,65,66
 457 308 457 308 395 317 c 0,67,68
 380 316 380 316 359 301 c 128,-1,69
 338 286 338 286 318.5 266 c 128,-1,70
 299 246 299 246 285.5 225 c 128,-1,71
 272 204 272 204 272 189 c 0,72,73
 272 177 272 177 285 166.5 c 128,-1,74
 298 156 298 156 321 148.5 c 128,-1,75
 344 141 344 141 375.5 137 c 128,-1,76
 407 133 407 133 443 133 c 0,77,78
 569 133 569 133 657 125.5 c 128,-1,79
 745 118 745 118 792 104 c 0,80,81
 866 80 866 80 904.5 29 c 128,-1,82
 943 -22 943 -22 943 -99 c 0,83,84
 943 -258 943 -258 766 -352 c 0,85,86
 591 -445 591 -445 410 -445 c 0,87,88
 330 -445 330 -445 264.5 -426.5 c 128,-1,89
 199 -408 199 -408 152 -379 c 128,-1,90
 105 -350 105 -350 79.5 -313 c 128,-1,91
 54 -276 54 -276 54 -239 c 0,92,93
 54 -220 54 -220 59.5 -203 c 128,-1,94
 65 -186 65 -186 79 -167 c 128,-1,95
 93 -148 93 -148 117 -124 c 128,-1,96
 141 -100 141 -100 179 -65 c 2,97,-1
 256 5 l 1,98,99
 194 29 194 29 171.5 53.5 c 128,-1,100
 149 78 149 78 149 111 c 0,101,102
 149 132 149 132 157 152 c 128,-1,103
 165 172 165 172 185.5 197 c 128,-1,104
 206 222 206 222 241 255.5 c 128,-1,105
 276 289 276 289 329 337 c 1,106,107
 283 352 283 352 247.5 379 c 128,-1,108
 212 406 212 406 188 442.5 c 128,-1,109
 164 479 164 479 151.5 523 c 128,-1,110
 139 567 139 567 139 616 c 0,39,40
EndSplineSet
Substitution2: "<17016,16016> Urdu Swash lookup 75 subtable" g
PairPos2: "'kern' Horizontal Kerning in Arabic lookup 0 subtable" afii57509 dx=0 dy=0 dh=0 dv=0 dx=0 dy=0 dh=260 dv=0
PairPos2: "'kern' Horizontal Kerning in Arabic lookup 0 subtable" uni06AB dx=0 dy=0 dh=0 dv=0 dx=0 dy=0 dh=260 dv=0
PairPos2: "'kern' Horizontal Kerning in Arabic lookup 0 subtable" uni06A9 dx=0 dy=0 dh=0 dv=0 dx=0 dy=0 dh=260 dv=0
PairPos2: "'kern' Horizontal Kerning in Arabic lookup 0 subtable" uniFB94 dx=0 dy=0 dh=0 dv=0 dx=0 dy=0 dh=260 dv=0
PairPos2: "'kern' Horizontal Kerning in Arabic lookup 0 subtable" uniFBD5 dx=0 dy=0 dh=0 dv=0 dx=0 dy=0 dh=260 dv=0
PairPos2: "'kern' Horizontal Kerning in Arabic lookup 0 subtable" uni06AB.ini dx=0 dy=0 dh=0 dv=0 dx=0 dy=0 dh=260 dv=0
PairPos2: "'kern' Horizontal Kerning in Arabic lookup 0 subtable" uniFB90 dx=0 dy=0 dh=0 dv=0 dx=0 dy=0 dh=260 dv=0
PairPos2: "'kern' Horizontal Kerning in Arabic lookup 0 subtable" uniFEDB dx=0 dy=0 dh=0 dv=0 dx=0 dy=0 dh=260 dv=0
PairPos2: "'kern' Horizontal Kerning in Arabic lookup 0 subtable" uni0671 dx=0 dy=0 dh=0 dv=0 dx=0 dy=0 dh=208 dv=0
PairPos2: "'kern' Horizontal Kerning in Arabic lookup 0 subtable" afii57410 dx=0 dy=0 dh=0 dv=0 dx=0 dy=0 dh=208 dv=0
PairPos2: "'kern' Horizontal Kerning in Arabic lookup 0 subtable" afii57415 dx=0 dy=0 dh=0 dv=0 dx=0 dy=0 dh=52 dv=0
EndChar

StartChar: h
Encoding: 104 104 75
Width: 1024
GlyphClass: 2
Flags: W
LayerCount: 2
Fore
SplineSet
18 30 m 1,0,1
 60 36 60 36 86 45 c 128,-1,2
 112 54 112 54 126.5 73 c 128,-1,3
 141 92 141 92 145.5 124.5 c 128,-1,4
 150 157 150 157 150 209 c 2,5,-1
 150 1167 l 2,6,7
 150 1194 150 1194 147.5 1214.5 c 128,-1,8
 145 1235 145 1235 137 1248.5 c 128,-1,9
 129 1262 129 1262 112.5 1268.5 c 128,-1,10
 96 1275 96 1275 67 1275 c 0,11,12
 55 1275 55 1275 44.5 1273.5 c 128,-1,13
 34 1272 34 1272 21 1270 c 1,14,-1
 21 1308 l 1,15,16
 126 1340 126 1340 196.5 1360.5 c 128,-1,17
 267 1381 267 1381 316 1396 c 1,18,-1
 318 1388 l 1,19,-1
 318 779 l 1,20,21
 357 824 357 824 393.5 855.5 c 128,-1,22
 430 887 430 887 466 906 c 128,-1,23
 502 925 502 925 539.5 933.5 c 128,-1,24
 577 942 577 942 619 942 c 0,25,26
 744 942 744 942 808 861.5 c 128,-1,27
 872 781 872 781 872 616 c 2,28,-1
 872 209 l 2,29,30
 872 157 872 157 877 124 c 128,-1,31
 882 91 882 91 896 72 c 128,-1,32
 910 53 910 53 934.5 44 c 128,-1,33
 959 35 959 35 997 30 c 1,34,-1
 997 0 l 1,35,-1
 563 0 l 1,36,-1
 563 30 l 1,37,38
 649 42 649 42 675 71 c 0,39,40
 700 99 700 99 700 209 c 2,41,-1
 700 613 l 2,42,43
 700 660 700 660 693 699.5 c 128,-1,44
 686 739 686 739 669 767.5 c 128,-1,45
 652 796 652 796 622 812.5 c 128,-1,46
 592 829 592 829 546 829 c 0,47,48
 508 829 508 829 470 814.5 c 128,-1,49
 432 800 432 800 396 773 c 0,50,51
 361 747 361 747 342 728 c 128,-1,52
 323 709 323 709 323 701 c 2,53,-1
 323 209 l 2,54,55
 323 99 323 99 349 70 c 0,56,57
 374 42 374 42 460 30 c 1,58,-1
 460 0 l 1,59,-1
 18 0 l 1,60,-1
 18 30 l 1,0,1
EndSplineSet
Substitution2: "<17016,16016> Urdu Swash lookup 75 subtable" h
PairPos2: "'kern' Horizontal Kerning in Arabic lookup 0 subtable" afii57509 dx=0 dy=0 dh=0 dv=0 dx=0 dy=0 dh=260 dv=0
PairPos2: "'kern' Horizontal Kerning in Arabic lookup 0 subtable" uni06AB dx=0 dy=0 dh=0 dv=0 dx=0 dy=0 dh=260 dv=0
PairPos2: "'kern' Horizontal Kerning in Arabic lookup 0 subtable" uni06A9 dx=0 dy=0 dh=0 dv=0 dx=0 dy=0 dh=260 dv=0
PairPos2: "'kern' Horizontal Kerning in Arabic lookup 0 subtable" uniFB94 dx=0 dy=0 dh=0 dv=0 dx=0 dy=0 dh=260 dv=0
PairPos2: "'kern' Horizontal Kerning in Arabic lookup 0 subtable" uniFBD5 dx=0 dy=0 dh=0 dv=0 dx=0 dy=0 dh=260 dv=0
PairPos2: "'kern' Horizontal Kerning in Arabic lookup 0 subtable" uni06AB.ini dx=0 dy=0 dh=0 dv=0 dx=0 dy=0 dh=260 dv=0
PairPos2: "'kern' Horizontal Kerning in Arabic lookup 0 subtable" uniFB90 dx=0 dy=0 dh=0 dv=0 dx=0 dy=0 dh=260 dv=0
PairPos2: "'kern' Horizontal Kerning in Arabic lookup 0 subtable" uniFEDB dx=0 dy=0 dh=0 dv=0 dx=0 dy=0 dh=260 dv=0
PairPos2: "'kern' Horizontal Kerning in Arabic lookup 0 subtable" uni0671 dx=0 dy=0 dh=0 dv=0 dx=0 dy=0 dh=208 dv=0
PairPos2: "'kern' Horizontal Kerning in Arabic lookup 0 subtable" afii57410 dx=0 dy=0 dh=0 dv=0 dx=0 dy=0 dh=208 dv=0
PairPos2: "'kern' Horizontal Kerning in Arabic lookup 0 subtable" afii57415 dx=0 dy=0 dh=0 dv=0 dx=0 dy=0 dh=52 dv=0
EndChar

StartChar: i
Encoding: 105 105 76
Width: 569
GlyphClass: 2
Flags: W
LayerCount: 2
Fore
SplineSet
272 1396 m 256,0,1
 294 1396 294 1396 313 1388 c 128,-1,2
 332 1380 332 1380 346.5 1365.5 c 128,-1,3
 361 1351 361 1351 369 1332 c 128,-1,4
 377 1313 377 1313 377 1290 c 0,5,6
 377 1268 377 1268 369 1249 c 128,-1,7
 361 1230 361 1230 346.5 1216 c 128,-1,8
 332 1202 332 1202 313 1193.5 c 128,-1,9
 294 1185 294 1185 272 1185 c 256,10,11
 250 1185 250 1185 230.5 1193.5 c 128,-1,12
 211 1202 211 1202 197 1216 c 128,-1,13
 183 1230 183 1230 175 1249 c 128,-1,14
 167 1268 167 1268 167 1290 c 256,15,16
 167 1312 167 1312 175 1331 c 128,-1,17
 183 1350 183 1350 197 1364.5 c 128,-1,18
 211 1379 211 1379 230.5 1387.5 c 128,-1,19
 250 1396 250 1396 272 1396 c 256,0,1
39 30 m 1,20,21
 147 41 147 41 174 66 c 0,22,23
 202 93 202 93 202 209 c 2,24,-1
 202 685 l 2,25,26
 202 723 202 723 198.5 748 c 128,-1,27
 195 773 195 773 186 788 c 128,-1,28
 177 803 177 803 162.5 809 c 128,-1,29
 148 815 148 815 126 815 c 0,30,31
 121 815 121 815 116 814.5 c 128,-1,32
 111 814 111 814 103.5 812.5 c 128,-1,33
 96 811 96 811 83 807 c 128,-1,34
 70 803 70 803 48 797 c 1,35,-1
 48 830 l 1,36,-1
 92 844 l 2,37,38
 153 864 153 864 203 881.5 c 128,-1,39
 253 899 253 899 289 912.5 c 128,-1,40
 325 926 325 926 346.5 934 c 128,-1,41
 368 942 368 942 373 942 c 1,42,43
 374 938 374 938 374.5 934.5 c 128,-1,44
 375 931 375 931 375 926 c 2,45,-1
 375 209 l 2,46,47
 375 96 375 96 402 67 c 0,48,49
 432 37 432 37 527 30 c 1,50,-1
 527 0 l 1,51,-1
 39 0 l 1,52,-1
 39 30 l 1,20,21
EndSplineSet
Substitution2: "<17016,16016> Urdu Swash lookup 75 subtable" i
PairPos2: "'kern' Horizontal Kerning in Arabic lookup 0 subtable" afii57509 dx=0 dy=0 dh=0 dv=0 dx=0 dy=0 dh=260 dv=0
PairPos2: "'kern' Horizontal Kerning in Arabic lookup 0 subtable" uni06AB dx=0 dy=0 dh=0 dv=0 dx=0 dy=0 dh=260 dv=0
PairPos2: "'kern' Horizontal Kerning in Arabic lookup 0 subtable" uni06A9 dx=0 dy=0 dh=0 dv=0 dx=0 dy=0 dh=260 dv=0
PairPos2: "'kern' Horizontal Kerning in Arabic lookup 0 subtable" uniFB94 dx=0 dy=0 dh=0 dv=0 dx=0 dy=0 dh=260 dv=0
PairPos2: "'kern' Horizontal Kerning in Arabic lookup 0 subtable" uniFBD5 dx=0 dy=0 dh=0 dv=0 dx=0 dy=0 dh=260 dv=0
PairPos2: "'kern' Horizontal Kerning in Arabic lookup 0 subtable" uni06AB.ini dx=0 dy=0 dh=0 dv=0 dx=0 dy=0 dh=260 dv=0
PairPos2: "'kern' Horizontal Kerning in Arabic lookup 0 subtable" uniFB90 dx=0 dy=0 dh=0 dv=0 dx=0 dy=0 dh=260 dv=0
PairPos2: "'kern' Horizontal Kerning in Arabic lookup 0 subtable" uniFEDB dx=0 dy=0 dh=0 dv=0 dx=0 dy=0 dh=260 dv=0
PairPos2: "'kern' Horizontal Kerning in Arabic lookup 0 subtable" uni0671 dx=0 dy=0 dh=0 dv=0 dx=0 dy=0 dh=208 dv=0
PairPos2: "'kern' Horizontal Kerning in Arabic lookup 0 subtable" afii57410 dx=0 dy=0 dh=0 dv=0 dx=0 dy=0 dh=208 dv=0
PairPos2: "'kern' Horizontal Kerning in Arabic lookup 0 subtable" afii57415 dx=0 dy=0 dh=0 dv=0 dx=0 dy=0 dh=52 dv=0
EndChar

